<?xml version="1.0" encoding="utf-8"?>
<!-- Generator: Adobe Illustrator 15.1.0, SVG Export Plug-In . SVG Version: 6.00 Build 0)  -->
<!DOCTYPE svg PUBLIC "-//W3C//DTD SVG 1.1//EN" "http://www.w3.org/Graphics/SVG/1.1/DTD/svg11.dtd">
<svg class="svg" version="1.1" id="Layer_1" xmlns="http://www.w3.org/2000/svg" xmlns:xlink="http://www.w3.org/1999/xlink" x="0px" y="0px"
	 width="25.768px" height="25.721px" viewBox="0 0 25.768 25.721" enable-background="new 0 0 25.768 25.721" xml:space="preserve">
<g id="layer1">
	<g id="g3257">
		<path id="path2442" fill="#fff" d="M12.61,20.094h1.528c0,0,0.461-0.052,0.697-0.306c0.217-0.233,0.211-0.671,0.211-0.671
			s-0.03-2.051,0.921-2.354c0.938-0.297,2.144,1.982,3.42,2.859c0.966,0.663,1.7,0.518,1.7,0.518l3.415-0.047
			c0,0,1.786-0.11,0.938-1.516c-0.068-0.114-0.493-1.038-2.538-2.938c-2.142-1.987-1.854-1.666,0.725-5.104
			c1.57-2.093,2.198-3.371,2.002-3.918c-0.187-0.521-1.342-0.383-1.342-0.383l-3.845,0.023c0,0-0.285-0.039-0.496,0.087
			c-0.207,0.124-0.34,0.413-0.34,0.413s-0.608,1.62-1.42,2.998c-1.712,2.907-2.397,3.061-2.677,2.88
			c-0.651-0.422-0.488-1.69-0.488-2.592c0-2.818,0.427-3.992-0.832-4.296c-0.418-0.101-0.727-0.167-1.794-0.179
			c-1.373-0.014-2.534,0.004-3.191,0.327C8.767,6.11,8.429,6.587,8.635,6.615C8.89,6.649,9.465,6.77,9.769,7.185
			c0.395,0.536,0.381,1.74,0.381,1.74s0.226,3.317-0.529,3.729c-0.518,0.281-1.229-0.295-2.755-2.932
			C6.083,8.371,5.493,6.877,5.493,6.877S5.379,6.598,5.176,6.448C4.93,6.267,4.586,6.21,4.586,6.21L0.932,6.234
			c0,0-0.549,0.016-0.75,0.254C0.003,6.7,0.168,7.138,0.168,7.138s2.86,6.693,6.099,10.065C9.237,20.296,12.61,20.094,12.61,20.094"
			/>
		<path id="path2442_1_" fill="#fff" d="M12.61,20.094h1.528c0,0,0.461-0.052,0.697-0.306c0.217-0.233,0.211-0.671,0.211-0.671
			s-0.03-2.051,0.921-2.354c0.938-0.297,2.144,1.982,3.42,2.859c0.966,0.663,1.7,0.518,1.7,0.518l3.415-0.047
			c0,0,1.786-0.11,0.938-1.516c-0.068-0.114-0.493-1.038-2.538-2.938c-2.142-1.987-1.854-1.666,0.725-5.104
			c1.57-2.093,2.198-3.371,2.002-3.918c-0.187-0.521-1.342-0.383-1.342-0.383l-3.845,0.023c0,0-0.285-0.039-0.496,0.087
			c-0.207,0.124-0.34,0.413-0.34,0.413s-0.608,1.62-1.42,2.998c-1.712,2.907-2.397,3.061-2.677,2.88
			c-0.651-0.422-0.488-1.69-0.488-2.592c0-2.818,0.427-3.992-0.832-4.296c-0.418-0.101-0.727-0.167-1.794-0.179
			c-1.373-0.014-2.534,0.004-3.191,0.327C8.767,6.11,8.429,6.587,8.635,6.615C8.89,6.649,9.465,6.77,9.769,7.185
			c0.395,0.536,0.381,1.74,0.381,1.74s0.226,3.317-0.529,3.729c-0.518,0.281-1.229-0.295-2.755-2.932
			C6.083,8.371,5.493,6.877,5.493,6.877S5.379,6.598,5.176,6.448C4.93,6.267,4.586,6.21,4.586,6.21L0.932,6.234
			c0,0-0.549,0.016-0.75,0.254C0.003,6.7,0.168,7.138,0.168,7.138s2.86,6.693,6.099,10.065C9.237,20.296,12.61,20.094,12.61,20.094"
			/>
	</g>
</g>
</svg>