<?xml version="1.0" encoding="utf-8"?>
                <!-- Generator: Adobe Illustrator 15.1.0, SVG Export Plug-In . SVG Version: 6.00 Build 0)  -->
                <!DOCTYPE svg PUBLIC "-//W3C//DTD SVG 1.1//EN" "http://www.w3.org/Graphics/SVG/1.1/DTD/svg11.dtd">
                <svg class="svg" version="1.1" id="Layer_1" xmlns="http://www.w3.org/2000/svg" xmlns:xlink="http://www.w3.org/1999/xlink" x="0px" y="0px"
                     width="25.767px" height="25.72px" viewBox="0 0 25.767 25.72" enable-background="new 0 0 25.767 25.72" xml:space="preserve">
                <path fill="#fff" clip-rule="evenodd" d="M3.307,0h19.146c1.818,0,3.306,1.487,3.306,3.306v19.146
                    c0,1.818-1.487,3.306-3.306,3.306H3.307C1.488,25.758,0,24.271,0,22.452V3.306C0,1.487,1.488,0,3.307,0L3.307,0z M18.764,2.862
                    c-0.639,0-1.16,0.521-1.16,1.16v2.775c0,0.638,0.521,1.16,1.16,1.16h2.911c0.638,0,1.159-0.522,1.159-1.16V4.022
                    c0-0.639-0.521-1.16-1.159-1.16H18.764L18.764,2.862z M22.847,10.893H20.58c0.214,0.701,0.331,1.442,0.331,2.21
                    c0,4.284-3.586,7.758-8.008,7.758s-8.006-3.474-8.006-7.758c0-0.768,0.116-1.509,0.33-2.21H2.862v10.881
                    c0,0.563,0.461,1.024,1.024,1.024h17.938c0.563,0,1.023-0.461,1.023-1.024V10.893L22.847,10.893z M12.903,7.811
                    c-2.857,0-5.173,2.244-5.173,5.013s2.316,5.012,5.173,5.012c2.857,0,5.174-2.243,5.174-5.012S15.761,7.811,12.903,7.811z"/>
                </svg>