<?xml version="1.0" encoding="utf-8"?>
<!-- Generator: Adobe Illustrator 15.1.0, SVG Export Plug-In . SVG Version: 6.00 Build 0)  -->
<!DOCTYPE svg PUBLIC "-//W3C//DTD SVG 1.1//EN" "http://www.w3.org/Graphics/SVG/1.1/DTD/svg11.dtd">
<svg class="svg" version="1.1" id="Layer_1" xmlns="http://www.w3.org/2000/svg" xmlns:xlink="http://www.w3.org/1999/xlink" x="0px" y="0px"
	 width="25.768px" height="25.721px" viewBox="0 0 25.768 25.721" enable-background="new 0 0 25.768 25.721" xml:space="preserve">
<g id="layer1" transform="translate(-282.32053,-396.30734)" >
	<path id="path5" fill="#fff" d="M307.982,401.208c-0.945,0.419-1.96,0.702-3.025,0.83
		c1.089-0.651,1.923-1.684,2.315-2.913c-1.017,0.604-2.144,1.042-3.343,1.277c-0.96-1.023-2.329-1.663-3.843-1.663
		c-2.908,0-5.265,2.358-5.265,5.265c0,0.413,0.046,0.814,0.136,1.2c-4.375-0.22-8.255-2.316-10.852-5.5
		c-0.453,0.777-0.713,1.681-0.713,2.646c0,1.827,0.93,3.438,2.342,4.382c-0.863-0.027-1.674-0.265-2.384-0.658
		c0,0.022,0,0.044,0,0.066c0,2.55,1.814,4.678,4.223,5.162c-0.441,0.121-0.906,0.186-1.387,0.186c-0.339,0-0.668-0.034-0.99-0.095
		c0.67,2.091,2.615,3.613,4.918,3.656c-1.802,1.412-4.071,2.253-6.538,2.253c-0.425,0-0.844-0.025-1.256-0.073
		c2.33,1.494,5.097,2.365,8.07,2.365c9.684,0,14.979-8.021,14.979-14.979c0-0.228-0.005-0.456-0.017-0.681
		C306.384,403.192,307.276,402.264,307.982,401.208L307.982,401.208z"/>
</g>
</svg>