<?xml version="1.0" encoding="utf-8"?>
<!-- Generator: Adobe Illustrator 17.0.0, SVG Export Plug-In . SVG Version: 6.00 Build 0)  -->
<!DOCTYPE svg PUBLIC "-//W3C//DTD SVG 1.1//EN" "http://www.w3.org/Graphics/SVG/1.1/DTD/svg11.dtd">
<svg version="1.1" id="Layer_1" xmlns="http://www.w3.org/2000/svg" xmlns:xlink="http://www.w3.org/1999/xlink" x="0px" y="0px"
	 width="140px" height="138.583px" viewBox="0 0 140 138.583" enable-background="new 0 0 140 138.583" xml:space="preserve">
<path fill="#231F20" d="M39.82,96.492h14.364v4.853c0,0.553,0.448,1,1,1h30.729c0.553,0,1-0.447,1-1v-4.852h13.265
	c0.553,0,1-0.447,1-1V55.055c0-0.552-0.447-1-1-1H86.913v-1.23h11.069c0.553,0,1-0.448,1-1s-0.447-1-1-1H86.913v-8.008
	c0-0.552-0.447-1-1-1H55.184c-0.552,0-1,0.448-1,1v19.805H42.383c-0.552,0-1,0.448-1,1s0.448,1,1,1h11.801v1.254H39.82
	c-0.552,0-1,0.448-1,1v28.616C38.82,96.044,39.268,96.492,39.82,96.492z M99.178,56.055v38.438H86.913V56.055H99.178z
	 M56.184,43.817h28.729v8.003c0,0.002-0.001,0.003-0.001,0.005s0.001,0.003,0.001,0.005v3.22c0,0.002-0.001,0.003-0.001,0.005
	v40.438c0,0.002,0.001,0.003,0.001,0.005v4.847H56.184V43.817z M40.82,67.876h13.363v26.616H40.82V67.876z"/>
<path fill="#231F20" d="M57.563,40.8h25.24c0.553,0,1-0.448,1-1s-0.447-1-1-1H81.24v-1.562c0-0.552-0.447-1-1-1s-1,0.448-1,1V38.8
	h-1.352v-1.562c0-0.552-0.447-1-1-1s-1,0.448-1,1V38.8h-1.354v-1.562c0-0.552-0.447-1-1-1s-1,0.448-1,1V38.8h-1.354v-1.562
	c0-0.552-0.447-1-1-1s-1,0.448-1,1V38.8H67.83v-1.562c0-0.552-0.448-1-1-1s-1,0.448-1,1V38.8h-1.353v-1.562c0-0.552-0.448-1-1-1
	s-1,0.448-1,1V38.8h-1.354v-1.562c0-0.552-0.448-1-1-1s-1,0.448-1,1V38.8h-1.56c-0.552,0-1,0.448-1,1S57.011,40.8,57.563,40.8z"/>
<path fill="#231F20" d="M46.633,90.147H44.76c-0.552,0-1,0.447-1,1s0.448,1,1,1h1.873c0.552,0,1-0.447,1-1
	S47.185,90.147,46.633,90.147z"/>
<path fill="#231F20" d="M46.633,86.216H44.76c-0.552,0-1,0.447-1,1s0.448,1,1,1h1.873c0.552,0,1-0.447,1-1
	S47.185,86.216,46.633,86.216z"/>
<path fill="#231F20" d="M46.633,82.283H44.76c-0.552,0-1,0.447-1,1s0.448,1,1,1h1.873c0.552,0,1-0.447,1-1
	S47.185,82.283,46.633,82.283z"/>
<path fill="#231F20" d="M46.633,78.351H44.76c-0.552,0-1,0.447-1,1s0.448,1,1,1h1.873c0.552,0,1-0.447,1-1
	S47.185,78.351,46.633,78.351z"/>
<path fill="#231F20" d="M46.633,74.419H44.76c-0.552,0-1,0.447-1,1s0.448,1,1,1h1.873c0.552,0,1-0.447,1-1
	S47.185,74.419,46.633,74.419z"/>
<path fill="#231F20" d="M46.633,70.486H44.76c-0.552,0-1,0.447-1,1s0.448,1,1,1h1.873c0.552,0,1-0.447,1-1
	S47.185,70.486,46.633,70.486z"/>
<path fill="#231F20" d="M51.982,90.147h-1.873c-0.552,0-1,0.447-1,1s0.448,1,1,1h1.873c0.552,0,1-0.447,1-1
	S52.534,90.147,51.982,90.147z"/>
<path fill="#231F20" d="M51.982,86.216h-1.873c-0.552,0-1,0.447-1,1s0.448,1,1,1h1.873c0.552,0,1-0.447,1-1
	S52.534,86.216,51.982,86.216z"/>
<path fill="#231F20" d="M51.982,82.283h-1.873c-0.552,0-1,0.447-1,1s0.448,1,1,1h1.873c0.552,0,1-0.447,1-1
	S52.534,82.283,51.982,82.283z"/>
<path fill="#231F20" d="M51.982,78.351h-1.873c-0.552,0-1,0.447-1,1s0.448,1,1,1h1.873c0.552,0,1-0.447,1-1
	S52.534,78.351,51.982,78.351z"/>
<path fill="#231F20" d="M51.982,74.419h-1.873c-0.552,0-1,0.447-1,1s0.448,1,1,1h1.873c0.552,0,1-0.447,1-1
	S52.534,74.419,51.982,74.419z"/>
<path fill="#231F20" d="M51.982,70.486h-1.873c-0.552,0-1,0.447-1,1s0.448,1,1,1h1.873c0.552,0,1-0.447,1-1
	S52.534,70.486,51.982,70.486z"/>
<g>
	<path fill="#231F20" d="M66.64,96.583h1.873c0.552,0,1-0.447,1-1s-0.448-1-1-1H66.64c-0.552,0-1,0.447-1,1
		S66.088,96.583,66.64,96.583z"/>
	<path fill="#231F20" d="M66.64,92.65h1.873c0.552,0,1-0.447,1-1s-0.448-1-1-1H66.64c-0.552,0-1,0.447-1,1S66.088,92.65,66.64,92.65
		z"/>
	<path fill="#231F20" d="M66.64,88.719h1.873c0.552,0,1-0.447,1-1s-0.448-1-1-1H66.64c-0.552,0-1,0.447-1,1
		S66.088,88.719,66.64,88.719z"/>
	<path fill="#231F20" d="M66.64,84.786h1.873c0.552,0,1-0.447,1-1s-0.448-1-1-1H66.64c-0.552,0-1,0.447-1,1
		S66.088,84.786,66.64,84.786z"/>
	<path fill="#231F20" d="M66.64,80.853h1.873c0.552,0,1-0.447,1-1s-0.448-1-1-1H66.64c-0.552,0-1,0.447-1,1
		S66.088,80.853,66.64,80.853z"/>
	<path fill="#231F20" d="M66.64,76.922h1.873c0.552,0,1-0.447,1-1s-0.448-1-1-1H66.64c-0.552,0-1,0.447-1,1
		S66.088,76.922,66.64,76.922z"/>
	<path fill="#231F20" d="M66.64,72.989h1.873c0.552,0,1-0.447,1-1s-0.448-1-1-1H66.64c-0.552,0-1,0.447-1,1
		S66.088,72.989,66.64,72.989z"/>
	<path fill="#231F20" d="M66.64,69.057h1.873c0.552,0,1-0.448,1-1s-0.448-1-1-1H66.64c-0.552,0-1,0.448-1,1
		S66.088,69.057,66.64,69.057z"/>
	<path fill="#231F20" d="M66.64,65.125h1.873c0.552,0,1-0.448,1-1s-0.448-1-1-1H66.64c-0.552,0-1,0.448-1,1
		S66.088,65.125,66.64,65.125z"/>
	<path fill="#231F20" d="M66.64,61.192h1.873c0.552,0,1-0.448,1-1s-0.448-1-1-1H66.64c-0.552,0-1,0.448-1,1
		S66.088,61.192,66.64,61.192z"/>
	<path fill="#231F20" d="M66.64,57.26h1.873c0.552,0,1-0.448,1-1s-0.448-1-1-1H66.64c-0.552,0-1,0.448-1,1S66.088,57.26,66.64,57.26
		z"/>
	<path fill="#231F20" d="M66.64,53.328h1.873c0.552,0,1-0.448,1-1s-0.448-1-1-1H66.64c-0.552,0-1,0.448-1,1
		S66.088,53.328,66.64,53.328z"/>
	<path fill="#231F20" d="M66.64,49.395h1.873c0.552,0,1-0.448,1-1s-0.448-1-1-1H66.64c-0.552,0-1,0.448-1,1
		S66.088,49.395,66.64,49.395z"/>
	<path fill="#231F20" d="M60.61,96.583h1.875c0.552,0,1-0.447,1-1s-0.448-1-1-1H60.61c-0.552,0-1,0.447-1,1
		S60.058,96.583,60.61,96.583z"/>
	<path fill="#231F20" d="M60.61,92.65h1.875c0.552,0,1-0.447,1-1s-0.448-1-1-1H60.61c-0.552,0-1,0.447-1,1S60.058,92.65,60.61,92.65
		z"/>
	<path fill="#231F20" d="M60.61,88.719h1.875c0.552,0,1-0.447,1-1s-0.448-1-1-1H60.61c-0.552,0-1,0.447-1,1
		S60.058,88.719,60.61,88.719z"/>
	<path fill="#231F20" d="M60.61,84.786h1.875c0.552,0,1-0.447,1-1s-0.448-1-1-1H60.61c-0.552,0-1,0.447-1,1
		S60.058,84.786,60.61,84.786z"/>
	<path fill="#231F20" d="M60.61,80.853h1.875c0.552,0,1-0.447,1-1s-0.448-1-1-1H60.61c-0.552,0-1,0.447-1,1
		S60.058,80.853,60.61,80.853z"/>
	<path fill="#231F20" d="M60.61,76.922h1.875c0.552,0,1-0.447,1-1s-0.448-1-1-1H60.61c-0.552,0-1,0.447-1,1
		S60.058,76.922,60.61,76.922z"/>
	<path fill="#231F20" d="M60.61,72.989h1.875c0.552,0,1-0.447,1-1s-0.448-1-1-1H60.61c-0.552,0-1,0.447-1,1
		S60.058,72.989,60.61,72.989z"/>
	<path fill="#231F20" d="M60.61,69.057h1.875c0.552,0,1-0.448,1-1s-0.448-1-1-1H60.61c-0.552,0-1,0.448-1,1
		S60.058,69.057,60.61,69.057z"/>
	<path fill="#231F20" d="M60.61,65.125h1.875c0.552,0,1-0.448,1-1s-0.448-1-1-1H60.61c-0.552,0-1,0.448-1,1
		S60.058,65.125,60.61,65.125z"/>
	<path fill="#231F20" d="M60.61,61.192h1.875c0.552,0,1-0.448,1-1s-0.448-1-1-1H60.61c-0.552,0-1,0.448-1,1
		S60.058,61.192,60.61,61.192z"/>
	<path fill="#231F20" d="M60.61,57.26h1.875c0.552,0,1-0.448,1-1s-0.448-1-1-1H60.61c-0.552,0-1,0.448-1,1S60.058,57.26,60.61,57.26
		z"/>
	<path fill="#231F20" d="M60.61,53.328h1.875c0.552,0,1-0.448,1-1s-0.448-1-1-1H60.61c-0.552,0-1,0.448-1,1
		S60.058,53.328,60.61,53.328z"/>
	<path fill="#231F20" d="M60.61,49.395h1.875c0.552,0,1-0.448,1-1s-0.448-1-1-1H60.61c-0.552,0-1,0.448-1,1
		S60.058,49.395,60.61,49.395z"/>
	<path fill="#231F20" d="M72.665,96.583h1.875c0.553,0,1-0.447,1-1s-0.447-1-1-1h-1.875c-0.553,0-1,0.447-1,1
		S72.112,96.583,72.665,96.583z"/>
	<path fill="#231F20" d="M72.665,92.65h1.875c0.553,0,1-0.447,1-1s-0.447-1-1-1h-1.875c-0.553,0-1,0.447-1,1
		S72.112,92.65,72.665,92.65z"/>
	<path fill="#231F20" d="M72.665,88.719h1.875c0.553,0,1-0.447,1-1s-0.447-1-1-1h-1.875c-0.553,0-1,0.447-1,1
		S72.112,88.719,72.665,88.719z"/>
	<path fill="#231F20" d="M72.665,84.786h1.875c0.553,0,1-0.447,1-1s-0.447-1-1-1h-1.875c-0.553,0-1,0.447-1,1
		S72.112,84.786,72.665,84.786z"/>
	<path fill="#231F20" d="M72.665,80.853h1.875c0.553,0,1-0.447,1-1s-0.447-1-1-1h-1.875c-0.553,0-1,0.447-1,1
		S72.112,80.853,72.665,80.853z"/>
	<path fill="#231F20" d="M72.665,76.922h1.875c0.553,0,1-0.447,1-1s-0.447-1-1-1h-1.875c-0.553,0-1,0.447-1,1
		S72.112,76.922,72.665,76.922z"/>
	<path fill="#231F20" d="M72.665,72.989h1.875c0.553,0,1-0.447,1-1s-0.447-1-1-1h-1.875c-0.553,0-1,0.447-1,1
		S72.112,72.989,72.665,72.989z"/>
	<path fill="#231F20" d="M72.665,69.057h1.875c0.553,0,1-0.448,1-1s-0.447-1-1-1h-1.875c-0.553,0-1,0.448-1,1
		S72.112,69.057,72.665,69.057z"/>
	<path fill="#231F20" d="M72.665,65.125h1.875c0.553,0,1-0.448,1-1s-0.447-1-1-1h-1.875c-0.553,0-1,0.448-1,1
		S72.112,65.125,72.665,65.125z"/>
	<path fill="#231F20" d="M72.665,61.192h1.875c0.553,0,1-0.448,1-1s-0.447-1-1-1h-1.875c-0.553,0-1,0.448-1,1
		S72.112,61.192,72.665,61.192z"/>
	<path fill="#231F20" d="M72.665,57.26h1.875c0.553,0,1-0.448,1-1s-0.447-1-1-1h-1.875c-0.553,0-1,0.448-1,1
		S72.112,57.26,72.665,57.26z"/>
	<path fill="#231F20" d="M72.665,53.328h1.875c0.553,0,1-0.448,1-1s-0.447-1-1-1h-1.875c-0.553,0-1,0.448-1,1
		S72.112,53.328,72.665,53.328z"/>
	<path fill="#231F20" d="M72.665,49.395h1.875c0.553,0,1-0.448,1-1s-0.447-1-1-1h-1.875c-0.553,0-1,0.448-1,1
		S72.112,49.395,72.665,49.395z"/>
	<path fill="#231F20" d="M78.694,96.583h1.873c0.553,0,1-0.447,1-1s-0.447-1-1-1h-1.873c-0.553,0-1,0.447-1,1
		S78.141,96.583,78.694,96.583z"/>
	<path fill="#231F20" d="M78.694,92.65h1.873c0.553,0,1-0.447,1-1s-0.447-1-1-1h-1.873c-0.553,0-1,0.447-1,1
		S78.141,92.65,78.694,92.65z"/>
	<path fill="#231F20" d="M78.694,88.719h1.873c0.553,0,1-0.447,1-1s-0.447-1-1-1h-1.873c-0.553,0-1,0.447-1,1
		S78.141,88.719,78.694,88.719z"/>
	<path fill="#231F20" d="M78.694,84.786h1.873c0.553,0,1-0.447,1-1s-0.447-1-1-1h-1.873c-0.553,0-1,0.447-1,1
		S78.141,84.786,78.694,84.786z"/>
	<path fill="#231F20" d="M78.694,80.853h1.873c0.553,0,1-0.447,1-1s-0.447-1-1-1h-1.873c-0.553,0-1,0.447-1,1
		S78.141,80.853,78.694,80.853z"/>
	<path fill="#231F20" d="M78.694,76.922h1.873c0.553,0,1-0.447,1-1s-0.447-1-1-1h-1.873c-0.553,0-1,0.447-1,1
		S78.141,76.922,78.694,76.922z"/>
	<path fill="#231F20" d="M78.694,72.989h1.873c0.553,0,1-0.447,1-1s-0.447-1-1-1h-1.873c-0.553,0-1,0.447-1,1
		S78.141,72.989,78.694,72.989z"/>
	<path fill="#231F20" d="M78.694,69.057h1.873c0.553,0,1-0.448,1-1s-0.447-1-1-1h-1.873c-0.553,0-1,0.448-1,1
		S78.141,69.057,78.694,69.057z"/>
	<path fill="#231F20" d="M78.694,65.125h1.873c0.553,0,1-0.448,1-1s-0.447-1-1-1h-1.873c-0.553,0-1,0.448-1,1
		S78.141,65.125,78.694,65.125z"/>
	<path fill="#231F20" d="M78.694,61.192h1.873c0.553,0,1-0.448,1-1s-0.447-1-1-1h-1.873c-0.553,0-1,0.448-1,1
		S78.141,61.192,78.694,61.192z"/>
	<path fill="#231F20" d="M78.694,57.26h1.873c0.553,0,1-0.448,1-1s-0.447-1-1-1h-1.873c-0.553,0-1,0.448-1,1
		S78.141,57.26,78.694,57.26z"/>
	<path fill="#231F20" d="M78.694,53.328h1.873c0.553,0,1-0.448,1-1s-0.447-1-1-1h-1.873c-0.553,0-1,0.448-1,1
		S78.141,53.328,78.694,53.328z"/>
	<path fill="#231F20" d="M78.694,49.395h1.873c0.553,0,1-0.448,1-1s-0.447-1-1-1h-1.873c-0.553,0-1,0.448-1,1
		S78.141,49.395,78.694,49.395z"/>
</g>
<path fill="#231F20" d="M93.98,91.554h1.875c0.553,0,1-0.447,1-1s-0.447-1-1-1H93.98c-0.553,0-1,0.447-1,1
	S93.428,91.554,93.98,91.554z"/>
<path fill="#231F20" d="M93.98,87.621h1.875c0.553,0,1-0.447,1-1s-0.447-1-1-1H93.98c-0.553,0-1,0.447-1,1
	S93.428,87.621,93.98,87.621z"/>
<path fill="#231F20" d="M93.98,83.688h1.875c0.553,0,1-0.447,1-1s-0.447-1-1-1H93.98c-0.553,0-1,0.447-1,1
	S93.428,83.688,93.98,83.688z"/>
<path fill="#231F20" d="M93.98,79.757h1.875c0.553,0,1-0.447,1-1s-0.447-1-1-1H93.98c-0.553,0-1,0.447-1,1
	S93.428,79.757,93.98,79.757z"/>
<path fill="#231F20" d="M93.98,75.824h1.875c0.553,0,1-0.447,1-1s-0.447-1-1-1H93.98c-0.553,0-1,0.447-1,1
	S93.428,75.824,93.98,75.824z"/>
<path fill="#231F20" d="M93.98,71.892h1.875c0.553,0,1-0.447,1-1s-0.447-1-1-1H93.98c-0.553,0-1,0.447-1,1
	S93.428,71.892,93.98,71.892z"/>
<path fill="#231F20" d="M93.98,67.959h1.875c0.553,0,1-0.448,1-1s-0.447-1-1-1H93.98c-0.553,0-1,0.448-1,1
	S93.428,67.959,93.98,67.959z"/>
<path fill="#231F20" d="M93.98,64.027h1.875c0.553,0,1-0.448,1-1s-0.447-1-1-1H93.98c-0.553,0-1,0.448-1,1
	S93.428,64.027,93.98,64.027z"/>
<path fill="#231F20" d="M93.98,60.095h1.875c0.553,0,1-0.448,1-1s-0.447-1-1-1H93.98c-0.553,0-1,0.448-1,1
	S93.428,60.095,93.98,60.095z"/>
<path fill="#231F20" d="M90.85,89.554h-1.875c-0.553,0-1,0.447-1,1s0.447,1,1,1h1.875c0.553,0,1-0.447,1-1
	S91.402,89.554,90.85,89.554z"/>
<path fill="#231F20" d="M88.975,87.621h1.875c0.553,0,1-0.447,1-1s-0.447-1-1-1h-1.875c-0.553,0-1,0.447-1,1
	S88.422,87.621,88.975,87.621z"/>
<path fill="#231F20" d="M88.975,83.688h1.875c0.553,0,1-0.447,1-1s-0.447-1-1-1h-1.875c-0.553,0-1,0.447-1,1
	S88.422,83.688,88.975,83.688z"/>
<path fill="#231F20" d="M88.975,79.757h1.875c0.553,0,1-0.447,1-1s-0.447-1-1-1h-1.875c-0.553,0-1,0.447-1,1
	S88.422,79.757,88.975,79.757z"/>
<path fill="#231F20" d="M88.975,75.824h1.875c0.553,0,1-0.447,1-1s-0.447-1-1-1h-1.875c-0.553,0-1,0.447-1,1
	S88.422,75.824,88.975,75.824z"/>
<path fill="#231F20" d="M88.975,71.892h1.875c0.553,0,1-0.447,1-1s-0.447-1-1-1h-1.875c-0.553,0-1,0.447-1,1
	S88.422,71.892,88.975,71.892z"/>
<path fill="#231F20" d="M88.975,67.959h1.875c0.553,0,1-0.448,1-1s-0.447-1-1-1h-1.875c-0.553,0-1,0.448-1,1
	S88.422,67.959,88.975,67.959z"/>
<path fill="#231F20" d="M88.975,64.027h1.875c0.553,0,1-0.448,1-1s-0.447-1-1-1h-1.875c-0.553,0-1,0.448-1,1
	S88.422,64.027,88.975,64.027z"/>
<path fill="#231F20" d="M88.975,60.095h1.875c0.553,0,1-0.448,1-1s-0.447-1-1-1h-1.875c-0.553,0-1,0.448-1,1
	S88.422,60.095,88.975,60.095z"/>
<path fill="#231F20" d="M70,120.791c28.397,0,51.5-23.103,51.5-51.5s-23.103-51.5-51.5-51.5c-28.397,0-51.5,23.103-51.5,51.5
	S41.603,120.791,70,120.791z M70,19.791c27.294,0,49.5,22.206,49.5,49.5s-22.206,49.5-49.5,49.5c-27.294,0-49.5-22.205-49.5-49.5
	S42.706,19.791,70,19.791z"/>
<path fill="#231F20" d="M23.168,27.278c0.567-0.631,2.177-0.689,3.597-0.741c1.766-0.064,3.593-0.13,4.757-1.152
	c1.162-1.02,1.466-2.82,1.759-4.561c0.236-1.403,0.504-2.994,1.206-3.474c0.696-0.476,2.27-0.152,3.659,0.133
	c1.734,0.357,3.529,0.726,4.904,0.007c1.365-0.712,2.085-2.384,2.782-4.001c0.565-1.311,1.205-2.796,2.008-3.098
	c0.781-0.297,2.229,0.393,3.506,1c1.603,0.762,3.258,1.549,4.776,1.181c1.487-0.363,2.582-1.81,3.642-3.208
	c0.865-1.143,1.846-2.438,2.707-2.54c0.816-0.094,2.056,0.909,3.146,1.798C67,9.747,68.429,10.911,70,10.911s3-1.165,4.382-2.291
	c1.091-0.889,2.313-1.91,3.147-1.798c0.859,0.103,1.84,1.397,2.704,2.539c1.06,1.4,2.155,2.847,3.645,3.21
	c1.516,0.368,3.172-0.419,4.775-1.18c1.275-0.606,2.725-1.294,3.505-1c0.804,0.302,1.443,1.789,2.009,3.1
	c0.696,1.616,1.417,3.288,2.781,4c1.376,0.718,3.169,0.35,4.904-0.007c1.388-0.286,2.964-0.609,3.658-0.133
	c0.702,0.48,0.971,2.071,1.207,3.475c0.293,1.741,0.597,3.541,1.759,4.561c1.164,1.021,2.991,1.087,4.757,1.151
	c1.421,0.052,3.03,0.11,3.597,0.741c0.197,0.22,0.471,0.332,0.744,0.332c0.238,0,0.477-0.084,0.668-0.256
	c0.411-0.369,0.445-1.001,0.076-1.412c-1.134-1.263-3.105-1.334-5.013-1.404c-1.416-0.051-2.881-0.104-3.511-0.656
	c-0.627-0.55-0.87-1.994-1.105-3.39c-0.317-1.884-0.646-3.832-2.049-4.793c-1.396-0.957-3.325-0.56-5.19-0.176
	c-1.392,0.286-2.83,0.583-3.577,0.192c-0.734-0.383-1.312-1.723-1.869-3.018c-0.758-1.759-1.542-3.578-3.141-4.18
	c-1.577-0.592-3.353,0.25-5.068,1.066c-1.287,0.613-2.618,1.248-3.443,1.043c-0.797-0.194-1.675-1.353-2.523-2.474
	c-1.159-1.531-2.358-3.114-4.063-3.318c-1.665-0.198-3.181,1.039-4.647,2.234C72.008,7.975,70.859,8.911,70,8.911
	c-0.86,0-2.008-0.936-3.118-1.841c-1.468-1.196-2.991-2.432-4.647-2.233C60.53,5.04,59.331,6.624,58.17,8.155
	c-0.848,1.12-1.725,2.278-2.521,2.472c-0.822,0.201-2.156-0.432-3.443-1.043c-1.717-0.816-3.493-1.658-5.07-1.066
	c-1.598,0.602-2.381,2.42-3.139,4.179c-0.559,1.296-1.136,2.636-1.871,3.02c-0.745,0.391-2.185,0.094-3.577-0.192
	c-1.865-0.383-3.795-0.779-5.191,0.176c-1.403,0.961-1.731,2.909-2.048,4.792c-0.235,1.396-0.479,2.84-1.106,3.39
	c-0.629,0.552-2.094,0.605-3.511,0.656c-1.907,0.069-3.879,0.141-5.013,1.404c-0.369,0.411-0.335,1.043,0.076,1.412
	S22.799,27.688,23.168,27.278z"/>
<path fill="#231F20" d="M116.83,111.306c-0.566,0.631-2.177,0.689-3.597,0.74c-1.767,0.064-3.593,0.13-4.758,1.151
	c-1.162,1.02-1.466,2.819-1.759,4.561c-0.236,1.403-0.505,2.994-1.206,3.476c-0.697,0.476-2.272,0.152-3.659-0.133
	c-1.735-0.356-3.527-0.725-4.904-0.007c-1.365,0.711-2.086,2.384-2.782,4.001c-0.565,1.311-1.206,2.797-2.009,3.1
	c-0.778,0.29-2.229-0.395-3.504-1.001c-1.604-0.762-3.262-1.55-4.777-1.181c-1.487,0.363-2.583,1.81-3.643,3.209
	c-0.865,1.143-1.846,2.438-2.707,2.54c-0.813,0.115-2.055-0.908-3.146-1.798c-1.382-1.126-2.811-2.291-4.382-2.291
	c-1.572,0-3,1.165-4.382,2.291c-1.091,0.889-2.335,1.904-3.146,1.798c-0.861-0.103-1.841-1.397-2.707-2.54
	c-1.06-1.399-2.155-2.846-3.643-3.209c-1.518-0.367-3.174,0.418-4.777,1.181c-1.277,0.606-2.727,1.292-3.504,1.001
	c-0.803-0.303-1.443-1.788-2.008-3.099c-0.697-1.618-1.417-3.29-2.783-4.002c-1.375-0.717-3.169-0.35-4.904,0.007
	c-1.389,0.286-2.962,0.609-3.659,0.133c-0.702-0.48-0.97-2.071-1.207-3.475c-0.293-1.741-0.597-3.542-1.759-4.562
	c-1.165-1.021-2.991-1.087-4.758-1.151c-1.42-0.052-3.029-0.109-3.595-0.74c-0.369-0.41-1.001-0.447-1.412-0.076
	c-0.411,0.369-0.445,1.001-0.076,1.412c1.133,1.263,3.105,1.334,5.011,1.403c1.417,0.051,2.882,0.104,3.511,0.656
	c0.627,0.55,0.871,1.994,1.106,3.39c0.317,1.884,0.646,3.832,2.049,4.793c1.396,0.957,3.326,0.56,5.191,0.176
	c1.391-0.286,2.831-0.581,3.577-0.192c0.734,0.383,1.312,1.724,1.871,3.02c0.758,1.759,1.542,3.577,3.14,4.18
	c1.577,0.593,3.352-0.251,5.067-1.066c1.288-0.612,2.619-1.25,3.444-1.044c0.797,0.194,1.674,1.353,2.522,2.474
	c1.16,1.531,2.359,3.115,4.063,3.318c1.664,0.191,3.179-1.038,4.647-2.234c1.11-0.904,2.259-1.841,3.119-1.841
	c0.859,0,2.008,0.937,3.118,1.841c1.362,1.11,2.767,2.256,4.291,2.255c0.117,0,0.236-0.007,0.355-0.021
	c1.705-0.203,2.904-1.787,4.064-3.319c0.849-1.12,1.726-2.278,2.521-2.473c0.827-0.2,2.156,0.432,3.444,1.044
	c1.716,0.814,3.49,1.659,5.068,1.065c1.599-0.602,2.382-2.42,3.14-4.18c0.559-1.296,1.137-2.636,1.87-3.019
	c0.744-0.388,2.185-0.095,3.577,0.192c1.866,0.384,3.795,0.781,5.192-0.176c1.402-0.962,1.73-2.91,2.048-4.794
	c0.235-1.396,0.479-2.839,1.105-3.389c0.63-0.552,2.095-0.604,3.512-0.656c1.906-0.068,3.879-0.14,5.013-1.403
	c0.369-0.411,0.335-1.043-0.076-1.412C117.833,110.862,117.2,110.895,116.83,111.306z"/>
</svg>
