<?xml version="1.0" encoding="utf-8"?>
<!-- Generator: Adobe Illustrator 17.0.0, SVG Export Plug-In . SVG Version: 6.00 Build 0)  -->
<!DOCTYPE svg PUBLIC "-//W3C//DTD SVG 1.1//EN" "http://www.w3.org/Graphics/SVG/1.1/DTD/svg11.dtd">
<svg version="1.1" id="Layer_1" xmlns="http://www.w3.org/2000/svg" xmlns:xlink="http://www.w3.org/1999/xlink" x="0px" y="0px"
	 width="140px" height="138.583px" viewBox="0 0 140 138.583" enable-background="new 0 0 140 138.583" xml:space="preserve">
<g>
	<path d="M70,17.792c-28.397,0-51.5,23.103-51.5,51.5c0,28.397,23.103,51.5,51.5,51.5c28.397,0,51.5-23.103,51.5-51.5
		C121.5,40.895,98.397,17.792,70,17.792z M70,118.792c-27.294,0-49.5-22.206-49.5-49.5c0-27.294,22.206-49.5,49.5-49.5
		c27.294,0,49.5,22.206,49.5,49.5C119.5,96.585,97.294,118.792,70,118.792z"/>
	<path d="M110.38,29.062c0.293,0.293,0.677,0.439,1.061,0.439s0.768-0.146,1.061-0.439c0.586-0.585,0.586-1.536,0-2.121
		l-0.358-0.357c-0.589-0.583-1.536-0.58-2.122,0.009c-0.583,0.588-0.579,1.538,0.009,2.121L110.38,29.062z"/>
	<path d="M119.481,40.976c0.276,0.483,0.782,0.754,1.302,0.754c0.254,0,0.51-0.064,0.745-0.199c0.719-0.412,0.967-1.329,0.555-2.047
		c-0.164-0.286-0.33-0.57-0.498-0.853c-0.424-0.713-1.345-0.946-2.056-0.522c-0.712,0.423-0.946,1.344-0.522,2.056
		C119.167,40.433,119.325,40.704,119.481,40.976z"/>
	<path d="M122.78,47.727c0.237,0.581,0.798,0.932,1.389,0.932c0.189,0,0.382-0.036,0.567-0.112c0.767-0.314,1.134-1.19,0.819-1.957
		c-0.125-0.305-0.252-0.608-0.38-0.91c-0.326-0.761-1.21-1.116-1.969-0.79c-0.762,0.325-1.116,1.207-0.791,1.969
		C122.54,47.146,122.661,47.436,122.78,47.727z"/>
	<path d="M127.72,59.604c-0.82,0.116-1.392,0.875-1.275,1.695c0.044,0.309,0.085,0.617,0.122,0.928
		c0.094,0.76,0.74,1.317,1.487,1.317c0.061,0,0.122-0.004,0.185-0.011c0.822-0.101,1.407-0.849,1.307-1.672
		c-0.041-0.328-0.084-0.656-0.13-0.982C129.299,60.059,128.534,59.49,127.72,59.604z"/>
	<path d="M124.91,53.944c0.084,0.301,0.166,0.604,0.245,0.907c0.176,0.674,0.784,1.122,1.45,1.122c0.125,0,0.253-0.016,0.38-0.049
		c0.802-0.209,1.281-1.028,1.072-1.83c-0.083-0.318-0.169-0.636-0.257-0.953c-0.222-0.798-1.05-1.264-1.847-1.043
		C125.155,52.319,124.688,53.146,124.91,53.944z"/>
	<path d="M115.321,34.718c0.295,0.386,0.741,0.589,1.192,0.589c0.318,0,0.639-0.101,0.91-0.309c0.658-0.503,0.783-1.445,0.28-2.103
		c-0.2-0.262-0.402-0.522-0.606-0.78c-0.514-0.65-1.457-0.761-2.107-0.247c-0.649,0.514-0.76,1.458-0.246,2.107
		C114.938,34.222,115.131,34.469,115.321,34.718z"/>
	<path d="M124.753,89.996c-0.763-0.313-1.643,0.052-1.956,0.819c-0.12,0.291-0.241,0.582-0.364,0.871
		c-0.325,0.763,0.03,1.644,0.792,1.968c0.192,0.082,0.392,0.12,0.587,0.12c0.584,0,1.139-0.342,1.381-0.912
		c0.129-0.303,0.256-0.605,0.38-0.91C125.887,91.186,125.52,90.309,124.753,89.996z"/>
	<path d="M129.997,68.76c-0.01-0.828-0.664-1.481-1.518-1.482c-0.828,0.01-1.492,0.688-1.482,1.518L127,69.291l-0.002,0.442
		c-0.005,0.828,0.662,1.503,1.49,1.508c0.004,0,0.007,0.001,0.01,0.001c0.824,0,1.495-0.667,1.5-1.492L130,69.291L129.997,68.76z"/>
	<path d="M117.446,103.553c-0.658-0.502-1.601-0.377-2.103,0.282c-0.19,0.25-0.383,0.498-0.578,0.745
		c-0.513,0.65-0.4,1.594,0.251,2.106c0.274,0.216,0.602,0.321,0.927,0.321c0.444,0,0.884-0.196,1.18-0.572
		c0.203-0.259,0.405-0.519,0.605-0.78C118.231,104.998,118.104,104.056,117.446,103.553z"/>
	<path d="M121.548,97.016c-0.717-0.413-1.636-0.164-2.047,0.555c-0.157,0.272-0.315,0.545-0.476,0.814
		c-0.423,0.712-0.188,1.633,0.524,2.056c0.24,0.143,0.504,0.21,0.765,0.21c0.512,0,1.011-0.262,1.291-0.734
		c0.168-0.283,0.334-0.567,0.497-0.854C122.515,98.344,122.267,97.428,121.548,97.016z"/>
	<path d="M126.996,82.61c-0.806-0.206-1.621,0.273-1.829,1.075c-0.079,0.305-0.16,0.607-0.244,0.909
		c-0.222,0.799,0.246,1.625,1.044,1.847c0.135,0.037,0.27,0.055,0.402,0.055c0.657,0,1.26-0.435,1.444-1.099
		c0.088-0.318,0.175-0.638,0.258-0.958C128.279,83.637,127.798,82.818,126.996,82.61z"/>
	<path d="M128.244,74.991c-0.819-0.089-1.57,0.485-1.671,1.308c-0.038,0.312-0.078,0.622-0.122,0.934
		c-0.115,0.82,0.457,1.578,1.277,1.693c0.07,0.01,0.141,0.015,0.21,0.015c0.736,0,1.378-0.542,1.483-1.292
		c0.046-0.329,0.09-0.657,0.13-0.986C129.651,75.839,129.066,75.091,128.244,74.991z"/>
	<path d="M110.384,109.517l-0.354,0.353c-0.588,0.584-0.592,1.533-0.009,2.122c0.294,0.295,0.68,0.443,1.065,0.443
		c0.382,0,0.764-0.145,1.057-0.435l0.354-0.353c0.588-0.584,0.592-1.533,0.009-2.122
		C111.922,108.939,110.973,108.934,110.384,109.517z"/>
	<path d="M29.462,109.361c-0.583-0.587-1.533-0.592-2.121-0.009c-0.588,0.584-0.592,1.533-0.009,2.122l0.362,0.362
		c0.292,0.29,0.674,0.435,1.056,0.435c0.386,0,0.772-0.148,1.065-0.443c0.583-0.589,0.58-1.538-0.009-2.122L29.462,109.361z"/>
	<path d="M18.314,41.822c0.234,0.132,0.488,0.195,0.738,0.195c0.522,0,1.03-0.274,1.307-0.761c0.153-0.271,0.309-0.541,0.467-0.81
		c0.42-0.714,0.182-1.633-0.532-2.053c-0.713-0.42-1.633-0.182-2.053,0.532c-0.167,0.282-0.33,0.566-0.492,0.852
		C17.341,40.499,17.594,41.414,18.314,41.822z"/>
	<path d="M15.166,48.81c0.184,0.074,0.374,0.109,0.56,0.109c0.594,0,1.156-0.355,1.392-0.94c0.116-0.288,0.235-0.575,0.356-0.861
		c0.324-0.762-0.032-1.643-0.794-1.967c-0.762-0.322-1.643,0.032-1.967,0.795c-0.128,0.303-0.254,0.606-0.377,0.912
		C14.025,47.626,14.397,48.5,15.166,48.81z"/>
	<path d="M12.961,56.152c0.125,0.032,0.25,0.047,0.374,0.047c0.668,0,1.278-0.45,1.452-1.127c0.077-0.302,0.157-0.604,0.24-0.905
		c0.219-0.799-0.252-1.624-1.051-1.843c-0.797-0.216-1.624,0.251-1.843,1.051c-0.086,0.316-0.17,0.633-0.252,0.951
		C11.676,55.129,12.159,55.946,12.961,56.152z"/>
	<path d="M22.354,35.31c0.27,0.204,0.587,0.302,0.901,0.302c0.455,0,0.904-0.206,1.199-0.598c0.187-0.248,0.376-0.495,0.567-0.74
		c0.51-0.653,0.394-1.596-0.259-2.105c-0.653-0.511-1.595-0.395-2.105,0.259c-0.202,0.259-0.402,0.519-0.6,0.782
		C21.56,33.871,21.692,34.811,22.354,35.31z"/>
	<path d="M20.458,97.5c-0.411-0.719-1.327-0.97-2.047-0.557c-0.719,0.411-0.968,1.328-0.557,2.047
		c0.162,0.283,0.326,0.565,0.493,0.847c0.28,0.473,0.779,0.735,1.292,0.735c0.26,0,0.523-0.067,0.763-0.21
		c0.713-0.422,0.948-1.342,0.526-2.055C20.769,98.04,20.612,97.769,20.458,97.5z"/>
	<path d="M15.082,84.612c-0.083-0.299-0.164-0.598-0.242-0.899c-0.209-0.802-1.026-1.282-1.83-1.073
		c-0.802,0.208-1.282,1.027-1.074,1.829c0.083,0.317,0.168,0.634,0.256,0.948c0.185,0.664,0.788,1.098,1.444,1.098
		c0.133,0,0.269-0.018,0.404-0.055C14.838,86.237,15.305,85.41,15.082,84.612z"/>
	<path d="M17.553,91.651c-0.122-0.285-0.242-0.572-0.359-0.861c-0.313-0.766-1.188-1.137-1.956-0.822
		c-0.767,0.313-1.135,1.188-0.823,1.955c0.124,0.303,0.25,0.605,0.378,0.906c0.244,0.569,0.798,0.911,1.38,0.911
		c0.197,0,0.396-0.038,0.588-0.12C17.524,93.294,17.878,92.413,17.553,91.651z"/>
	<path d="M11.743,63.721c0.061,0.008,0.121,0.011,0.18,0.011c0.749,0,1.396-0.56,1.487-1.322c0.037-0.31,0.077-0.618,0.12-0.928
		c0.112-0.82-0.462-1.577-1.283-1.689c-0.821-0.104-1.578,0.462-1.69,1.283c-0.044,0.325-0.086,0.651-0.125,0.979
		C10.333,62.876,10.92,63.623,11.743,63.721z"/>
	<path d="M24.574,103.726c-0.501-0.66-1.443-0.788-2.102-0.287c-0.66,0.501-0.789,1.442-0.287,2.102
		c0.198,0.261,0.398,0.521,0.601,0.777c0.296,0.377,0.736,0.573,1.18,0.573c0.324,0,0.651-0.104,0.926-0.32
		c0.651-0.513,0.765-1.455,0.252-2.106C24.952,104.219,24.762,103.973,24.574,103.726z"/>
	<path d="M12.283,79.003c0.82-0.115,1.392-0.874,1.276-1.694c-0.043-0.308-0.084-0.615-0.123-0.925
		c-0.103-0.822-0.853-1.405-1.674-1.302c-0.822,0.103-1.405,0.853-1.302,1.675c0.041,0.323,0.083,0.646,0.129,0.97
		c0.105,0.75,0.748,1.291,1.483,1.291C12.142,79.018,12.212,79.013,12.283,79.003z"/>
	<path d="M11.518,71.384c0.829-0.008,1.494-0.687,1.485-1.515L13,69.291l0.001-0.359c0.003-0.828-0.666-1.503-1.494-1.506
		c-0.826,0.012-1.502,0.666-1.506,1.494L10,69.291l0.003,0.608c0.008,0.823,0.678,1.485,1.5,1.485
		C11.508,71.384,11.513,71.384,11.518,71.384z"/>
	<path d="M28.283,29.781c0.389,0,0.778-0.15,1.072-0.45l0.341-0.344c0.586-0.585,0.586-1.536,0-2.121
		c-0.586-0.586-1.535-0.586-2.121,0l-0.363,0.366c-0.58,0.592-0.57,1.542,0.022,2.122C27.525,29.638,27.904,29.781,28.283,29.781z"
		/>
	<path d="M94.732,43.995c-16.988,4.722-23.591-6.39-23.863-6.863c-0.032-0.056-0.075-0.1-0.117-0.146
		c-0.183-0.216-0.447-0.361-0.753-0.361c-0.165,0-0.314,0.05-0.451,0.121c-0.197,0.075-0.371,0.199-0.477,0.386
		c-0.066,0.116-6.811,11.597-23.863,6.863c-0.301-0.085-0.625-0.022-0.873,0.167c-0.249,0.189-0.395,0.483-0.395,0.796v23.333
		c0,10.758,3.84,18.992,11.414,24.476c9.634,6.978,13.987,9.015,14.167,9.099c0.136,0.063,0.278,0.092,0.418,0.092
		c0.01,0,0.021,0,0.03,0c0.15,0,0.303-0.024,0.448-0.092c0.181-0.084,4.531-2.121,14.168-9.099C92.16,87.283,96,79.048,96,68.292
		V44.958c0-0.313-0.146-0.607-0.395-0.796C95.354,43.973,95.03,43.911,94.732,43.995z M94,68.292
		c0,10.079-3.562,17.769-10.587,22.856c-7.852,5.686-12.183,8.059-13.442,8.707c-1.259-0.648-5.591-3.021-13.443-8.707
		c-7.024-5.087-10.586-12.776-10.586-22.856V46.25c12.68,3.05,19.951-2.438,23.059-5.8v17.757c0,0.553,0.448,1,1,1s1-0.447,1-1
		V40.513c3.14,3.367,10.399,8.766,23,5.737V68.292z"/>
	<path d="M86.25,51.068c0,0.552,0.447,1,1,1h2.719v16.806h-8.387c-0.553,0-1,0.447-1,1s0.447,1,1,1h8.324
		c-0.257,3.354-1.613,11.646-8.699,16.479c-3.531,2.237-9.511,5.788-11.236,6.81c-1.726-1.021-7.703-4.569-11.208-6.791
		c-7.112-4.849-8.472-13.144-8.729-16.498h8.385c0.552,0,1-0.447,1-1s-0.448-1-1-1h-8.447V52.068h2.719c0.552,0,1-0.448,1-1
		s-0.448-1-1-1h-3.719c-0.552,0-1,0.448-1,1v18.433c0,1.323,0.271,13.117,9.693,19.542c4.163,2.639,11.694,7.081,11.77,7.126
		c0.154,0.091,0.388,0.139,0.566,0.139s0.354-0.048,0.508-0.139c0.076-0.045,7.605-4.487,11.798-7.145
		c8.762-5.976,9.585-16.638,9.656-19.117c0-0.012,0.007-0.021,0.007-0.033c0-0.009-0.005-0.016-0.005-0.025
		c0.004-0.15,0.005-0.269,0.005-0.348V51.068c0-0.552-0.447-1-1-1H87.25C86.697,50.068,86.25,50.516,86.25,51.068z"/>
	<path d="M69.998,79.958c5.331,0,9.668-4.336,9.668-9.666s-4.337-9.667-9.668-9.667c-5.33,0-9.666,4.337-9.666,9.667
		S64.668,79.958,69.998,79.958z M69.998,62.625c4.228,0,7.668,3.439,7.668,7.667s-3.44,7.666-7.668,7.666
		c-4.227,0-7.666-3.438-7.666-7.666S65.771,62.625,69.998,62.625z"/>
	<path d="M67.857,72.981c0.195,0.195,0.451,0.293,0.707,0.293s0.512-0.098,0.707-0.293l5.068-5.068c0.391-0.391,0.391-1.023,0-1.414
		s-1.023-0.391-1.414,0l-4.361,4.361l-2.275-2.275c-0.391-0.391-1.023-0.391-1.414,0s-0.391,1.023,0,1.414L67.857,72.981z"/>
</g>
</svg>
