<?xml version="1.0" encoding="utf-8"?>
<!-- Generator: Adobe Illustrator 17.0.0, SVG Export Plug-In . SVG Version: 6.00 Build 0)  -->
<!DOCTYPE svg PUBLIC "-//W3C//DTD SVG 1.1//EN" "http://www.w3.org/Graphics/SVG/1.1/DTD/svg11.dtd">
<svg version="1.1" class='svg' id="Layer_1" xmlns="http://www.w3.org/2000/svg" xmlns:xlink="http://www.w3.org/1999/xlink" x="0px" y="0px"
	 width="140px" height="138.583px" viewBox="0 0 140 138.583" enable-background="new 0 0 140 138.583" xml:space="preserve">
<g>
	<path fill="#231F20" d="M70.001,17.792c-28.397,0-51.5,23.103-51.5,51.5c0,28.397,23.102,51.5,51.5,51.5
		c28.397,0,51.5-23.103,51.5-51.5C121.501,40.895,98.398,17.792,70.001,17.792z M70.001,118.792c-27.294,0-49.5-22.205-49.5-49.5
		c0-27.294,22.206-49.5,49.5-49.5c27.294,0,49.5,22.206,49.5,49.5C119.501,96.586,97.295,118.792,70.001,118.792z"/>
	<path fill="#231F20" d="M110.38,29.062c0.293,0.293,0.677,0.439,1.06,0.439s0.768-0.146,1.061-0.439
		c0.586-0.585,0.586-1.536,0-2.121l-0.361-0.359c-0.589-0.582-1.538-0.576-2.121,0.013c-0.582,0.589-0.576,1.54,0.014,2.122
		L110.38,29.062z"/>
	<path fill="#231F20" d="M115.32,34.718c0.295,0.387,0.742,0.59,1.193,0.59c0.317,0,0.638-0.1,0.909-0.308
		c0.658-0.503,0.785-1.444,0.282-2.103c-0.2-0.263-0.403-0.523-0.607-0.782c-0.513-0.65-1.458-0.76-2.108-0.247
		c-0.649,0.514-0.76,1.457-0.246,2.107C114.938,34.222,115.13,34.469,115.32,34.718z"/>
	<path fill="#231F20" d="M124.91,53.945c0.084,0.301,0.166,0.604,0.245,0.907c0.176,0.674,0.784,1.122,1.45,1.122
		c0.125,0,0.253-0.016,0.38-0.049c0.802-0.209,1.281-1.028,1.072-1.83c-0.083-0.318-0.169-0.636-0.257-0.953
		c-0.222-0.798-1.052-1.262-1.847-1.043C125.155,52.32,124.688,53.147,124.91,53.945z"/>
	<path fill="#231F20" d="M127.72,59.605c-0.82,0.116-1.392,0.875-1.275,1.696c0.044,0.308,0.085,0.617,0.122,0.926
		c0.094,0.76,0.74,1.317,1.487,1.317c0.061,0,0.122-0.003,0.185-0.011c0.822-0.101,1.407-0.849,1.307-1.671
		c-0.041-0.328-0.084-0.655-0.13-0.982C129.298,60.059,128.533,59.492,127.72,59.605z"/>
	<path fill="#231F20" d="M122.78,47.728c0.237,0.581,0.798,0.932,1.389,0.932c0.189,0,0.382-0.036,0.567-0.112
		c0.767-0.315,1.134-1.19,0.819-1.957c-0.125-0.305-0.252-0.608-0.38-0.91c-0.326-0.761-1.209-1.115-1.969-0.79
		c-0.762,0.325-1.116,1.206-0.791,1.969C122.54,47.147,122.661,47.437,122.78,47.728z"/>
	<path fill="#231F20" d="M119.48,40.977c0.276,0.483,0.782,0.754,1.302,0.754c0.254,0,0.51-0.064,0.745-0.199
		c0.719-0.412,0.967-1.329,0.555-2.047c-0.164-0.286-0.33-0.57-0.498-0.853c-0.424-0.713-1.346-0.946-2.056-0.522
		c-0.712,0.423-0.946,1.344-0.522,2.056C119.166,40.434,119.324,40.704,119.48,40.977z"/>
	<path fill="#231F20" d="M129.998,68.761c-0.01-0.829-0.719-1.506-1.518-1.483c-0.828,0.01-1.492,0.689-1.482,1.517L127,69.291
		l-0.002,0.442c-0.005,0.829,0.662,1.504,1.49,1.51c0.003,0,0.007,0,0.01,0c0.824,0,1.494-0.665,1.5-1.49L130,69.3L129.998,68.761z"
		/>
	<path fill="#231F20" d="M124.753,89.996c-0.772-0.315-1.643,0.054-1.957,0.82c-0.119,0.292-0.24,0.582-0.363,0.872
		c-0.325,0.762,0.03,1.643,0.792,1.968c0.192,0.081,0.392,0.12,0.587,0.12c0.584,0,1.139-0.342,1.381-0.913
		c0.129-0.302,0.256-0.605,0.381-0.911C125.887,91.185,125.52,90.309,124.753,89.996z"/>
	<path fill="#231F20" d="M121.549,97.016c-0.718-0.411-1.636-0.164-2.047,0.555c-0.157,0.273-0.315,0.544-0.476,0.815
		c-0.423,0.712-0.187,1.633,0.525,2.055c0.24,0.142,0.503,0.21,0.764,0.21c0.512,0,1.012-0.263,1.291-0.735
		c0.168-0.283,0.334-0.567,0.497-0.852C122.516,98.345,122.268,97.428,121.549,97.016z"/>
	<path fill="#231F20" d="M117.446,103.552c-0.658-0.504-1.601-0.377-2.103,0.282c-0.19,0.249-0.382,0.497-0.576,0.742
		c-0.514,0.649-0.403,1.593,0.246,2.107c0.275,0.218,0.603,0.323,0.93,0.323c0.443,0,0.882-0.195,1.178-0.57
		c0.204-0.258,0.407-0.52,0.607-0.782C118.231,104.996,118.104,104.055,117.446,103.552z"/>
	<path fill="#231F20" d="M126.996,82.61c-0.799-0.212-1.62,0.273-1.829,1.075c-0.079,0.304-0.16,0.607-0.244,0.909
		c-0.222,0.798,0.246,1.625,1.045,1.846c0.134,0.037,0.269,0.055,0.401,0.055c0.657,0,1.261-0.436,1.444-1.1
		c0.088-0.318,0.175-0.637,0.258-0.957C128.279,83.637,127.798,82.818,126.996,82.61z"/>
	<path fill="#231F20" d="M128.244,74.992c-0.821-0.101-1.57,0.485-1.671,1.307c-0.038,0.311-0.078,0.622-0.122,0.931
		c-0.115,0.82,0.456,1.579,1.276,1.695c0.07,0.01,0.142,0.015,0.211,0.015c0.735,0,1.378-0.541,1.483-1.291
		c0.046-0.328,0.09-0.657,0.13-0.987C129.651,75.84,129.066,75.092,128.244,74.992z"/>
	<path fill="#231F20" d="M110.38,109.522l-0.348,0.346c-0.59,0.582-0.596,1.532-0.014,2.122c0.294,0.297,0.681,0.446,1.067,0.446
		c0.381,0,0.762-0.144,1.054-0.433l0.361-0.359c0.586-0.585,0.586-1.536,0-2.121C111.915,108.936,110.966,108.936,110.38,109.522z"
		/>
	<path fill="#231F20" d="M29.465,109.363c-0.584-0.589-1.533-0.595-2.121-0.013c-0.59,0.582-0.596,1.532-0.014,2.122l0.361,0.363
		c0.293,0.292,0.676,0.437,1.059,0.437c0.385,0,0.769-0.148,1.063-0.441c0.585-0.587,0.583-1.537-0.004-2.122L29.465,109.363z"/>
	<path fill="#231F20" d="M11.518,71.384c0.828-0.008,1.493-0.687,1.485-1.515L13,69.291l0.001-0.353
		c0.007-0.829-0.659-1.505-1.488-1.512c-0.791,0.002-1.506,0.66-1.512,1.488L10,69.291l0.003,0.608
		c0.008,0.824,0.678,1.485,1.5,1.485C11.508,71.384,11.513,71.384,11.518,71.384z"/>
	<path fill="#231F20" d="M12.281,79.004c0.82-0.115,1.393-0.872,1.278-1.693c-0.043-0.308-0.084-0.618-0.123-0.928
		c-0.104-0.821-0.841-1.396-1.677-1.3c-0.821,0.104-1.403,0.854-1.3,1.676c0.041,0.323,0.084,0.646,0.129,0.967
		c0.104,0.75,0.747,1.292,1.483,1.292C12.142,79.019,12.211,79.014,12.281,79.004z"/>
	<path fill="#231F20" d="M15.082,84.614c-0.083-0.3-0.164-0.602-0.243-0.904c-0.211-0.802-1.028-1.28-1.832-1.071
		c-0.801,0.21-1.28,1.03-1.07,1.831c0.083,0.316,0.168,0.631,0.255,0.944c0.184,0.664,0.787,1.1,1.444,1.1
		c0.133,0,0.268-0.018,0.401-0.055C14.836,86.238,15.304,85.412,15.082,84.614z"/>
	<path fill="#231F20" d="M24.573,103.725c-0.502-0.66-1.445-0.788-2.101-0.287c-0.66,0.501-0.788,1.442-0.287,2.102
		c0.198,0.261,0.398,0.52,0.601,0.777c0.296,0.377,0.736,0.573,1.181,0.573c0.324,0,0.651-0.104,0.926-0.321
		c0.651-0.512,0.765-1.455,0.253-2.106C24.952,104.22,24.762,103.973,24.573,103.725z"/>
	<path fill="#231F20" d="M20.458,97.501c-0.41-0.72-1.326-0.969-2.046-0.56c-0.72,0.41-0.971,1.326-0.56,2.046
		c0.162,0.285,0.327,0.569,0.495,0.851c0.28,0.472,0.778,0.734,1.29,0.734c0.261,0,0.525-0.068,0.766-0.21
		c0.712-0.423,0.946-1.344,0.522-2.056C20.768,98.038,20.612,97.77,20.458,97.501z"/>
	<path fill="#231F20" d="M17.553,91.652c-0.122-0.286-0.241-0.573-0.358-0.86c-0.313-0.767-1.184-1.139-1.955-0.825
		c-0.767,0.312-1.136,1.187-0.824,1.955c0.123,0.303,0.25,0.605,0.378,0.906c0.243,0.57,0.798,0.913,1.381,0.913
		c0.195,0,0.396-0.039,0.587-0.121C17.523,93.295,17.878,92.415,17.553,91.652z"/>
	<path fill="#231F20" d="M11.744,63.722c0.061,0.007,0.12,0.011,0.18,0.011c0.749,0,1.396-0.559,1.487-1.322
		c0.037-0.311,0.077-0.62,0.119-0.929c0.111-0.821-0.464-1.577-1.285-1.688c-0.816-0.111-1.576,0.464-1.688,1.285
		c-0.044,0.325-0.086,0.65-0.125,0.976C10.334,62.877,10.921,63.624,11.744,63.722z"/>
	<path fill="#231F20" d="M22.354,35.309c0.271,0.204,0.587,0.302,0.901,0.302c0.455,0,0.904-0.206,1.199-0.598
		c0.188-0.248,0.377-0.496,0.568-0.741c0.509-0.653,0.392-1.596-0.262-2.105c-0.652-0.509-1.596-0.393-2.105,0.261
		c-0.201,0.258-0.4,0.518-0.598,0.78C21.56,33.87,21.691,34.811,22.354,35.309z"/>
	<path fill="#231F20" d="M18.316,41.823c0.232,0.131,0.486,0.194,0.736,0.194c0.522,0,1.031-0.274,1.307-0.763
		c0.153-0.271,0.309-0.54,0.467-0.808c0.42-0.714,0.182-1.633-0.532-2.053c-0.714-0.419-1.632-0.182-2.054,0.532
		c-0.166,0.283-0.331,0.567-0.492,0.854C17.34,40.501,17.595,41.416,18.316,41.823z"/>
	<path fill="#231F20" d="M12.96,56.151c0.126,0.033,0.252,0.048,0.376,0.048c0.668,0,1.276-0.449,1.451-1.125
		c0.079-0.304,0.159-0.606,0.241-0.909c0.218-0.799-0.254-1.624-1.054-1.841c-0.798-0.219-1.623,0.254-1.841,1.053
		c-0.086,0.315-0.17,0.63-0.251,0.947C11.676,55.127,12.158,55.944,12.96,56.151z"/>
	<path fill="#231F20" d="M15.164,48.81c0.184,0.074,0.375,0.11,0.561,0.11c0.594,0,1.155-0.354,1.392-0.938
		c0.117-0.29,0.236-0.579,0.358-0.867c0.321-0.764-0.037-1.643-0.801-1.965c-0.765-0.323-1.643,0.037-1.965,0.8
		c-0.126,0.301-0.251,0.603-0.374,0.907C14.025,47.625,14.397,48.499,15.164,48.81z"/>
	<path fill="#231F20" d="M28.283,29.781c0.39,0,0.78-0.151,1.074-0.453l0.336-0.339c0.587-0.584,0.589-1.535,0.004-2.122
		c-0.584-0.587-1.533-0.589-2.121-0.004l-0.367,0.371c-0.578,0.593-0.566,1.542,0.026,2.121
		C27.527,29.639,27.905,29.781,28.283,29.781z"/>
	<path fill="#231F20" d="M89.553,63.868h-6.056V48.297c0-0.169-0.042-0.329-0.116-0.468c-0.873-6.064-6.559-10.76-13.42-10.76
		h-0.266c-6.861,0-12.547,4.696-13.42,10.76c-0.074,0.14-0.116,0.299-0.116,0.468v15.571h-5.71c-2.114,0-3.835,1.72-3.835,3.835
		V97.68c0,2.114,1.721,3.834,3.835,3.834h19.815c0.553,0,1-0.448,1-1c0-0.552-0.447-1-1-1H50.449c-1.012,0-1.835-0.823-1.835-1.834
		V67.703c0-1.012,0.823-1.835,1.835-1.835h39.103c1.012,0,1.835,0.823,1.835,1.835V97.68c0,1.012-0.823,1.834-1.835,1.834H75.598
		c-0.553,0-1,0.448-1,1c0,0.552,0.447,1,1,1h13.955c2.114,0,3.835-1.72,3.835-3.834V67.703
		C93.388,65.588,91.667,63.868,89.553,63.868z M58.159,49.455c0-5.727,5.175-10.387,11.536-10.387h0.266
		c6.361,0,11.536,4.66,11.536,10.387v14.413h-3.206V49.601c0-0.141-0.029-0.275-0.082-0.397c-0.572-3.742-4.078-6.629-8.303-6.629
		H69.75c-4.225,0-7.73,2.887-8.303,6.629c-0.053,0.122-0.082,0.256-0.082,0.397v4.193c0,0.552,0.447,1,1,1c0.553,0,1-0.448,1-1
		v-3.51c0-3.147,2.864-5.708,6.385-5.708h0.156c3.521,0,6.385,2.561,6.385,5.708v13.585H63.365v-6.075c0-0.552-0.447-1-1-1
		c-0.553,0-1,0.448-1,1v6.075h-3.206V49.455z"/>
	<path fill="#231F20" d="M57.159,93.499H52.82c-0.553,0-1,0.448-1,1c0,0.553,0.447,1,1,1h4.339c0.553,0,1-0.447,1-1
		C58.159,93.947,57.712,93.499,57.159,93.499z"/>
	<path fill="#231F20" d="M57.159,89.53H52.82c-0.553,0-1,0.448-1,1c0,0.553,0.447,1,1,1h4.339c0.553,0,1-0.447,1-1
		C58.159,89.978,57.712,89.53,57.159,89.53z"/>
	<path fill="#231F20" d="M57.159,85.561H52.82c-0.553,0-1,0.448-1,1c0,0.553,0.447,1,1,1h4.339c0.553,0,1-0.447,1-1
		C58.159,86.009,57.712,85.561,57.159,85.561z"/>
	<path fill="#231F20" d="M57.159,81.592H52.82c-0.553,0-1,0.448-1,1c0,0.553,0.447,1,1,1h4.339c0.553,0,1-0.447,1-1
		C58.159,82.041,57.712,81.592,57.159,81.592z"/>
	<path fill="#231F20" d="M57.159,77.624H52.82c-0.553,0-1,0.448-1,1c0,0.553,0.447,1,1,1h4.339c0.553,0,1-0.447,1-1
		C58.159,78.072,57.712,77.624,57.159,77.624z"/>
	<path fill="#231F20" d="M57.159,73.655H52.82c-0.553,0-1,0.448-1,1c0,0.553,0.447,1,1,1h4.339c0.553,0,1-0.447,1-1
		C58.159,74.103,57.712,73.655,57.159,73.655z"/>
	<path fill="#231F20" d="M57.159,69.687H52.82c-0.553,0-1,0.448-1,1c0,0.552,0.447,1,1,1h4.339c0.553,0,1-0.448,1-1
		C58.159,70.134,57.712,69.687,57.159,69.687z"/>
	<path fill="#231F20" d="M82.497,95.499h4.339c0.553,0,1-0.447,1-1c0-0.552-0.447-1-1-1h-4.339c-0.553,0-1,0.448-1,1
		C81.497,95.051,81.944,95.499,82.497,95.499z"/>
	<path fill="#231F20" d="M82.497,91.53h4.339c0.553,0,1-0.447,1-1c0-0.552-0.447-1-1-1h-4.339c-0.553,0-1,0.448-1,1
		C81.497,91.083,81.944,91.53,82.497,91.53z"/>
	<path fill="#231F20" d="M82.497,87.561h4.339c0.553,0,1-0.447,1-1c0-0.552-0.447-1-1-1h-4.339c-0.553,0-1,0.448-1,1
		C81.497,87.114,81.944,87.561,82.497,87.561z"/>
	<path fill="#231F20" d="M82.497,83.592h4.339c0.553,0,1-0.447,1-1c0-0.552-0.447-1-1-1h-4.339c-0.553,0-1,0.448-1,1
		C81.497,83.145,81.944,83.592,82.497,83.592z"/>
	<path fill="#231F20" d="M82.497,79.624h4.339c0.553,0,1-0.447,1-1c0-0.552-0.447-1-1-1h-4.339c-0.553,0-1,0.448-1,1
		C81.497,79.176,81.944,79.624,82.497,79.624z"/>
	<path fill="#231F20" d="M82.497,75.655h4.339c0.553,0,1-0.447,1-1c0-0.552-0.447-1-1-1h-4.339c-0.553,0-1,0.448-1,1
		C81.497,75.208,81.944,75.655,82.497,75.655z"/>
	<path fill="#231F20" d="M82.497,71.687h4.339c0.553,0,1-0.448,1-1c0-0.552-0.447-1-1-1h-4.339c-0.553,0-1,0.448-1,1
		C81.497,71.239,81.944,71.687,82.497,71.687z"/>
	<path fill="#231F20" d="M64.507,91.525c0.188,0.259,0.489,0.412,0.81,0.412h9.371c0.32,0,0.621-0.153,0.81-0.412
		c0.188-0.259,0.24-0.593,0.142-0.897l-2.474-7.604c1.359-0.998,2.175-2.571,2.175-4.279c0-2.944-2.395-5.339-5.338-5.339
		c-2.944,0-5.34,2.395-5.34,5.339c0,1.709,0.816,3.283,2.176,4.281l-2.473,7.603C64.267,90.933,64.319,91.266,64.507,91.525z
		 M68.982,82.9c0.151-0.466-0.058-0.975-0.494-1.199c-1.127-0.578-1.826-1.711-1.826-2.956c0-1.841,1.498-3.339,3.34-3.339
		c1.841,0,3.338,1.498,3.338,3.339c0,1.244-0.699,2.377-1.824,2.956c-0.437,0.224-0.646,0.732-0.494,1.198l2.289,7.039h-6.617
		L68.982,82.9z"/>
</g>
</svg>
