<?xml version="1.0" encoding="utf-8"?>
<!-- Generator: Adobe Illustrator 17.0.0, SVG Export Plug-In . SVG Version: 6.00 Build 0)  -->
<!DOCTYPE svg PUBLIC "-//W3C//DTD SVG 1.1//EN" "http://www.w3.org/Graphics/SVG/1.1/DTD/svg11.dtd">
<svg version="1.1" class='svg' id="Layer_1" xmlns="http://www.w3.org/2000/svg" xmlns:xlink="http://www.w3.org/1999/xlink" x="0px" y="0px"
	 width="140px" height="138.583px" viewBox="0 0 140 138.583" enable-background="new 0 0 140 138.583" xml:space="preserve">
<g>
	<g>
		<path d="M70,17.792c-28.397,0-51.5,23.103-51.5,51.5s23.103,51.5,51.5,51.5c28.397,0,51.5-23.103,51.5-51.5
			S98.397,17.792,70,17.792z M70,118.792c-27.294,0-49.5-22.206-49.5-49.5s22.206-49.5,49.5-49.5c27.294,0,49.5,22.206,49.5,49.5
			S97.294,118.792,70,118.792z"/>
	</g>
	<g>
		<path d="M73.5,65.726c0-1.93-1.57-3.5-3.5-3.5c-1.93,0-3.5,1.57-3.5,3.5c0,1.93,1.57,3.5,3.5,3.5
			C71.93,69.226,73.5,67.656,73.5,65.726z M68.5,65.726c0-0.827,0.673-1.5,1.5-1.5c0.827,0,1.5,0.673,1.5,1.5
			c0,0.827-0.673,1.5-1.5,1.5C69.173,67.226,68.5,66.553,68.5,65.726z"/>
	</g>
	<g>
		<path d="M101.907,62.005c-0.315-0.451-0.595-0.846-0.623-0.877c-0.028-0.031-0.4-0.394-0.756-0.737
			c-0.356-0.344-0.286-0.894,0.155-1.222c0,0,2.567-1.912,2.567-3.706c0-2.284-2.447-3.76-6.233-3.76
			c-1.284,0-2.714,1.297-2.714,1.297c-0.407,0.369-1.065,0.359-1.46-0.022l-3.565-3.439c-0.396-0.382-1.103-0.93-1.571-1.219
			l-4.417-1.813c-0.536-0.124-1.424-0.225-1.974-0.225h-1.633c-0.55,0-1.411,0.184-1.913,0.408c0,0-0.087,0.039-0.087,0.592
			c0,0.553,0.087,0.592,0.087,0.592c0.502,0.225,1.363,0.408,1.913,0.408h1.633c0.55,0,1.438,0.105,1.973,0.232l3.018,1.242
			c0.47,0.285,1.179,0.831,1.575,1.213l4.88,4.708c0.396,0.382,1.037,0.854,1.426,1.049c0,0,0,0,0.366-0.149
			c0.367-0.149,0.61-0.502,0.622-0.897c0.037-1.282,0.341-1.978,1.843-1.978c2.104,0,4.233,0.604,4.233,1.76
			c0,1.107-1.67,2.534-3.437,2.935c-0.358,0.082-0.643,0.353-0.742,0.706c-0.099,0.354-0.099,0.354-0.099,0.354
			c0.202,0.349,0.691,0.946,1.086,1.329l1.007,0.973c0.396,0.382,0.739,0.717,0.763,0.745s0.075,0.082,0.111,0.12
			c0,0,0,0,0.036,0.031c2.494,2.136,3.761,7.677,3.761,7.677c0.123,0.536,0.223,1.425,0.223,1.975v6.962
			c0,0.55-0.086,1.442-0.192,1.981c0,0-0.508,2.602-1.779,3.948c-0.175,0.186-0.175,0.186-0.175,0.186
			c-0.054,0.276-0.098,0.951-0.098,1.501v1.475c0,0.55-0.19,1.408-0.423,1.906l-1.456,1.386c-0.505,0.218-1.368,0.396-1.918,0.396
			h-2.585c-0.55,0-1.413-0.179-1.918-0.397l-1.45-1.384c-0.232-0.499-0.422-1.107-0.422-1.353s-0.101-0.671-0.224-0.946
			c-0.123-0.275-1.226-0.5-1.776-0.5H50.455c-0.55,0-1.225,0.101-1.5,0.224c-0.275,0.123-0.5,0.977-0.5,1.223
			s-0.19,0.854-0.422,1.353l-1.45,1.384c-0.505,0.218-1.368,0.397-1.918,0.397h-2.592c-0.55,0-1.413-0.179-1.918-0.397l-1.45-1.384
			c-0.232-0.499-0.422-1.356-0.422-1.906v-1.475c0-0.55-0.044-1.225-0.098-1.501c0,0,0,0-0.175-0.186
			c-1.271-1.346-1.779-3.948-1.779-3.948c-0.105-0.54-0.192-1.431-0.192-1.981v-6.962c0-0.55,0.1-1.439,0.223-1.975
			c0,0,1.268-5.542,3.762-7.677c0.039-0.033,0.039-0.033,0.039-0.033c0.038-0.041,0.085-0.093,0.103-0.117
			c0.019-0.023,0.364-0.361,0.76-0.743l1.012-0.975c0.396-0.382,0.886-0.98,1.088-1.33c0,0,0,0-0.099-0.354
			c-0.099-0.354-0.384-0.626-0.743-0.707c-1.769-0.399-3.442-1.826-3.442-2.935c0-1.155,2.132-1.76,4.239-1.76
			c1.501,0,1.806,0.695,1.843,1.979c0.012,0.396,0.255,0.747,0.622,0.896c0.365,0.149,0.365,0.149,0.365,0.149
			c0.389-0.195,1.03-0.667,1.426-1.049l4.889-4.717c0.396-0.382,1.105-0.927,1.575-1.212l3.008-1.234
			c0.535-0.128,1.423-0.232,1.973-0.232h13.499c0.55,0,1.411-0.184,1.913-0.408c0,0,0.087-0.039,0.087-0.592
			c0-0.553-0.087-0.592-0.087-0.592c-0.502-0.225-1.363-0.408-1.913-0.408H58.684c-0.55,0-1.438,0.101-1.974,0.225l-4.407,1.805
			c-0.468,0.288-1.176,0.836-1.572,1.218l-3.575,3.448C46.76,53.36,46.103,53.37,45.696,53c0,0-1.43-1.298-2.714-1.298
			c-3.848,0-6.239,1.441-6.239,3.76c0,1.795,2.569,3.706,2.569,3.706c0.441,0.328,0.509,0.879,0.151,1.225
			c-0.359,0.345-0.674,0.651-0.701,0.68c-0.027,0.028-0.363,0.49-0.678,0.942l-3.8,8.323c-0.135,0.533-0.246,1.419-0.246,1.969
			v6.962c0,0.55,0.081,1.443,0.181,1.984l1.554,4.157c0.28,0.473,0.509,1.311,0.509,1.861v1.091c0,0.55,0.188,1.409,0.417,1.909
			l3.458,3.377c0.504,0.221,1.366,0.402,1.916,0.402h2.592c0.55,0,1.413-0.179,1.918-0.397l3.441-3.281
			c0.237-0.496,0.88-0.903,1.43-0.903h37.092c0.55,0,1.194,0.406,1.43,0.903l3.441,3.281c0.505,0.218,1.368,0.397,1.918,0.397h2.585
			c0.55,0,1.412-0.181,1.916-0.401l3.464-3.377c0.229-0.5,0.417-1.359,0.417-1.909V87.27c0-0.55,0.229-1.387,0.509-1.861
			l1.554-4.157c0.099-0.541,0.181-1.434,0.181-1.984v-6.962c0-0.55-0.111-1.436-0.246-1.969L101.907,62.005z"/>
	</g>
	<g>
		<path d="M94.739,59.706c-0.502-0.225-1.363-0.408-1.913-0.408H47.174c-0.55,0-1.411,0.184-1.913,0.408
			c0,0-0.087,0.039-0.087,0.592c0,0.553,0.087,0.592,0.087,0.592c0.502,0.225,1.363,0.408,1.913,0.408h45.653
			c0.55,0,1.411-0.184,1.913-0.408c0,0,0.087-0.039,0.087-0.592C94.827,59.745,94.739,59.706,94.739,59.706z"/>
	</g>
	<g>
		<path d="M42.24,76.157c0.526,0.013,1.15,0.028,1.807,0.028c2.053,0,6.326,0,6.326-2.549c0-2.849-7.027-6.588-9.066-6.588
			c-2.44,0-4.425,2.04-4.425,4.547c0,2.506,1.985,4.545,4.425,4.545C41.552,76.14,41.871,76.148,42.24,76.157z M38.882,71.595
			c0-1.404,1.088-2.547,2.425-2.547c1.715,0,6.326,3.862,6.326,3.862c0.422,0.353,0.498,0.927,0.169,1.275c0,0,0,0-3.755,0
			c-0.639,0-1.246-0.015-1.758-0.027c-0.389-0.01-0.724-0.018-0.982-0.018C39.97,74.14,38.882,72.999,38.882,71.595z"/>
	</g>
	<g>
		<path d="M38.774,82.742c0.212,0.327,0.611,0.864,0.889,1.192c0,0,0,0,0.33,0.252c0.667,0.528,1.545,0.959,2.683,1.315
			c0.097,0.03,0.197,0.046,0.299,0.046l0,0c0.001,0,0.452,0,1.002-0.001l6.146-0.006c0.55-0.001,1.006-0.001,1.013-0.001
			c0,0,0,0,0.007,0c0.552,0,1-0.447,1-1c0-0.314,0-0.314,0-0.314c-0.204-0.255-0.667-0.802-1.029-1.217l-2.981-3.42
			c-0.361-0.415-0.762-0.831-0.889-0.925c-0.128-0.094-0.972-0.171-1.521-0.171h-4.597c-0.55,0-1.266,0.062-1.592,0.139
			c0,0,0,0-0.189,0.238c-0.499,0.625-1.201,2.079-0.679,3.545C38.774,82.742,38.774,82.742,38.774,82.742z M40.389,81.294
			c0.164-0.441,0.748-0.802,1.298-0.802h3.579c0.55,0,1.296,0.339,1.657,0.754l1.343,1.54c0.361,0.415,0.207,0.754-0.343,0.755
			l-3.795,0.005c-0.55,0.001-1.418-0.165-1.929-0.369c0,0-0.527-0.21-0.98-0.569c-0.184-0.142-0.327-0.284-0.457-0.464
			c-0.093-0.122-0.163-0.247-0.208-0.381C40.389,81.294,40.389,81.294,40.389,81.294z"/>
	</g>
	<g>
		<path d="M102.99,71.595c0-2.507-1.985-4.547-4.425-4.547c-2.039,0-9.066,3.739-9.066,6.588c0,2.549,4.272,2.549,6.326,2.549
			c0.657,0,1.28-0.016,1.807-0.028c0.369-0.009,0.688-0.017,0.934-0.017C101.005,76.14,102.99,74.101,102.99,71.595z M98.565,74.14
			c-0.258,0-0.594,0.008-0.982,0.018c-0.512,0.013-1.119,0.027-1.758,0.027c-3.685,0-4.28-0.548-4.324-0.548
			c-0.001,0-0.001,0-0.001,0c0,0.001,0.341-0.292,0.758-0.65c0,0,4.592-3.939,6.307-3.939c1.337,0,2.425,1.143,2.425,2.547
			C100.99,72.999,99.902,74.14,98.565,74.14z"/>
	</g>
	<g>
		<path d="M88.001,85.31c0.411,0.126,1.198,0.23,1.748,0.23l6.146,0.006c0.55,0.001,1.001,0.001,1.001,0.001l0,0
			c0.102,0,0.203-0.016,0.299-0.046c1.138-0.356,2.016-0.787,2.67-1.306c0.343-0.262,0.343-0.262,0.343-0.262
			c0.266-0.314,0.666-0.851,0.889-1.192c0,0,0,0,0.102-0.309c0.529-1.485-0.173-2.939-0.672-3.564
			c-0.189-0.238-0.189-0.238-0.189-0.238c-0.326-0.076-1.042-0.139-1.592-0.139H94.15c-0.55,0-1.127,0.028-1.282,0.063
			c-0.155,0.034-0.768,0.619-1.129,1.034l-3.086,3.54c-0.361,0.415-0.801,1.076-0.976,1.469c0,0,0,0,0.163,0.356
			C88.001,85.31,88.001,85.31,88.001,85.31z M92.948,81.245c0.361-0.415,1.107-0.754,1.657-0.754h3.578
			c0.55,0,1.134,0.365,1.297,0.812c0,0,0,0-0.171,0.479c-0.038,0.114-0.107,0.239-0.221,0.388c-0.11,0.153-0.253,0.296-0.45,0.447
			c-0.441,0.349-0.967,0.559-0.967,0.559c-0.511,0.204-1.379,0.37-1.929,0.37l-3.794-0.005c-0.55-0.001-0.704-0.341-0.343-0.755
			L92.948,81.245z"/>
	</g>
	<g>
		<path d="M88.202,70.478c-0.502-0.225-1.363-0.408-1.913-0.408H53.704c-0.55,0-1.411,0.184-1.913,0.408
			c0,0-0.087,0.039-0.087,0.592c0,5.691,4.953,9.536,4.953,9.536c0.434,0.337,1.24,0.613,1.79,0.613h23.109
			c0.55,0,1.355-0.276,1.789-0.614c0,0,4.945-3.844,4.945-9.536C88.289,70.517,88.202,70.478,88.202,70.478z M83.322,78.578
			c-0.422,0.353-1.217,0.641-1.767,0.641H58.446c-0.55,0-1.346-0.288-1.768-0.64L54.01,73.03c-0.153-0.528,0.172-0.961,0.722-0.961
			h30.528c0.55,0,0.875,0.432,0.723,0.961L83.322,78.578z"/>
	</g>
	<g>
		<path d="M55.011,84.495c0,0.499,0.45,0.907,1,0.907h28.888c0.55,0,1-0.408,1-0.907s-0.45-0.907-1-0.907H56.011
			C55.461,83.588,55.011,83.996,55.011,84.495z"/>
	</g>
</g>
</svg>
