<?xml version="1.0" encoding="utf-8"?>
<!-- Generator: Adobe Illustrator 15.1.0, SVG Export Plug-In . SVG Version: 6.00 Build 0)  -->
<!DOCTYPE svg PUBLIC "-//W3C//DTD SVG 1.1//EN" "http://www.w3.org/Graphics/SVG/1.1/DTD/svg11.dtd">
<svg class="svg" version="1.1" id="Layer_1" xmlns="http://www.w3.org/2000/svg" xmlns:xlink="http://www.w3.org/1999/xlink" x="0px" y="0px"
	 width="17.145px" height="17.145px" viewBox="0 0 17.145 17.145" enable-background="new 0 0 17.145 17.145" xml:space="preserve">
<path d="M9.986,8.575l6.864-6.84c0.391-0.39,0.393-1.023,0.002-1.415c-0.39-0.391-1.022-0.393-1.414-0.002L8.574,7.159L1.733,0.294
	c-0.391-0.39-1.022-0.393-1.414-0.002c-0.391,0.39-0.393,1.023-0.002,1.415L7.158,8.57l-6.864,6.842
	c-0.391,0.39-0.393,1.022-0.002,1.414C0.487,17.022,0.743,17.12,1,17.12c0.255,0,0.511-0.098,0.706-0.292L8.57,9.987l6.841,6.864
	c0.195,0.196,0.451,0.294,0.708,0.294c0.255,0,0.511-0.098,0.706-0.292c0.391-0.39,0.393-1.022,0.002-1.414L9.986,8.575z"/>
</svg>
