<?xml version="1.0" encoding="utf-8"?>
<!-- Generator: Adobe Illustrator 17.0.0, SVG Export Plug-In . SVG Version: 6.00 Build 0)  -->
<!DOCTYPE svg PUBLIC "-//W3C//DTD SVG 1.1//EN" "http://www.w3.org/Graphics/SVG/1.1/DTD/svg11.dtd">
<svg version="1.1" class='svg' id="Layer_1" xmlns="http://www.w3.org/2000/svg" xmlns:xlink="http://www.w3.org/1999/xlink" x="0px" y="0px"
	 width="140px" height="138.583px" viewBox="0 0 140 138.583" enable-background="new 0 0 140 138.583" xml:space="preserve">
<g>
	<path fill="#231F20" d="M70,17.792c-28.397,0-51.5,23.103-51.5,51.5s23.103,51.5,51.5,51.5c28.397,0,51.5-23.103,51.5-51.5
		S98.397,17.792,70,17.792z M70,118.792c-27.294,0-49.5-22.206-49.5-49.5s22.206-49.5,49.5-49.5c27.295,0,49.5,22.206,49.5,49.5
		S97.295,118.792,70,118.792z"/>
	<path fill="#231F20" d="M99.574,42.723c-0.267-0.188-0.609-0.232-0.915-0.122l-18.993,6.877l-6.689-2.423
		c-0.517-0.188-1.093,0.081-1.281,0.6c-0.188,0.52,0.081,1.093,0.6,1.281l6.37,2.307v42.373L61.333,87.34V44.967l5.148,1.863
		c0.52,0.19,1.093-0.08,1.281-0.6c0.188-0.52-0.081-1.093-0.6-1.281l-6.488-2.349c-0.032-0.012-0.066-0.015-0.098-0.022
		c-0.042-0.011-0.082-0.023-0.124-0.028c-0.039-0.005-0.079-0.002-0.118-0.002c-0.04,0-0.079-0.003-0.119,0.002
		c-0.042,0.005-0.083,0.018-0.124,0.028c-0.032,0.008-0.066,0.011-0.098,0.022l-19.333,7c-0.396,0.143-0.66,0.52-0.66,0.94v44.5
		c0,0.326,0.159,0.632,0.426,0.818c0.17,0.12,0.372,0.182,0.574,0.182c0.115,0,0.23-0.02,0.34-0.06l18.993-6.877l18.994,6.877
		c0.007,0.002,0.014,0.001,0.021,0.004c0.104,0.035,0.211,0.056,0.32,0.056s0.216-0.021,0.32-0.056
		c0.007-0.003,0.014-0.002,0.021-0.004l19.333-7c0.396-0.144,0.66-0.52,0.66-0.94V71.229c0-0.553-0.448-1-1-1c-0.552,0-1,0.447-1,1
		V87.34l-17.333,6.275V51.243L98,44.967v18.262c0,0.553,0.448,1,1,1c0.552,0,1-0.447,1-1V43.542
		C100,43.215,99.841,42.91,99.574,42.723z M42,51.243l17.333-6.275V87.34L42,93.616V51.243z"/>
	<path fill="#231F20" d="M64.348,62.96c0,1.281,0.659,3.031,2.136,5.675c0.968,1.733,1.936,3.203,1.943,3.213l0.672,1.018
		c0.253,0.386,0.68,0.616,1.141,0.616c0.461,0,0.888-0.23,1.14-0.614l0.67-1.016c0.009-0.014,0.972-1.471,1.946-3.217
		c1.477-2.645,2.135-4.395,2.135-5.675c0-3.248-2.643-5.891-5.892-5.891C66.991,57.07,64.348,59.712,64.348,62.96z M70.239,59.07
		c2.146,0,3.892,1.745,3.892,3.891c0,0.883-0.633,2.465-1.881,4.7c-0.934,1.673-1.855,3.068-1.867,3.086l-0.144,0.218l-0.147-0.222
		c-0.009-0.013-0.927-1.406-1.863-3.082c-1.248-2.235-1.882-3.816-1.882-4.7C66.348,60.815,68.093,59.07,70.239,59.07z"/>
	<circle fill="#231F20" cx="70.499" cy="63.659" r="1.617"/>
	<path fill="#231F20" d="M89.247,59.892v26.601c0,0.553,0.448,1,1,1c0.552,0,1-0.447,1-1V59.892c0-0.553-0.448-1-1-1
		C89.694,58.892,89.247,59.339,89.247,59.892z"/>
	<path fill="#231F20" d="M94.667,81.714c0.552,0,1-0.447,1-1V48.709c0-0.323-0.156-0.626-0.419-0.814
		c-0.263-0.187-0.6-0.238-0.906-0.131l-9.559,3.289c-0.522,0.18-0.8,0.748-0.621,1.271c0.18,0.522,0.75,0.798,1.271,0.62
		l8.234-2.833v30.604C93.667,81.267,94.115,81.714,94.667,81.714z"/>
	<path fill="#231F20" d="M54.572,49.888c-0.27-0.188-0.611-0.23-0.918-0.118l-10.295,3.804c-0.518,0.191-0.783,0.767-0.591,1.285
		c0.191,0.518,0.768,0.783,1.285,0.592L53,52.144v22.022l-4.475,1.557c-0.521,0.182-0.797,0.751-0.616,1.272
		c0.144,0.413,0.53,0.672,0.944,0.672c0.109,0,0.22-0.018,0.329-0.056l5.146-1.79C54.73,75.682,55,75.303,55,74.877V50.709
		C55,50.381,54.84,50.075,54.572,49.888z"/>
	<path fill="#231F20" d="M48.854,72.745c0.552,0,1-0.447,1-1V58.093c0-0.553-0.448-1-1-1c-0.552,0-1,0.447-1,1v13.651
		C47.854,72.297,48.301,72.745,48.854,72.745z"/>
	<path fill="#231F20" d="M48.854,80.59c-0.552,0-1,0.447-1,1v6.961c0,0.553,0.448,1,1,1c0.552,0,1-0.447,1-1V81.59
		C49.854,81.038,49.406,80.59,48.854,80.59z"/>
	<path fill="#231F20" d="M54,78.52c-0.552,0-1,0.447-1,1v7.854c0,0.553,0.448,1,1,1c0.552,0,1-0.447,1-1V79.52
		C55,78.967,54.552,78.52,54,78.52z"/>
</g>
</svg>
