<?xml version="1.0" encoding="utf-8"?>
<!-- Generator: Adobe Illustrator 15.1.0, SVG Export Plug-In . SVG Version: 6.00 Build 0)  -->
<!DOCTYPE svg PUBLIC "-//W3C//DTD SVG 1.1//EN" "http://www.w3.org/Graphics/SVG/1.1/DTD/svg11.dtd">
<svg class="svg" version="1.1" id="Layer_1" xmlns="http://www.w3.org/2000/svg" xmlns:xlink="http://www.w3.org/1999/xlink" x="0px" y="0px"
	 width="14.703px" height="19.188px" viewBox="0 0 14.703 19.188" enable-background="new 0 0 14.703 19.188" xml:space="preserve">
<path d="M14.12,0.185c-0.127-0.097-0.293-0.128-0.445-0.081l-7.75,2.313C5.659,2.495,5.509,2.773,5.588,3.038
	C5.667,3.302,5.942,3.453,6.21,3.374l6.179-1.843L1.419,16.99l0.134-6.461c0.006-0.276-0.213-0.505-0.49-0.511
	c-0.252,0.003-0.504,0.214-0.51,0.49l-0.168,8.087c0,0.014,0.008,0.025,0.008,0.039c0.003,0.049,0.014,0.094,0.031,0.141
	c0.008,0.022,0.013,0.044,0.025,0.065c0.027,0.052,0.066,0.097,0.112,0.137c0.009,0.008,0.012,0.02,0.021,0.026
	c0.001,0.001,0.003,0.001,0.004,0.002c0.003,0.002,0.005,0.006,0.009,0.009c0.088,0.062,0.189,0.092,0.289,0.092c0,0,0,0,0,0l0,0
	c0.048,0,0.096-0.007,0.143-0.021l7.75-2.313c0.265-0.079,0.415-0.357,0.337-0.622c-0.079-0.265-0.359-0.414-0.622-0.337
	l-6.36,1.898L13.288,1.993l-0.139,6.666c-0.006,0.276,0.214,0.504,0.489,0.51c0.004,0,0.008,0,0.011,0c0.271,0,0.494-0.217,0.5-0.49
	l0.168-8.086C14.32,0.433,14.247,0.282,14.12,0.185z"/>
</svg>
