<?xml version="1.0" encoding="utf-8"?>
<!-- Generator: Adobe Illustrator 15.1.0, SVG Export Plug-In . SVG Version: 6.00 Build 0)  -->
<!DOCTYPE svg PUBLIC "-//W3C//DTD SVG 1.1//EN" "http://www.w3.org/Graphics/SVG/1.1/DTD/svg11.dtd">
<svg version="1.1" class='svg' id="Layer_1" xmlns="http://www.w3.org/2000/svg" xmlns:xlink="http://www.w3.org/1999/xlink" x="0px" y="0px"
	 width="24.648px" height="23.443px" viewBox="0 0 24.648 23.443" enable-background="new 0 0 24.648 23.443" xml:space="preserve">
<path fill="#AEAEAE" d="M12.325,5.241l1.563,3.785l0.469,1.136l1.225,0.095l4.084,0.317l-3.117,2.656l-0.936,0.797l0.288,1.195
	l0.961,3.981l-3.489-2.144l-1.047-0.643l-1.047,0.643l-3.49,2.144l0.961-3.982l0.288-1.194L8.102,13.23l-3.118-2.656l4.084-0.317
	l1.225-0.095l0.469-1.136L12.325,5.241 M12.325,0L8.913,8.263L0,8.955l6.805,5.798l-2.097,8.69l7.617-4.679l7.617,4.679l-2.098-8.69
	l6.804-5.798l-8.912-0.692L12.325,0L12.325,0z"/>
</svg>
