<?xml version="1.0" encoding="utf-8"?>
<!-- Generator: Adobe Illustrator 17.0.0, SVG Export Plug-In . SVG Version: 6.00 Build 0)  -->
<!DOCTYPE svg PUBLIC "-//W3C//DTD SVG 1.1//EN" "http://www.w3.org/Graphics/SVG/1.1/DTD/svg11.dtd">
<svg version="1.1" class='svg' id="Layer_1" xmlns="http://www.w3.org/2000/svg" xmlns:xlink="http://www.w3.org/1999/xlink" x="0px" y="0px"
	 width="140px" height="138.583px" viewBox="0 0 140 138.583" enable-background="new 0 0 140 138.583" xml:space="preserve">
<g>
	<path fill="#231F20" d="M70,17.792c-28.397,0-51.5,23.103-51.5,51.5c0,28.397,23.103,51.5,51.5,51.5
		c28.397,0,51.5-23.103,51.5-51.5C121.5,40.894,98.397,17.792,70,17.792z M70,118.792c-27.294,0-49.5-22.206-49.5-49.5
		c0-27.294,22.206-49.5,49.5-49.5c27.295,0,49.5,22.206,49.5,49.5C119.5,96.585,97.295,118.792,70,118.792z"/>
	<path fill="#231F20" d="M95.625,54.311h-4.609c-0.552,0-1,0.447-1,1c0,0.553,0.448,1,1,1h4.609c1.103,0,2,0.897,2,1.996
		c0,0-0.009,2.484-0.016,3.879h-22.51v-5.875h10.416c0.552,0,1-0.447,1-1c0-0.553-0.448-1-1-1h-6.869
		c7.851-2.363,9.754-5.308,9.774-8.841c0.145-1.424-0.447-3.771-2.107-5.644c-1.079-1.215-3.02-2.664-6.143-2.664
		c-5.445,0-9.035,9.079-10.667,14.381c-1.632-5.302-5.221-14.381-10.667-14.381c-3.123,0-5.064,1.449-6.143,2.664
		c-1.661,1.872-2.253,4.22-2.107,5.644c0.02,3.533,1.924,6.478,9.774,8.841H44.375c-2.206,0-4,1.794-4,4.004
		c0.018,4.832,0.025,4.905,0.029,4.958c0.045,0.517,0.478,0.913,0.996,0.913h3.532V97.42c0,2.206,1.794,4,4,4h16.333h8.834h16.333
		c2.206,0,4-1.794,4-4v-8.437V64.186H98.6c0.519,0,0.951-0.396,0.996-0.913c0.005-0.053,0.011-0.126,0.029-4.962
		C99.625,56.105,97.831,54.311,95.625,54.311z M73.099,62.186h-6.834v-5.875h3.044c0.009,0.002,0.018,0.003,0.028,0.005
		c0.056,0.009,0.112,0.014,0.167,0.014c0.055,0,0.111-0.005,0.167-0.014c0.01-0.002,0.019-0.003,0.028-0.005h3.4V62.186z
		 M80.171,39.163c1.911,0,3.474,0.67,4.647,1.992c1.28,1.442,1.712,3.289,1.611,4.14c-0.005,0.04-0.007,0.079-0.007,0.119
		c0,2.047,0,5.803-15.567,8.663C72.273,48.855,75.81,39.163,80.171,39.163z M52.587,45.414c0-0.04-0.003-0.079-0.007-0.119
		c-0.102-0.851,0.331-2.697,1.611-4.14c1.173-1.322,2.736-1.992,4.647-1.992c4.356,0,7.895,9.692,9.317,14.914
		C52.587,51.216,52.587,47.46,52.587,45.414z M42.375,58.311c0-1.103,0.897-2,2-2h19.89v5.875H42.392
		C42.384,60.771,42.375,58.311,42.375,58.311z M92.432,88.984v8.437c0,1.103-0.897,2-2,2H75.099V68.181c0-0.553-0.448-1-1-1
		c-0.552,0-1,0.447-1,1V99.42h-6.834V73.681c0-0.553-0.448-1-1-1c-0.552,0-1,0.447-1,1V99.42H48.932c-1.103,0-2-0.897-2-2V64.186
		h45.5V88.984z"/>
</g>
</svg>
