<?xml version="1.0" encoding="utf-8"?>
<!-- Generator: Adobe Illustrator 17.0.0, SVG Export Plug-In . SVG Version: 6.00 Build 0)  -->
<!DOCTYPE svg PUBLIC "-//W3C//DTD SVG 1.1//EN" "http://www.w3.org/Graphics/SVG/1.1/DTD/svg11.dtd">
<svg version="1.1" id="Layer_1" xmlns="http://www.w3.org/2000/svg" xmlns:xlink="http://www.w3.org/1999/xlink" x="0px" y="0px"
	 width="140px" height="138.583px" viewBox="0 0 140 138.583" enable-background="new 0 0 140 138.583" xml:space="preserve">
<g>
	<path d="M70,17.792c-28.397,0-51.5,23.103-51.5,51.5c0,28.397,23.103,51.5,51.5,51.5c28.397,0,51.5-23.103,51.5-51.5
		C121.5,40.895,98.397,17.792,70,17.792z M70,118.792c-27.294,0-49.5-22.206-49.5-49.5c0-27.294,22.206-49.5,49.5-49.5
		c27.294,0,49.5,22.206,49.5,49.5C119.5,96.585,97.294,118.792,70,118.792z"/>
	<path d="M107.598,87.884c-0.4-0.38-1.034-0.364-1.413,0.035c-0.031,0.033-3.181,3.29-6.856,3.29h-2.861v-4.847h0.422
		c6.885,0,10.523-3.614,10.523-10.452c0-13.782-10.303-23.386-19.549-23.386H68.75v-2.577c0.381-0.193,0.689-0.506,0.868-0.895
		h25.162c0.553,0,1-0.448,1-1s-0.447-1-1-1H69.343c-0.347-0.412-0.86-0.68-1.441-0.68c-0.581,0-1.094,0.268-1.441,0.68H41.337
		c-0.552,0-1,0.448-1,1s0.448,1,1,1h24.85c0.128,0.279,0.323,0.518,0.563,0.704v2.769H37.12c-4.979,0-9.03,4.051-9.03,9.03
		s4.051,9.03,9.03,9.03c4.714,0,8.537-3.703,9.005-8.663c0.167,0.001,0.35,0.028,0.487,0.055
		c1.696,1.415,14.813,12.396,20.051,18.025c5.75,6.182,10.251,6.36,10.746,6.36h3.342v4.847H70.332c-0.552,0-1,0.447-1,1
		s0.448,1,1,1h28.996c4.547,0,8.155-3.753,8.307-3.913C108.015,88.896,107.997,88.265,107.598,87.884z M68.128,78.641
		c-5.665-6.09-19.819-17.855-20.419-18.354c-0.107-0.089-0.232-0.154-0.366-0.192c-0.063-0.018-0.626-0.173-1.226-0.173
		c-1.372,0-1.914,0.81-1.964,1.567c-0.268,4.045-3.292,7.096-7.033,7.096c-3.876,0-7.03-3.154-7.03-7.03s3.154-7.03,7.03-7.03
		h50.743c7.173,0,17.549,7.616,17.549,21.386c0,5.767-2.708,8.452-8.523,8.452H77.41C77.37,84.363,73.375,84.281,68.128,78.641z
		 M82.751,86.363h11.716v4.847H82.751V86.363z"/>
	<path d="M102.649,74.205c0-8.803-8.786-16.635-15.711-16.635l-9.004,0.001c-1.313,0.065-3.793,0.894-3.793,3.557v17.341
		c0,1.983,1.605,3.984,5.193,3.984h18.904C99.273,82.454,102.649,81.859,102.649,74.205z M77.984,59.57h8.954
		c5.414,0,13.711,6.556,13.711,14.635c0,4.316-1.211,6.249-2.41,6.249h-4.202c0.012-0.062,0.037-0.119,0.037-0.185v-6.064
		c0-0.553-0.447-1-1-1H88.39v-9.612c0-0.552-0.447-1-1-1s-1,0.448-1,1v16.677c0,0.065,0.025,0.123,0.037,0.185h-4.069
		c0.012-0.062,0.037-0.119,0.037-0.185v-6.064c0-0.553-0.447-1-1-1h-5.254V61.128C76.142,59.726,77.846,59.58,77.984,59.57z
		 M88.39,80.269v-5.064h3.685v5.064c0,0.065,0.025,0.123,0.037,0.185h-3.759C88.364,80.392,88.39,80.335,88.39,80.269z
		 M76.142,78.469v-3.265h4.254v5.064c0,0.065,0.025,0.123,0.037,0.185h-1.098C76.98,80.454,76.142,79.428,76.142,78.469z"/>
	<path d="M36.942,56.611c-1.183,0-2.33,0.425-3.229,1.199c-0.002,0.001-0.003,0.003-0.004,0.004c-0.001,0-0.001,0.001-0.002,0.001
		c-0.001,0.001-0.001,0.002-0.002,0.003c-1.084,0.94-1.706,2.301-1.706,3.737c0,2.726,2.218,4.943,4.943,4.943
		c1.22,0,2.324-0.461,3.188-1.196c0.031-0.022,0.067-0.032,0.096-0.057c0.02-0.017,0.027-0.041,0.045-0.059
		c0.987-0.904,1.616-2.191,1.616-3.631C41.888,58.829,39.669,56.611,36.942,56.611z M39.888,61.555c0,0.501-0.137,0.965-0.359,1.379
		l-3.625-4.132c0.33-0.124,0.681-0.191,1.039-0.191C38.566,58.611,39.888,59.932,39.888,61.555z M33.999,61.555
		c0-0.514,0.148-1.005,0.394-1.442l3.654,4.166c-0.342,0.139-0.714,0.219-1.105,0.219C35.319,64.499,33.999,63.178,33.999,61.555z"
		/>
</g>
</svg>
