<?xml version="1.0" encoding="utf-8"?>
<!-- Generator: Adobe Illustrator 17.0.0, SVG Export Plug-In . SVG Version: 6.00 Build 0)  -->
<!DOCTYPE svg PUBLIC "-//W3C//DTD SVG 1.1//EN" "http://www.w3.org/Graphics/SVG/1.1/DTD/svg11.dtd">
<svg version="1.1" class='svg' id="Layer_1" xmlns="http://www.w3.org/2000/svg" xmlns:xlink="http://www.w3.org/1999/xlink" x="0px" y="0px"
	 width="140px" height="138.583px" viewBox="0 0 140 138.583" enable-background="new 0 0 140 138.583" xml:space="preserve">
<g>
	<path fill="#231F20" d="M70,17.792c-28.397,0-51.5,23.103-51.5,51.5c0,28.397,23.103,51.5,51.5,51.5
		c28.397,0,51.5-23.103,51.5-51.5C121.5,40.894,98.397,17.792,70,17.792z M70,118.792c-27.294,0-49.5-22.206-49.5-49.5
		c0-27.294,22.206-49.5,49.5-49.5c27.295,0,49.5,22.206,49.5,49.5C119.5,96.585,97.295,118.792,70,118.792z"/>
	<path fill="#231F20" d="M70.381,56.51c0.035-0.551-0.383-1.026-0.935-1.062c-2.514-0.16-5.004,0.118-7.4,0.828
		c-0.529,0.157-0.831,0.714-0.675,1.243c0.129,0.434,0.527,0.716,0.958,0.716c0.094,0,0.19-0.013,0.285-0.041
		c2.17-0.643,4.425-0.895,6.705-0.75C69.862,57.474,70.346,57.061,70.381,56.51z"/>
	<path fill="#231F20" d="M56.584,58.785c-5.659,3.646-9.292,9.828-9.72,16.537c-0.035,0.551,0.383,1.026,0.935,1.062
		c0.021,0.001,0.043,0.002,0.064,0.002c0.523,0,0.963-0.407,0.997-0.936c0.387-6.077,3.68-11.679,8.807-14.982
		c0.464-0.3,0.598-0.918,0.299-1.383C57.667,58.619,57.049,58.487,56.584,58.785z"/>
	<path fill="#231F20" d="M97.125,82.91H73.674v-3.171h23.284c0.007-0.001,0.014,0,0.02,0c0.552,0,1-0.447,1-1
		c0-0.069-0.007-0.138-0.021-0.203c-0.106-14.893-11.917-27.05-26.671-27.723v-1.601c2.84-0.479,5.012-2.949,5.012-5.922
		c0-3.315-2.697-6.013-6.012-6.013c-3.315,0-6.012,2.697-6.012,6.013c0,2.973,2.172,5.443,5.012,5.922v1.586
		C54.2,51.179,42.042,63.562,42.042,78.739c0,0.553,0.448,1,1,1h23.633v3.171H42.875c-2.206,0-4,1.794-4,4.007
		c0.019,2.831,0.025,2.905,0.029,2.955c0.045,0.517,0.478,0.913,0.996,0.913H100.1c0.519,0,0.951-0.396,0.996-0.913
		c0.004-0.05,0.011-0.124,0.029-2.962C101.125,84.704,99.331,82.91,97.125,82.91z M66.275,43.291c0-2.213,1.8-4.013,4.012-4.013
		c2.212,0,4.012,1.8,4.012,4.013c0,2.212-1.8,4.012-4.012,4.012C68.075,47.302,66.275,45.502,66.275,43.291z M70,52.781
		c13.979,0,25.413,11.105,25.939,24.958H44.061C44.587,63.886,56.021,52.781,70,52.781z M68.674,79.739h3v3.171h-3V79.739z
		 M99.111,88.785H40.889c-0.007-0.824-0.014-1.875-0.014-1.875c0-1.103,0.897-2,2-2h54.25c1.103,0,2,0.897,2,1.993
		C99.125,86.903,99.118,87.959,99.111,88.785z"/>
</g>
</svg>
