<?xml version="1.0" encoding="utf-8"?>
<!-- Generator: Adobe Illustrator 15.1.0, SVG Export Plug-In . SVG Version: 6.00 Build 0)  -->
<!DOCTYPE svg PUBLIC "-//W3C//DTD SVG 1.1//EN" "http://www.w3.org/Graphics/SVG/1.1/DTD/svg11.dtd">
<svg version="1.1" class='svg' id="Layer_1" xmlns="http://www.w3.org/2000/svg" xmlns:xlink="http://www.w3.org/1999/xlink" x="0px" y="0px"
	 width="140px" height="138.583px" viewBox="0 0 140 138.583" enable-background="new 0 0 140 138.583" xml:space="preserve">
<path fill="#231F20" d="M69.029,122.742c-28.397,0-51.5-23.103-51.5-51.499c0-28.397,23.103-51.5,51.5-51.5
	c28.398,0,51.5,23.103,51.5,51.5C120.53,99.639,97.427,122.742,69.029,122.742z M69.029,21.743c-27.294,0-49.5,22.205-49.5,49.5
	c0,27.294,22.206,49.499,49.5,49.499c27.294,0,49.5-22.205,49.5-49.499C118.53,43.948,96.324,21.743,69.029,21.743z M45.462,106.674
	c0.29-0.021,0.558-0.17,0.729-0.405l20.561-27.994c0.327-0.444,0.231-1.07-0.214-1.397c-0.444-0.328-1.072-0.231-1.397,0.214
	L45.27,104.147l-1.03-1.03l2.893-12.705c0.123-0.539-0.214-1.075-0.753-1.197c-0.537-0.126-1.074,0.215-1.196,0.753l-3.016,13.244
	c-0.077,0.335,0.024,0.686,0.268,0.929l2.244,2.244c0.188,0.188,0.442,0.293,0.707,0.293
	C45.411,106.677,45.437,106.676,45.462,106.674z M50.72,74.658l2.358-10.36c0.082-0.36-0.041-0.736-0.32-0.979
	c-10.699-9.255-13.089-15.107-13.209-18.387c-0.077-2.114,0.811-3.053,0.867-3.11c0.394-0.378,0.412-1.002,0.039-1.402
	c-0.375-0.406-1.008-0.427-1.413-0.051c-0.158,0.147-1.55,1.529-1.496,4.469c0.066,3.644,2.468,9.986,13.45,19.6l-2.226,9.776
	c-0.123,0.538,0.214,1.074,0.753,1.197c0.074,0.017,0.149,0.024,0.223,0.024C50.202,75.435,50.614,75.121,50.72,74.658z
	 M88.254,93.659c0.131-0.537-0.198-1.078-0.735-1.209c-5.34-1.3-22.872-17.61-29.176-23.785c-0.396-0.386-1.027-0.38-1.415,0.015
	c-0.386,0.395-0.38,1.028,0.015,1.414c0.942,0.923,23.139,22.604,30.104,24.3c0.079,0.02,0.159,0.028,0.237,0.028
	C87.734,94.421,88.143,94.116,88.254,93.659z M86.17,104.666c0.308-0.039,0.579-0.218,0.736-0.484l4.436-7.54l2.862-0.094
	c0.552-0.019,0.984-0.48,0.966-1.032c-0.019-0.554-0.497-1-1.032-0.967l-3.412,0.112c-0.342,0.011-0.655,0.197-0.829,0.492
	l-4.059,6.899l-1.371-1.371l0.279-8.109c0.02-0.553-0.412-1.016-0.965-1.034c-0.545-0.023-1.015,0.413-1.033,0.965l-0.295,8.544
	c-0.01,0.277,0.096,0.545,0.292,0.741l2.592,2.593c0.188,0.189,0.443,0.293,0.707,0.293
	C86.086,104.673,86.128,104.671,86.17,104.666z M46.864,90.896c0.391-0.39,0.391-1.023,0-1.414l-3.248-3.249l1.887-1.887
	l0.781,0.781c0.391,0.391,1.023,0.391,1.414,0s0.391-1.023,0-1.414l-1.488-1.488c-0.391-0.391-1.023-0.391-1.414,0l-3.301,3.301
	c-0.391,0.391-0.391,1.023,0,1.414l3.955,3.956c0.195,0.195,0.451,0.293,0.707,0.293S46.669,91.091,46.864,90.896z M47.953,86.808
	l2.065-8.828c0.079-0.337-0.022-0.69-0.267-0.936l-3.249-3.248l1.888-1.888l0.894,0.894c0.391,0.391,1.023,0.391,1.414,0
	s0.391-1.023,0-1.414l-1.601-1.601c-0.391-0.391-1.023-0.391-1.414,0l-3.302,3.302c-0.188,0.188-0.293,0.442-0.293,0.707
	c0,0.266,0.105,0.52,0.293,0.707l3.563,3.563l-1.938,8.286c-0.126,0.538,0.208,1.075,0.746,1.201
	c0.076,0.019,0.153,0.026,0.229,0.026C47.435,87.58,47.846,87.269,47.953,86.808z M66.009,106.739c0.391-0.391,0.391-1.023,0-1.414
	l-1.797-1.797c-0.391-0.391-1.023-0.391-1.414,0s-0.391,1.023,0,1.414l1.797,1.797c0.195,0.195,0.451,0.293,0.707,0.293
	S65.813,106.934,66.009,106.739z M62.223,102.953c0.391-0.391,0.391-1.023,0-1.414l-5.524-5.524c-0.391-0.391-1.023-0.391-1.414,0
	s-0.391,1.023,0,1.414l5.524,5.524c0.195,0.195,0.451,0.293,0.707,0.293S62.027,103.148,62.223,102.953z M67.896,93.301
	c0.391-0.39,0.391-1.023,0-1.414l-4.359-4.36c-0.391-0.391-1.023-0.391-1.414,0s-0.391,1.023,0,1.414l4.359,4.36
	c0.195,0.195,0.451,0.293,0.707,0.293S67.7,93.497,67.896,93.301z M77.062,67.966l27.994-20.562c0.235-0.173,0.383-0.439,0.405-0.73
	c0.022-0.29-0.084-0.576-0.29-0.782l-2.244-2.244c-0.243-0.244-0.597-0.346-0.929-0.269l-13.243,3.017
	c-0.539,0.122-0.876,0.658-0.753,1.197c0.122,0.538,0.657,0.873,1.196,0.753l12.705-2.894l1.03,1.029L75.878,66.354
	c-0.445,0.327-0.541,0.953-0.214,1.397c0.195,0.268,0.499,0.408,0.807,0.408C76.676,68.16,76.884,68.097,77.062,67.966z
	 M63.084,54.292l10.36-2.358c0.539-0.123,0.876-0.659,0.753-1.197c-0.123-0.539-0.661-0.88-1.196-0.753l-9.777,2.226
	c-9.614-10.982-15.956-13.384-19.6-13.45c-2.927-0.034-4.32,1.338-4.469,1.497c-0.376,0.404-0.354,1.037,0.051,1.413
	c0.405,0.376,1.036,0.354,1.414-0.051c0.008-0.009,0.964-0.899,2.967-0.859c3.286,0.06,9.166,2.4,18.52,13.213
	c0.191,0.222,0.469,0.346,0.756,0.346C62.937,54.317,63.011,54.308,63.084,54.292z M92.445,89.467
	c0.537-0.131,0.866-0.672,0.735-1.208c-1.696-6.964-23.377-29.162-24.299-30.104c-0.387-0.395-1.02-0.4-1.414-0.015
	c-0.396,0.387-0.401,1.02-0.016,1.414c6.175,6.305,22.485,23.836,23.786,29.178c0.111,0.457,0.521,0.763,0.971,0.763
	C92.286,89.496,92.366,89.487,92.445,89.467z M95.334,95.417l0.094-2.862l7.54-4.435c0.267-0.157,0.446-0.429,0.485-0.735
	c0.039-0.308-0.066-0.615-0.285-0.834l-2.593-2.593c-0.196-0.196-0.49-0.313-0.741-0.292l-8.544,0.295
	c-0.553,0.019-0.984,0.481-0.965,1.034c0.019,0.552,0.49,0.995,1.033,0.965l8.11-0.28l1.371,1.372l-6.9,4.059
	c-0.296,0.174-0.481,0.486-0.492,0.829l-0.111,3.412c-0.019,0.552,0.414,1.014,0.967,1.032c0.011,0,0.021,0,0.033,0
	C94.874,96.383,95.317,95.958,95.334,95.417z M83.915,48.912c0.391-0.39,0.391-1.023,0-1.414l-0.78-0.78l1.887-1.888l3.249,3.248
	c0.391,0.391,1.023,0.391,1.414,0s0.391-1.023,0-1.414l-3.956-3.956c-0.375-0.375-1.039-0.375-1.414,0l-3.301,3.303
	c-0.391,0.391-0.391,1.023,0,1.414l1.487,1.487c0.195,0.195,0.451,0.293,0.707,0.293S83.719,49.107,83.915,48.912z M71.589,51.912
	c0.391-0.39,0.391-1.023,0-1.414l-0.894-0.894l1.888-1.888l3.248,3.249c0.244,0.245,0.601,0.344,0.935,0.267l8.828-2.065
	c0.538-0.125,0.872-0.663,0.746-1.201c-0.125-0.537-0.664-0.873-1.201-0.746l-8.287,1.938l-3.562-3.563
	c-0.188-0.188-0.441-0.293-0.707-0.293l0,0c-0.266,0-0.52,0.105-0.707,0.293l-3.302,3.302c-0.391,0.391-0.391,1.023,0,1.414
	l1.601,1.601c0.195,0.195,0.451,0.293,0.707,0.293S71.394,52.107,71.589,51.912z M105.526,67.222c0.391-0.391,0.391-1.023,0-1.414
	l-1.797-1.797c-0.391-0.391-1.023-0.391-1.414,0s-0.391,1.023,0,1.414l1.797,1.797c0.195,0.195,0.451,0.293,0.707,0.293
	S105.331,67.417,105.526,67.222z M101.74,63.436c0.391-0.391,0.391-1.023,0-1.414l-5.523-5.524c-0.391-0.391-1.023-0.391-1.414,0
	s-0.391,1.023,0,1.414l5.523,5.524c0.195,0.195,0.451,0.293,0.707,0.293S101.544,63.631,101.74,63.436z M92.089,69.109
	c0.391-0.391,0.391-1.023,0-1.414l-4.36-4.359c-0.391-0.391-1.023-0.391-1.414,0s-0.391,1.023,0,1.414l4.36,4.359
	c0.195,0.195,0.451,0.293,0.707,0.293S91.894,69.304,92.089,69.109z M41.998,47.87c0.552-0.017,0.986-0.478,0.97-1.03
	c-0.001-0.013-0.005-1.331,0.772-2.108c0.452-0.452,1.102-0.661,1.969-0.633c0.549,0.039,1.014-0.417,1.03-0.97
	c0.017-0.552-0.418-1.013-0.97-1.029c-1.433-0.041-2.593,0.366-3.443,1.218c-1.407,1.406-1.36,3.495-1.358,3.583
	c0.017,0.542,0.461,0.97,0.999,0.97C41.978,47.87,41.987,47.87,41.998,47.87z M38.083,39.61c0.414-0.365,0.453-0.997,0.088-1.411
	c-0.562-0.637-1.11-1.262-1.647-1.877c-0.363-0.417-0.994-0.459-1.411-0.096c-0.416,0.363-0.458,0.995-0.095,1.411
	c0.539,0.618,1.09,1.246,1.653,1.885c0.198,0.224,0.474,0.338,0.75,0.338C37.656,39.86,37.893,39.778,38.083,39.61z M33.075,34.854
	c-0.282,0-0.563-0.119-0.761-0.352c-1.188-1.394-2.297-2.72-3.32-3.972c-0.35-0.427-0.286-1.058,0.142-1.407
	s1.057-0.286,1.407,0.142c1.016,1.242,2.115,2.558,3.293,3.94c0.358,0.42,0.309,1.051-0.112,1.409
	C33.535,34.775,33.305,34.854,33.075,34.854z M27.192,27.678c-0.298,0-0.593-0.133-0.79-0.386c-1.221-1.566-2.265-2.975-3.104-4.187
	c-0.314-0.454-0.201-1.077,0.253-1.392c0.455-0.314,1.077-0.201,1.392,0.254c0.817,1.181,1.839,2.559,3.037,4.095
	c0.339,0.436,0.262,1.064-0.174,1.403C27.624,27.609,27.407,27.678,27.192,27.678z M31.985,24.075c-0.217,0-0.435-0.07-0.618-0.215
	c-1.507-1.188-2.878-2.224-4.075-3.076c-0.45-0.32-0.555-0.945-0.234-1.395c0.32-0.45,0.944-0.557,1.395-0.234
	c1.224,0.871,2.621,1.927,4.153,3.135c0.434,0.343,0.508,0.971,0.166,1.404C32.574,23.945,32.281,24.075,31.985,24.075z
	 M21.974,20.02c-0.373,0-0.73-0.209-0.902-0.567c-0.402-0.838-0.59-1.474-0.59-2.001c0-0.594,0.242-0.961,0.446-1.165
	c0.201-0.202,0.569-0.446,1.164-0.446c0.677,0,1.569,0.321,2.809,1.011c0.482,0.27,0.656,0.878,0.388,1.36
	c-0.27,0.481-0.875,0.656-1.36,0.388c-0.607-0.338-1.03-0.525-1.317-0.63c0.058,0.161,0.142,0.364,0.264,0.618
	c0.239,0.498,0.029,1.096-0.469,1.334C22.266,19.989,22.118,20.02,21.974,20.02z M37.89,27.919c0.356-0.423,0.302-1.054-0.12-1.409
	c-0.661-0.557-1.305-1.092-1.93-1.608c-0.428-0.353-1.057-0.29-1.408,0.135c-0.352,0.426-0.291,1.057,0.135,1.408
	c0.621,0.512,1.259,1.043,1.914,1.596c0.188,0.157,0.417,0.234,0.644,0.234C37.409,28.275,37.692,28.154,37.89,27.919z
	 M116.552,107.795c0.433-0.343,0.507-0.972,0.165-1.404c-0.498-0.631-1.022-1.285-1.573-1.964c-0.347-0.428-0.979-0.495-1.406-0.146
	c-0.429,0.349-0.494,0.979-0.146,1.407c0.545,0.671,1.063,1.318,1.556,1.942c0.197,0.25,0.49,0.38,0.786,0.38
	C116.15,108.01,116.369,107.94,116.552,107.795z M120.521,118.292c-0.125,0-0.252-0.024-0.375-0.074
	c-1.14-0.461-2.705-1.402-4.786-2.879c-0.451-0.319-0.557-0.943-0.237-1.395c0.319-0.45,0.945-0.557,1.394-0.237
	c1.927,1.367,3.4,2.261,4.38,2.657c0.512,0.207,0.759,0.79,0.552,1.303C121.291,118.055,120.916,118.292,120.521,118.292z
	 M121.472,115.909c-0.358,0-0.704-0.192-0.884-0.53c-0.586-1.101-1.548-2.568-2.859-4.364c-0.325-0.445-0.229-1.071,0.218-1.397
	s1.071-0.228,1.397,0.218c1.367,1.872,2.38,3.421,3.01,4.604c0.26,0.487,0.074,1.094-0.413,1.353
	C121.792,115.872,121.63,115.909,121.472,115.909z M112.498,112.956c-0.214,0-0.431-0.069-0.613-0.211
	c-1.295-1.007-2.709-2.144-4.203-3.379c-0.426-0.352-0.486-0.982-0.134-1.408c0.351-0.425,0.98-0.485,1.407-0.134
	c1.479,1.223,2.878,2.348,4.158,3.342c0.436,0.34,0.515,0.968,0.175,1.403C113.09,112.823,112.795,112.956,112.498,112.956z
	 M105.032,106.833c-0.229,0-0.461-0.078-0.648-0.239c-1.3-1.107-2.657-2.283-4.066-3.521c-0.415-0.365-0.456-0.997-0.091-1.412
	c0.363-0.414,0.995-0.455,1.411-0.091c1.401,1.23,2.751,2.4,4.043,3.502c0.421,0.358,0.471,0.989,0.112,1.41
	C105.595,106.714,105.314,106.833,105.032,106.833z M98.509,100.135c0.367-0.411,0.332-1.044-0.08-1.411
	c-0.61-0.546-1.229-1.103-1.854-1.669c-0.41-0.369-1.042-0.338-1.413,0.072c-0.37,0.409-0.338,1.042,0.071,1.412
	c0.63,0.568,1.25,1.128,1.864,1.676c0.19,0.17,0.429,0.254,0.666,0.254C98.038,100.469,98.311,100.357,98.509,100.135z"/>
</svg>
