<?xml version="1.0" encoding="utf-8"?>
<!-- Generator: Adobe Illustrator 15.1.0, SVG Export Plug-In . SVG Version: 6.00 Build 0)  -->
<!DOCTYPE svg PUBLIC "-//W3C//DTD SVG 1.1//EN" "http://www.w3.org/Graphics/SVG/1.1/DTD/svg11.dtd">
<svg class="svg" version="1.1" id="Layer_1" xmlns="http://www.w3.org/2000/svg" xmlns:xlink="http://www.w3.org/1999/xlink" x="0px" y="0px"
	 width="25.768px" height="25.721px" viewBox="0 0 25.768 25.721" enable-background="new 0 0 25.768 25.721" xml:space="preserve">
<path d="M5.866,25.545H0.594V8.598h5.272V25.545z M3.232,6.283c-1.693,0-3.057-1.368-3.057-3.055c0-1.686,1.364-3.055,3.057-3.055
	c1.685,0,3.052,1.369,3.052,3.055C6.283,4.915,4.916,6.283,3.232,6.283z M25.593,25.545h-5.266v-8.24
	c0-1.965-0.035-4.493-2.737-4.493c-2.741,0-3.159,2.141-3.159,4.353v8.383H9.169V8.598h5.048v2.318h0.072
	c0.702-1.333,2.422-2.738,4.984-2.738c5.331,0,6.316,3.508,6.316,8.073v9.294H25.593z"/>
</svg>
