<?xml version="1.0" encoding="utf-8"?>
<!-- Generator: Adobe Illustrator 15.1.0, SVG Export Plug-In . SVG Version: 6.00 Build 0)  -->
<!DOCTYPE svg PUBLIC "-//W3C//DTD SVG 1.1//EN" "http://www.w3.org/Graphics/SVG/1.1/DTD/svg11.dtd">
<svg class="svg" version="1.1" id="Layer_1" xmlns="http://www.w3.org/2000/svg" xmlns:xlink="http://www.w3.org/1999/xlink" x="0px" y="0px"
	 width="570.563px" height="187.684px" viewBox="0 0 570.563 187.684" enable-background="new 0 0 570.563 187.684"
	 xml:space="preserve">
<g>
	<path d="M555.727,94.871c-9.894-10.241-21.927-15.351-36.114-15.351c-5.675,0-8.763,0.158-15.237,2.343l47.587-70.378
		L534.988,0.116l-54.229,80.855c-7.625,11.326-12.911,21.023-15.867,29.073c-2.966,8.051-4.44,15.728-4.44,23.008
		c0,9.797,2.39,18.977,7.167,27.558c4.785,8.577,11.366,15.237,19.752,19.971c8.385,4.737,17.481,7.103,27.284,7.103
		c10.129,0,19.586-2.446,28.379-7.343c8.792-4.896,15.577-11.495,20.355-19.79c4.782-8.294,7.174-17.583,7.174-27.861
		C570.563,117.718,565.617,105.106,555.727,94.871z M540.941,158.328c-7.053,7.045-15.57,10.568-25.559,10.568
		c-9.979,0-18.499-3.523-25.559-10.568c-7.061-7.052-10.583-15.554-10.583-25.52c0-10.047,3.522-18.591,10.579-25.635
		c7.055-7.049,15.572-10.571,25.559-10.571c9.982,0,18.504,3.522,25.563,10.571c7.059,7.044,10.59,15.588,10.59,25.635
		C551.531,142.774,548,151.276,540.941,158.328z"/>
	<polygon points="308.372,104.136 259.564,0 226.371,0 226.371,187.045 249.116,187.045 249.116,25.878 299.643,135.542 
		314.149,135.542 365.047,25.878 365.047,187.045 389.391,187.045 389.391,0 355.581,0 	"/>
	<path d="M158.183,98.229c1.677-2.278,2.504-5.284,3.047-6.647l9.229-23.338c1.741-4.408-1.106-7.455-4.35-9.659
		c-5.179-3.523-8.645-1.675-9.779,1.528l-8.046,22.777c-0.699,1.95-1.749,3.729-2.931,5.415
		c-4.021,5.755-7.208,11.557-11.676,17.841c-4.396,5.468-4.233,7.724-3.342,10.99l6.936,24.047
		c10.271-2.075,23.996-10.741,26.843-14.565c3.163-4.29,7.045-10.79,10.387-15.446c1.35-1.886,1.757-4.354,2.675-6.797l7.715-20.445
		c2.843-7.535-1.417-9.309-3.965-11.07c-2.065-1.42-6.078-2.858-7.683,0.991l-9.54,22.881l-1.634,3.974l-12.626,18.456
		c-0.91,1.235-4.425-1.748-3.67-2.774L158.183,98.229z"/>
	<path d="M188.157,90.262c-1.646-1.158-2.708,1.277-3.43,3.298l-6.528,18.209c-0.987,3.053-1.659,3.867-3,5.688
		c-3.441,4.673-6.652,10.415-10.094,15.086c-16.728,19.782-58.095,25.893-81.626,26.124c6.445,10.419,14.879,19.387,22.313,24.359
		c-50.502-15.802-80.952-81.574-50.905-130.5c-12.131,4.09-37.469,22.747-36.703,55.97c0.109,4.734,0.563,9.297,1.333,13.704
		c-3.041-8.135-4.472-16.086-4.311-23.524c0.339-15.676,6.229-34.704,26.443-47.482c23.113-14.612,47.65-14.216,77.065,7.23
		c4.36,3.184,10.783,2.271,14.524-1.121c-1.473,3.662-2.925,7.33-4.322,11.005c-0.782,2.054-1.605,4.046-2.851,5.742
		c-4.74,6.431-9.135,14.032-13.996,20.383c-4.098,5.346-6.086,5.022-8.234,4.903c-5.1-0.288-5.863,0.734-6.837-2.872L90.37,71.89
		c-0.615-2.266-2.519-5.11-6.473-5.547c-2.695-0.295-2.871-0.216-5.582-0.229c-3.95-0.012-6.464,2.976-6.505,7.168
		c-0.296,29.57,7.594,63.528,12.239,76.691c11.189,0.503,35.959-2.429,47.229-7.344c-1.286-4.201-6.038-19.528-7.117-23.784
		c-1.301-5.136-0.163-9.152,2.296-12.314c5.096-6.559,9.404-14.276,14.212-20.671c1.646-2.191,2.791-4.878,3.638-7.766l5.363-18.297
		c1.354-3.926,0.639-6.696-2.1-8.658c-4.177-2.991-9.442,0.897-11.755,2.35c1.921-5.277-1.012-11.378-7.685-15.634
		c-12.607-8.052-24.525-12.655-35.554-14.81c2.292-0.704,4.609-1.281,6.947-1.724c33.719-6.396,74.211,14.309,88.65,47.876h1.234
		C178.217,28.81,137.638,0.55,94.419,0.546c-27.15,0.004-53.553,10.762-72.417,32.13C17.49,37.786,9.061,50.72,6.354,61.399
		c-1.156,4.561-1.937,9.828-2.368,13.227c-3.042,9.027-4.577,19.139-3.775,30.522c1.07,15.211,5.399,27.427,14.397,40.891
		c11.842,17.719,36.333,36.762,67.041,40.233c-0.173-0.095-0.338-0.192-0.51-0.287c12.055,1.749,24.372,1.366,30.372,0.493
		c20.406-2.976,46.469-15.54,62.825-38.03c9.84-13.53,13.633-24.535,16.7-41.231C192.557,98.94,192.848,93.545,188.157,90.262z"/>
	<polygon points="407.236,22.012 420.087,22.012 420.087,186.684 443.994,186.684 443.994,0.183 414.26,0.183 	"/>
</g>
</svg>
