<?xml version="1.0" encoding="utf-8"?>
<!-- Generator: Adobe Illustrator 15.1.0, SVG Export Plug-In . SVG Version: 6.00 Build 0)  -->
<!DOCTYPE svg PUBLIC "-//W3C//DTD SVG 1.1//EN" "http://www.w3.org/Graphics/SVG/1.1/DTD/svg11.dtd">
<svg version="1.1" class='svg' id="Layer_1" xmlns="http://www.w3.org/2000/svg" xmlns:xlink="http://www.w3.org/1999/xlink" x="0px" y="0px"
	 width="140px" height="138.583px" viewBox="0 0 140 138.583" enable-background="new 0 0 140 138.583" xml:space="preserve">
<g>
	<path d="M70,17.792c-20.536,0-38.296,12.086-46.56,29.515c-0.12,0.076-0.228,0.174-0.309,0.302
		c-0.132,0.209-0.166,0.446-0.133,0.674C20.117,54.703,18.5,61.81,18.5,69.292c0,11.246,3.56,21.931,10.295,30.898
		c9.834,13.093,24.853,20.602,41.205,20.602c28.396,0,51.5-23.103,51.5-51.5S98.396,17.792,70,17.792z M118.836,61.245h-18.045
		c-2.177,0-3.791-1.025-4.663-2.956c-0.881-2.002-0.575-5.258,0.636-6.827c0.289-0.367,0.572-0.388,1.574-0.311
		c0.531,0.042,1.133,0.089,1.809,0.003l0.176-0.022l0.05-0.025c0.025-0.001,0.056,0,0.085,0h1.11l-0.004-1.515
		c0.251-2.802,1.432-5.197,3.511-7.12c1.357-1.256,2.994-2.107,4.754-2.531C114.386,46.108,117.541,53.366,118.836,61.245z
		 M82.371,41.035c0.165-1.855,0.947-3.442,2.326-4.719c1.314-1.217,3.019-1.888,4.796-1.888c2.229,0,4.31,1.029,5.708,2.823
		l0.583,0.9l0.88-0.406c0.078-0.03,0.158-0.063,0.189-0.08c0.543-0.243,1.091-0.367,1.629-0.367c1.521,0,2.716,0.949,3.197,2.538
		l0.033,0.101c0.018,0.067,0.049,0.172,0.108,0.29l0.277,0.548h0.815c0.316,0.009,0.62,0.059,0.916,0.13
		c-0.037,0.033-0.077,0.064-0.114,0.099c-2.269,2.098-3.62,4.681-4.05,7.743H81.528c-1.372,0-2.39-0.646-2.938-1.856
		c-0.529-1.203-0.394-2.337,0.399-3.363c0.506-0.646,1.203-1.017,2.133-1.135l1.252-0.03L82.371,41.035z M24.558,49.685
		c0.227,0.115,0.46,0.194,0.953,0.357c1.398,0.462,5.111,1.688,18.107,6.857c0.397,0.155,0.851,0.045,1.128-0.278
		c0.278-0.324,0.32-0.79,0.104-1.158l-6.111-10.397l3.807,1.505l14.499,12.698l-3.953-1.206c-0.53-0.164-1.087,0.137-1.249,0.664
		c-0.161,0.528,0.137,1.087,0.665,1.248l8.404,2.563c0.001,0,0.002,0,0.003,0c0.001,0.001,0.003,0.003,0.004,0.003
		c0.13,0.038,13.077,3.884,19.825,6.023c0,0,0,0,0.001,0c11.199,3.547,14.876,5.111,15.987,5.8c2.278,1.41,4.783,4.294,6.238,6.984
		l-6.774-1.709c-0.534-0.132-1.079,0.189-1.214,0.726c-0.135,0.535,0.189,1.079,0.725,1.214l7.641,1.927
		c0.082,0.021,0.164,0.03,0.245,0.03c0.108,0,0.215-0.02,0.315-0.053c0.321,1.017,0.404,1.924,0.149,2.6
		c-0.857,2.271-2.188,2.077-6.675,1.051l-1.082-0.246c-7.979-1.803-28.172-8.631-32.812-10.213l0.198-0.555
		c0.186-0.521-0.084-1.093-0.604-1.278s-1.092,0.086-1.278,0.604l-0.516,1.441c-0.011,0.024-0.031,0.042-0.04,0.067l-0.851,2.411
		l-8.814-2.601l7.204-1.299c0.544-0.099,0.905-0.618,0.807-1.162c-0.098-0.543-0.619-0.904-1.161-0.807l-11.358,2.048
		c-0.001,0-0.001,0.001-0.002,0.001c0,0-0.001,0-0.001,0l-16.757,3.088l-3.753-2.109l12.234-7.256
		c0.331-0.196,0.52-0.565,0.486-0.948c-0.034-0.383-0.285-0.713-0.645-0.849c-0.067-0.025-6.815-2.604-16.787-9.617
		C22.519,55.032,23.425,52.299,24.558,49.685z M70,118.792c-14.365,0-27.646-6.044-37.044-16.689
		c0.166-0.178,0.271-0.412,0.271-0.675l-0.004-0.515c0.25-2.802,1.432-5.197,3.511-7.12c1.986-1.839,4.56-2.852,7.248-2.852
		c3.368,0,6.508,1.553,8.616,4.261c0.026,0.033,0.062,0.073,0.092,0.103c0.041,0.04,0.084,0.077,0.077,0.059
		c0.24,0.479,0.815,0.685,1.304,0.465l0.116-0.047c0.107-0.043,0.218-0.088,0.27-0.115c0.837-0.378,1.691-0.569,2.54-0.569
		c2.411,0,4.301,1.493,5.057,3.993c0.016,0.055,0.018,0.07,0.043,0.121c0.021,0.079,0.055,0.213,0.131,0.365
		c0.169,0.339,0.516,0.553,0.895,0.553h0.3c3.296,0.094,5.765,2.351,6.144,5.627c0.377,3.002-1.642,5.909-4.646,6.632
		c-0.426,0.125-0.866,0.179-1.469,0.179h-8.758c-0.552,0-1,0.447-1,1s0.448,1,1,1h8.758c0.795,0,1.422-0.08,1.985-0.247
		c3.931-0.943,6.617-4.814,6.116-8.804c-0.474-4.096-3.604-7.074-7.701-7.367c-1.089-3.127-3.684-5.052-6.854-5.052
		c-1.013,0-2.023,0.2-3.035,0.608c-2.486-3.032-6.104-4.764-9.979-4.764c-3.193,0-6.25,1.202-8.606,3.384
		c-2.287,2.115-3.642,4.723-4.061,7.819c-0.307-0.385-0.623-0.76-0.92-1.155C23.921,90.37,20.5,80.101,20.5,69.292
		c0-3.185,0.314-6.295,0.891-9.314c6.854,4.755,12.07,7.39,14.685,8.579L24.05,75.689c-0.307,0.183-0.494,0.515-0.49,0.872
		c0.004,0.357,0.199,0.686,0.51,0.86l5.579,3.135c0.204,0.113,0.441,0.152,0.671,0.111l16.878-3.11l13.544,3.996
		c0.036,0.011,0.071,0.004,0.106,0.011c0.059,0.01,0.118,0.03,0.177,0.03c0.019,0,0.036-0.008,0.055-0.009
		c0.042-0.002,0.082-0.011,0.124-0.019c0.073-0.014,0.142-0.033,0.209-0.062c0.039-0.018,0.076-0.034,0.113-0.056
		c0.067-0.039,0.127-0.088,0.184-0.143c0.026-0.025,0.055-0.046,0.078-0.074c0.074-0.088,0.138-0.187,0.179-0.302l0.001-0.004
		l0.005-0.014l0.842-2.354c4.68,1.599,24.851,8.429,33.046,10.28l1.075,0.244c1.739,0.398,3.325,0.762,4.694,0.761
		c1.922,0,3.416-0.716,4.298-3.056c1.532-4.063-3.831-11.454-8.144-14.125c-1.758-1.087-7.287-3.107-16.436-6.005c0,0,0,0-0.001,0
		c-6.292-1.995-17.943-5.465-19.65-5.973L43.733,44.953c-0.086-0.076-0.185-0.136-0.291-0.178l-6.67-2.637
		c-0.398-0.158-0.85-0.045-1.127,0.279s-0.319,0.789-0.103,1.157l6.109,10.395c-10.88-4.295-14.203-5.393-15.513-5.826
		c-0.438-0.145-0.587-0.194-0.752-0.286C33.389,31.266,50.379,19.792,70,19.792c15.532,0,29.409,7.197,38.491,18.424
		c-0.97,0.31-1.898,0.736-2.769,1.271c-0.693-0.365-1.463-0.598-2.283-0.681c-0.834-2.176-2.695-3.508-4.957-3.508
		c-0.67,0-1.342,0.121-2.001,0.361c-1.771-2.06-4.293-3.231-6.988-3.231c-2.282,0-4.469,0.859-6.155,2.421
		c-1.641,1.519-2.617,3.387-2.912,5.631c-1.25,0.25-2.262,0.859-3.014,1.818c-1.243,1.61-1.475,3.527-0.648,5.406
		c0.875,1.934,2.611,3.042,4.765,3.042H94.86c-1.364,2.227-1.649,5.878-0.56,8.356c1.207,2.671,3.512,4.142,6.49,4.142h18.326
		c0.243,1.983,0.383,3.999,0.383,6.047C119.5,96.585,97.295,118.792,70,118.792z"/>
	<circle cx="84.524" cy="76.935" r="1.289"/>
	<circle cx="80.038" cy="75.445" r="1.288"/>
	<circle cx="75.551" cy="73.955" r="1.289"/>
	<circle cx="71.066" cy="72.466" r="1.289"/>
	<path d="M67.529,71.848c0.48-0.527,0.444-1.34-0.082-1.82c-0.524-0.482-1.34-0.446-1.82,0.078c-0.48,0.525-0.444,1.341,0.082,1.821
		C66.233,72.408,67.049,72.372,67.529,71.848z"/>
	<circle cx="62.093" cy="69.487" r="1.289"/>
	<circle cx="57.606" cy="67.998" r="1.289"/>
</g>
</svg>
