<?xml version="1.0" encoding="utf-8"?>
<!-- Generator: Adobe Illustrator 17.0.0, SVG Export Plug-In . SVG Version: 6.00 Build 0)  -->
<!DOCTYPE svg PUBLIC "-//W3C//DTD SVG 1.1//EN" "http://www.w3.org/Graphics/SVG/1.1/DTD/svg11.dtd">
<svg version="1.1" class="svg" id="Layer_1" xmlns="http://www.w3.org/2000/svg" xmlns:xlink="http://www.w3.org/1999/xlink" x="0px" y="0px"
	 width="33.875px" height="27.291px" viewBox="0 0 33.875 27.291" enable-background="new 0 0 33.875 27.291" xml:space="preserve">
<g>
	<path d="M33.48,2.646c0,1.289-1.045,2.333-2.334,2.333H2.729c-1.289,0-2.333-1.044-2.333-2.333l0,0
		c0-1.289,1.046-2.333,2.333-2.333h28.417C32.435,0.312,33.48,1.357,33.48,2.646L33.48,2.646z"/>
	<path d="M33.48,13.646c0,1.29-1.045,2.333-2.334,2.333H2.729c-1.289,0-2.333-1.043-2.333-2.333l0,0
		c0-1.289,1.046-2.333,2.333-2.333h28.417C32.435,11.312,33.48,12.357,33.48,13.646L33.48,13.646z"/>
	<path d="M33.48,24.646c0,1.287-1.045,2.332-2.334,2.332H2.729c-1.289,0-2.333-1.045-2.333-2.332l0,0
		c0-1.289,1.046-2.334,2.333-2.334h28.417C32.435,22.312,33.48,23.357,33.48,24.646L33.48,24.646z"/>
</g>
</svg>
