<?xml version="1.0" encoding="utf-8"?>
<!-- Generator: Adobe Illustrator 17.0.0, SVG Export Plug-In . SVG Version: 6.00 Build 0)  -->
<!DOCTYPE svg PUBLIC "-//W3C//DTD SVG 1.1//EN" "http://www.w3.org/Graphics/SVG/1.1/DTD/svg11.dtd">
<svg version="1.1" class='svg' id="Layer_1" xmlns="http://www.w3.org/2000/svg" xmlns:xlink="http://www.w3.org/1999/xlink" x="0px" y="0px"
	 width="69.667px" height="69.333px" viewBox="35.167 34.125 69.667 69.333" enable-background="new 35.167 34.125 69.667 69.333"
	 xml:space="preserve">
<g>
	<polygon points="38.125,35.802 38.125,37.802 100.875,37.802 100.875,40.552 41.375,40.552 41.375,79.552 43.375,79.552 
		43.375,42.552 102.875,42.552 102.875,35.802 	"/>
	<path d="M39.125,84.302l59.5-0.001v-39h-2v37l-59.5,0.001v6.75l30.773,0l-8.534,8.226c-0.224-0.073-0.459-0.122-0.708-0.122
		c-1.277,0-2.313,1.035-2.313,2.313s1.035,2.313,2.313,2.313s2.313-1.035,2.313-2.313c0-0.287-0.059-0.558-0.154-0.812l8.56-8.252
		v6.987c-0.774,0.374-1.313,1.159-1.313,2.077c0,1.277,1.035,2.313,2.313,2.313s2.313-1.035,2.313-2.313
		c0-0.917-0.538-1.703-1.313-2.077v-6.838l8.525,8.218c-0.07,0.221-0.119,0.452-0.119,0.697c0,1.277,1.035,2.313,2.313,2.313
		s2.313-1.035,2.313-2.313s-1.035-2.313-2.313-2.313c-0.291,0-0.568,0.06-0.824,0.158l-8.572-8.262l29.177,0v-2l-62.75,0.001V84.302
		z"/>
</g>
</svg>
