<?xml version="1.0" encoding="utf-8"?>
<!-- Generator: Adobe Illustrator 17.0.0, SVG Export Plug-In . SVG Version: 6.00 Build 0)  -->
<!DOCTYPE svg PUBLIC "-//W3C//DTD SVG 1.1//EN" "http://www.w3.org/Graphics/SVG/1.1/DTD/svg11.dtd">
<svg version="1.1" class='svg' id="Layer_1" xmlns="http://www.w3.org/2000/svg" xmlns:xlink="http://www.w3.org/1999/xlink" x="0px" y="0px"
	 width="140px" height="138.583px" viewBox="0 0 140 138.583" enable-background="new 0 0 140 138.583" xml:space="preserve">
<g>
	<path fill="#231F20" d="M56.897,43.978c0.379,0,0.698-0.26,0.698-0.618c0-0.35-0.319-0.649-0.698-0.649h-2.704
		c-0.439,0-0.769,0.359-0.769,0.709v5.788c0,0.339,0.31,0.639,0.698,0.639c0.379,0,0.698-0.3,0.698-0.639v-2.346h1.887
		c0.389,0,0.688-0.279,0.688-0.639s-0.34-0.628-0.688-0.628h-1.887v-1.617H56.897z"/>
	<path fill="#231F20" d="M63.512,47.221v-1.976c0-1.417-0.729-2.614-2.595-2.614s-2.595,1.197-2.595,2.614v1.976
		c0,1.457,0.868,2.625,2.595,2.625S63.512,48.678,63.512,47.221z M59.719,47.221v-1.976c0-0.809,0.319-1.348,1.198-1.348
		c0.878,0,1.197,0.539,1.197,1.348v1.976c0,0.799-0.379,1.357-1.197,1.357S59.719,48.02,59.719,47.221z"/>
	<path fill="#231F20" d="M69.555,44.836c0-1.048-0.599-2.115-2.476-2.115h-1.736c-0.409,0-0.758,0.329-0.758,0.718v5.748
		c0,0.359,0.319,0.659,0.688,0.659c0.379,0,0.708-0.31,0.708-0.659v-2.285h0.679l1.677,2.625c0.13,0.199,0.339,0.309,0.589,0.309
		c0.449,0,0.938-0.528,0.608-1.027l-1.367-2.056C69.025,46.473,69.555,45.824,69.555,44.836z M67.1,45.645h-1.118v-1.657h1.059
		c0.908,0,1.117,0.43,1.117,0.849C68.157,45.355,67.788,45.645,67.1,45.645z"/>
	<path fill="#231F20" d="M78.681,44.836c0-1.048-0.599-2.115-2.476-2.115h-1.736c-0.409,0-0.758,0.329-0.758,0.718v5.748
		c0,0.359,0.319,0.659,0.688,0.659c0.379,0,0.708-0.31,0.708-0.659v-2.285h0.679l1.677,2.625c0.13,0.199,0.339,0.309,0.589,0.309
		c0.449,0,0.938-0.528,0.608-1.027l-1.367-2.056C78.151,46.473,78.681,45.824,78.681,44.836z M76.226,45.645h-1.118v-1.657h1.059
		c0.907,0,1.117,0.43,1.117,0.849C77.283,45.355,76.914,45.645,76.226,45.645z"/>
	<path fill="#231F20" d="M83.218,43.988c0.379,0,0.698-0.259,0.698-0.618c0-0.35-0.319-0.648-0.698-0.648h-2.704
		c-0.439,0-0.769,0.358-0.769,0.708v5.618c0,0.539,0.438,0.709,0.928,0.709h2.645c0.379,0,0.698-0.29,0.698-0.648
		c0-0.34-0.329-0.619-0.698-0.619h-2.176v-1.627h1.887c0.389,0,0.688-0.279,0.688-0.639s-0.34-0.628-0.688-0.628h-1.887v-1.607
		H83.218z"/>
	<path fill="#231F20" d="M86.268,49.197v-3.731l2.315,4.031c0.13,0.21,0.409,0.35,0.669,0.35c0.438,0,0.738-0.31,0.738-0.679V43.28
		c0-0.35-0.3-0.648-0.688-0.648c-0.379,0-0.709,0.299-0.709,0.648v3.771c-0.918-1.606-1.427-2.515-2.314-4.051
		c-0.14-0.22-0.409-0.369-0.679-0.369c-0.419,0-0.729,0.289-0.729,0.678v5.888c0,0.35,0.299,0.649,0.688,0.649
		C85.939,49.846,86.268,49.546,86.268,49.197z"/>
	<path fill="#231F20" d="M93.28,49.846c0.379,0,0.698-0.3,0.698-0.639v-5.22h1.059c0.379,0,0.708-0.289,0.708-0.628
		c0-0.359-0.35-0.639-0.708-0.639h-3.513c-0.39,0-0.699,0.358-0.699,0.639c0,0.339,0.3,0.628,0.699,0.628h1.058v5.22
		C92.582,49.546,92.892,49.846,93.28,49.846z"/>
	<path fill="#231F20" d="M45.08,73.557v13.507h-1.275c-0.348,0-0.632,0.283-0.632,0.631v1.179c0,0.349,0.284,0.632,0.632,0.632
		h1.275v1.884c0,0.656,0.542,1.198,1.142,1.198c0.628,0,1.141-0.57,1.141-1.198v-1.884h5.349c0.349,0,0.632-0.283,0.632-0.632
		v-1.179c0-0.349-0.283-0.631-0.632-0.631h-5.349v-2.179h3.282c3.909,0,6.42-2.254,6.42-6.306c0-3.339-1.684-6.392-6.42-6.392
		h-4.195C45.708,72.188,45.08,72.815,45.08,73.557z M47.362,74.413h3.282c3.366,0,4.137,2.083,4.137,4.137
		c0,2.797-1.427,4.109-4.137,4.109h-3.282V74.413z"/>
	<path fill="#231F20" d="M66.096,21.597c-28.398,0-51.5,23.103-51.5,51.5c0,28.397,23.102,51.5,51.5,51.5
		c28.397,0,51.5-23.103,51.5-51.5C117.596,44.7,94.493,21.597,66.096,21.597z M66.096,122.597c-27.294,0-49.5-22.206-49.5-49.5
		c0-27.294,22.206-49.5,49.5-49.5c27.294,0,49.5,22.206,49.5,49.5C115.596,100.392,93.39,122.597,66.096,122.597z"/>
	<path fill="#231F20" d="M65.933,26.719c-18.525,0-35.019,10.837-42.02,27.608c-0.213,0.51,0.028,1.095,0.538,1.308
		c0.504,0.213,1.095-0.027,1.308-0.538c6.688-16.024,22.458-26.378,40.174-26.378c23.912,0,43.365,19.003,43.365,42.362
		c0,0.552,0.447,1,1,1c0.553,0,1-0.448,1-1C111.298,46.62,90.947,26.719,65.933,26.719z"/>
	<path fill="#231F20" d="M107.739,90.559c-0.504-0.212-1.095,0.027-1.308,0.538c-6.688,16.024-22.458,26.378-40.173,26.378
		c-23.912,0-43.366-19.003-43.366-42.362c0-0.552-0.447-1-1-1c-0.553,0-1,0.448-1,1c0,24.461,20.352,44.362,45.366,44.362
		c18.524,0,35.018-10.837,42.018-27.608C108.49,91.358,108.249,90.772,107.739,90.559z"/>
	<path fill="#231F20" d="M46.62,9.286c1.594,0,2.891-1.297,2.891-2.891c0-1.594-1.297-2.891-2.891-2.891
		c-1.595,0-2.892,1.297-2.892,2.891C43.729,7.99,45.025,9.286,46.62,9.286z M46.62,5.504c0.491,0,0.891,0.4,0.891,0.891
		c0,0.491-0.399,0.891-0.891,0.891c-0.491,0-0.892-0.4-0.892-0.891C45.729,5.904,46.129,5.504,46.62,5.504z"/>
	<path fill="#231F20" d="M11.405,115.585c-1.595,0-2.892,1.297-2.892,2.891c0,1.594,1.297,2.892,2.892,2.892
		c1.594,0,2.891-1.297,2.891-2.892C14.296,116.882,12.999,115.585,11.405,115.585z M11.405,119.367c-0.491,0-0.892-0.4-0.892-0.892
		c0-0.491,0.4-0.891,0.892-0.891c0.491,0,0.891,0.399,0.891,0.891C12.296,118.967,11.897,119.367,11.405,119.367z"/>
	<path fill="#231F20" d="M126.581,70.562c-1.595,0-2.892,1.297-2.892,2.891c0,1.594,1.297,2.891,2.892,2.891
		c1.595,0,2.892-1.297,2.892-2.891C129.473,71.859,128.176,70.562,126.581,70.562z M126.581,74.345c-0.491,0-0.892-0.4-0.892-0.891
		c0-0.491,0.4-0.891,0.892-0.891s0.892,0.4,0.892,0.891C127.473,73.945,127.072,74.345,126.581,74.345z"/>
	<path fill="#231F20" d="M18.11,30.61c1.594,0,2.891-1.297,2.891-2.891c0-1.594-1.297-2.891-2.891-2.891
		c-1.595,0-2.892,1.297-2.892,2.891C15.219,29.313,16.516,30.61,18.11,30.61z M18.11,26.828c0.491,0,0.891,0.399,0.891,0.891
		s-0.399,0.891-0.891,0.891s-0.892-0.4-0.892-0.891S17.619,26.828,18.11,26.828z"/>
	<path fill="#231F20" d="M93.481,122.202c-1.595,0-2.892,1.297-2.892,2.891c0,1.594,1.297,2.892,2.892,2.892
		c1.595,0,2.892-1.297,2.892-2.892C96.373,123.499,95.076,122.202,93.481,122.202z M93.481,125.984c-0.491,0-0.892-0.4-0.892-0.892
		c0-0.491,0.4-0.891,0.892-0.891s0.892,0.399,0.892,0.891C94.373,125.584,93.973,125.984,93.481,125.984z"/>
	<circle fill="#231F20" cx="59.203" cy="12.31" r="2.095"/>
	<circle fill="#231F20" cx="33.715" cy="19.87" r="2.095"/>
	<circle fill="#231F20" cx="13.5" cy="46.307" r="2.095"/>
	<circle fill="#231F20" cx="132.486" cy="59.271" r="2.095"/>
	<circle fill="#231F20" cx="116.596" cy="101.008" r="2.095"/>
	<circle fill="#231F20" cx="31.62" cy="123.201" r="2.095"/>
	<circle fill="#231F20" cx="9.514" cy="95.748" r="2.095"/>
	<circle fill="#231F20" cx="118.69" cy="46.307" r="2.095"/>
	<circle fill="#231F20" cx="114.5" cy="126.984" r="2.095"/>
	<path fill="#231F20" d="M84.105,81.775h-6.839c-0.553,0-1,0.448-1,1c0,0.552,0.447,1,1,1h6.839c0.553,0,1-0.448,1-1
		C85.105,82.222,84.658,81.775,84.105,81.775z"/>
	<path fill="#231F20" d="M84.105,76.775h-6.839c-0.553,0-1,0.448-1,1c0,0.552,0.447,1,1,1h6.839c0.553,0,1-0.448,1-1
		C85.105,77.222,84.658,76.775,84.105,76.775z"/>
	<path fill="#231F20" d="M84.105,71.775h-6.839c-0.553,0-1,0.448-1,1c0,0.552,0.447,1,1,1h6.839c0.553,0,1-0.448,1-1
		C85.105,72.222,84.658,71.775,84.105,71.775z"/>
	<path fill="#231F20" d="M84.105,66.775h-6.839c-0.553,0-1,0.448-1,1c0,0.552,0.447,1,1,1h6.839c0.553,0,1-0.448,1-1
		C85.105,67.222,84.658,66.775,84.105,66.775z"/>
	<path fill="#231F20" d="M84.105,61.775h-6.839c-0.553,0-1,0.448-1,1c0,0.552,0.447,1,1,1h6.839c0.553,0,1-0.448,1-1
		C85.105,62.222,84.658,61.775,84.105,61.775z"/>
	<path fill="#231F20" d="M70.623,68.775c0.553,0,1-0.448,1-1c0-0.552-0.447-1-1-1h-6.839c-0.553,0-1,0.448-1,1c0,0.552,0.447,1,1,1
		H70.623z"/>
	<path fill="#231F20" d="M63.784,61.775c-0.553,0-1,0.448-1,1c0,0.552,0.447,1,1,1h6.839c0.553,0,1-0.448,1-1c0-0.552-0.447-1-1-1
		H63.784z"/>
	<path fill="#231F20" d="M49.59,63.533c-10.537,0-19.109,8.572-19.109,19.109c0,10.537,8.572,19.11,19.109,19.11
		c0.11,0,0.217-0.015,0.327-0.017c0.028,0.002,0.053,0.017,0.082,0.017H91.93c0.175,0.291,0.479,0.496,0.844,0.496
		c0.364,0,0.669-0.205,0.844-0.496h0.453c0.553,0,1-0.448,1-1c0-0.552-0.447-1-1-1h-0.297V54.552h0.297c0.553,0,1-0.448,1-1
		c0-0.552-0.447-1-1-1H53.615c-0.553,0-1,0.448-1,1c0,0.552,0.447,1,1,1h0.613v9.574C52.74,63.753,51.192,63.533,49.59,63.533z
		 M77.249,99.593h-6.576V89.036h6.576V99.593z M56.229,54.552h35.545v45.201H79.249V88.036c0-0.552-0.447-1-1-1h-8.576
		c-0.553,0-1,0.448-1,1v11.716H58.049c5.987-2.972,10.191-8.981,10.596-16.006c0.048,0.007,0.09,0.028,0.14,0.028h1.839
		c0.553,0,1-0.448,1-1c0-0.552-0.447-1-1-1h-1.839c-0.045,0-0.083,0.02-0.127,0.025c-0.045-1.029-0.149-2.044-0.352-3.025h2.317
		c0.553,0,1-0.448,1-1c0-0.552-0.447-1-1-1h-2.839c-0.005,0-0.009,0.003-0.014,0.003c-0.338-1.044-0.764-2.046-1.268-3.003h4.12
		c0.553,0,1-0.448,1-1c0-0.552-0.447-1-1-1h-5.334c-2.213-3.185-5.37-5.654-9.061-7.028V54.552z M66.7,82.643
		c0,9.435-7.676,17.11-17.11,17.11c-9.435,0-17.109-7.675-17.109-17.11c0-9.434,7.675-17.109,17.109-17.109
		C59.024,65.533,66.7,73.209,66.7,82.643z"/>
	<path fill="#231F20" d="M89.937,56.799c0-0.552-0.447-1-1-1H58.518c-0.553,0-1,0.448-1,1c0,0.552,0.447,1,1,1h30.419
		C89.489,57.799,89.937,57.351,89.937,56.799z"/>
	<circle fill="#231F20" cx="72.572" cy="94.002" r="0.975"/>
</g>
</svg>
