<?xml version="1.0" encoding="utf-8"?>
<!-- Generator: Adobe Illustrator 17.0.0, SVG Export Plug-In . SVG Version: 6.00 Build 0)  -->
<!DOCTYPE svg PUBLIC "-//W3C//DTD SVG 1.1//EN" "http://www.w3.org/Graphics/SVG/1.1/DTD/svg11.dtd">
<svg version="1.1" class='svg' id="Layer_1" xmlns="http://www.w3.org/2000/svg" xmlns:xlink="http://www.w3.org/1999/xlink" x="0px" y="0px"
	 width="140px" height="138.583px" viewBox="0 0 140 138.583" enable-background="new 0 0 140 138.583" xml:space="preserve">
<g>
	<path fill="#231F20" d="M70,17.792c-28.397,0-51.5,23.103-51.5,51.5c0,28.397,23.103,51.5,51.5,51.5
		c28.397,0,51.5-23.103,51.5-51.5C121.5,40.895,98.397,17.792,70,17.792z M70,118.792c-27.294,0-49.5-22.206-49.5-49.5
		c0-27.294,22.206-49.5,49.5-49.5c27.294,0,49.5,22.206,49.5,49.5C119.5,96.586,97.294,118.792,70,118.792z"/>
	<path fill="#231F20" d="M14.184,22.961c0.552,0,1-0.448,1-1v-6.637h6.748c0.552,0,1-0.448,1-1c0-0.552-0.448-1-1-1h-7.748
		c-0.552,0-1,0.448-1,1v7.637C13.184,22.513,13.631,22.961,14.184,22.961z"/>
	<path fill="#231F20" d="M21.875,123.259h-6.637v-6.748c0-0.552-0.448-1-1-1s-1,0.448-1,1v7.748c0,0.552,0.448,1,1,1h7.637
		c0.552,0,1-0.448,1-1S22.427,123.259,21.875,123.259z"/>
	<path fill="#231F20" d="M125.816,13.324h-7.748c-0.552,0-1,0.448-1,1c0,0.552,0.448,1,1,1h6.748v6.637c0,0.552,0.448,1,1,1
		c0.552,0,1-0.448,1-1v-7.637C126.816,13.772,126.369,13.324,125.816,13.324z"/>
	<path fill="#231F20" d="M125.761,115.511c-0.552,0-1,0.448-1,1v6.748h-6.637c-0.552,0-1,0.448-1,1s0.448,1,1,1h7.637
		c0.552,0,1-0.448,1-1v-7.748C126.761,115.959,126.313,115.511,125.761,115.511z"/>
	<path fill="#231F20" d="M60.021,64.511c-0.51-0.191-1.075,0.066-1.275,0.575c-0.199,0.509,0.054,1.086,0.56,1.293
		c0.071,0.029,7.173,3.159,7.173,22.904c0,0.552,0.448,1,1,1c0.552,0,1-0.448,1-1C68.479,67.929,60.366,64.641,60.021,64.511z"/>
	<path fill="#231F20" d="M72.522,90.283c0.552,0,1-0.448,1-1c0-19.663,7.043-22.848,7.173-22.903
		c0.509-0.198,0.766-0.77,0.573-1.283c-0.194-0.517-0.77-0.777-1.288-0.586c-0.345,0.13-8.458,3.418-8.458,24.771
		C71.522,89.835,71.97,90.283,72.522,90.283z"/>
	<path fill="#231F20" d="M74.571,61.121c-0.196-0.196-0.465-0.306-0.741-0.293c-0.277,0.01-0.538,0.134-0.72,0.342L70,64.739
		l-3.11-3.569c-0.182-0.209-0.443-0.333-0.72-0.342c-0.281-0.014-0.545,0.096-0.741,0.293l-2.563,2.563
		c-0.391,0.391-0.391,1.023,0,1.414c0.391,0.391,1.023,0.391,1.414,0l1.805-1.805l3.161,3.626c0.19,0.218,0.465,0.343,0.754,0.343
		c0.289,0,0.564-0.125,0.754-0.343l3.16-3.626l1.805,1.805c0.391,0.391,1.023,0.391,1.414,0c0.391-0.391,0.391-1.023,0-1.414
		L74.571,61.121z"/>
	<path fill="#231F20" d="M78.243,40.988c0.13,0.057,0.266,0.083,0.399,0.083c0.386,0,0.754-0.225,0.918-0.601l3.378-7.756
		c0.22-0.506-0.011-1.096-0.517-1.316c-0.506-0.22-1.096,0.011-1.316,0.517l-3.379,7.756C77.505,40.178,77.736,40.767,78.243,40.988
		z"/>
	<path fill="#231F20" d="M87.027,44.865c0.25,0,0.5-0.093,0.693-0.279l6.096-5.867c0.398-0.383,0.41-1.016,0.027-1.414
		c-0.384-0.398-1.016-0.409-1.414-0.027l-6.096,5.867c-0.398,0.383-0.41,1.016-0.027,1.414
		C86.504,44.762,86.765,44.865,87.027,44.865z"/>
	<path fill="#231F20" d="M92.296,51.89c0.181,0.333,0.525,0.522,0.879,0.522c0.161,0,0.325-0.039,0.477-0.122l7.433-4.042
		c0.485-0.264,0.665-0.871,0.401-1.356c-0.264-0.485-0.871-0.665-1.356-0.401l-7.433,4.042
		C92.211,50.798,92.032,51.405,92.296,51.89z"/>
	<path fill="#231F20" d="M95.377,59.989c0.002,0.551,0.449,0.997,1,0.997c0.001,0,0.002,0,0.002,0l8.462-0.02
		c0.552-0.001,0.999-0.45,0.997-1.002c-0.001-0.551-0.449-0.998-1-0.998c-0.001,0-0.001,0-0.002,0l-8.461,0.02
		C95.822,58.988,95.375,59.437,95.377,59.989z"/>
	<path fill="#231F20" d="M104.948,70.333l-8.326-1.51c-0.544-0.102-1.064,0.262-1.162,0.806c-0.099,0.543,0.262,1.063,0.806,1.162
		l8.326,1.51c0.06,0.011,0.12,0.016,0.179,0.016c0.474,0,0.896-0.338,0.983-0.822C105.853,70.952,105.492,70.432,104.948,70.333z"/>
	<path fill="#231F20" d="M93.952,77.745c-0.458-0.31-1.079-0.19-1.389,0.266c-0.31,0.458-0.191,1.079,0.266,1.389l7.001,4.748
		c0.172,0.117,0.367,0.172,0.561,0.172c0.32,0,0.635-0.154,0.829-0.439c0.31-0.457,0.191-1.079-0.266-1.389L93.952,77.745z"/>
	<path fill="#231F20" d="M60.441,40.47c0.164,0.377,0.532,0.601,0.917,0.601c0.133,0,0.269-0.027,0.399-0.083
		c0.506-0.221,0.738-0.81,0.518-1.316l-3.378-7.756c-0.221-0.507-0.81-0.738-1.316-0.517c-0.506,0.221-0.738,0.81-0.518,1.316
		L60.441,40.47z"/>
	<path fill="#231F20" d="M52.28,44.586c0.194,0.186,0.444,0.279,0.693,0.279c0.262,0,0.524-0.103,0.721-0.307
		c0.383-0.398,0.371-1.031-0.027-1.414l-6.096-5.867c-0.397-0.382-1.031-0.371-1.414,0.027c-0.383,0.398-0.371,1.031,0.027,1.414
		L52.28,44.586z"/>
	<path fill="#231F20" d="M38.916,48.249l7.433,4.042c0.151,0.083,0.315,0.122,0.477,0.122c0.354,0,0.698-0.189,0.879-0.522
		c0.264-0.485,0.084-1.092-0.401-1.356l-7.433-4.042c-0.484-0.264-1.092-0.085-1.356,0.401
		C38.251,47.378,38.431,47.985,38.916,48.249z"/>
	<path fill="#231F20" d="M35.16,60.966l8.461,0.02c0.001,0,0.002,0,0.003,0c0.551,0,0.999-0.446,1-0.997
		c0.001-0.552-0.445-1.001-0.998-1.003l-8.461-0.02c-0.001,0-0.002,0-0.003,0c-0.551,0-0.998,0.446-1,0.998
		C34.161,60.516,34.608,60.965,35.16,60.966z"/>
	<path fill="#231F20" d="M44.54,69.629c-0.099-0.544-0.62-0.907-1.162-0.806l-8.325,1.51c-0.543,0.099-0.904,0.619-0.806,1.162
		c0.087,0.483,0.508,0.822,0.983,0.822c0.059,0,0.119-0.005,0.179-0.016l8.325-1.51C44.278,70.692,44.639,70.172,44.54,69.629z"/>
	<path fill="#231F20" d="M46.049,77.745l-7.001,4.748c-0.457,0.31-0.576,0.932-0.266,1.389c0.193,0.285,0.508,0.439,0.829,0.439
		c0.193,0,0.388-0.056,0.56-0.172l7.001-4.748c0.457-0.31,0.576-0.932,0.266-1.389C47.129,77.555,46.506,77.435,46.049,77.745z"/>
	<path fill="#231F20" d="M70,38.998c0.552,0,1-0.448,1-1V29.98c0-0.552-0.448-1-1-1c-0.552,0-1,0.448-1,1v8.018
		C69,38.55,69.448,38.998,70,38.998z"/>
	<path fill="#231F20" d="M77.9,99.035c-0.057-0.01-0.114-0.015-0.171-0.015H63.086c-0.688,0-0.915-0.258-1.025-0.452
		c-0.16-0.28-0.161-0.599-0.161-0.622c0,0-0.01-3.541-0.01-7.606c0-2.695-2.713-5.707-5.586-8.894l-0.712-0.792
		c-0.369-0.411-1.001-0.447-1.412-0.078c-0.412,0.369-0.446,1.001-0.078,1.412l0.717,0.797c2.493,2.767,5.071,5.628,5.071,7.555
		c0,4.05,0.01,7.58,0.01,7.58c-0.004,0.133-0.014,1.319,0.85,2.209c0.395,0.407,1.121,0.892,2.336,0.892h14.536
		c0.271,0.067,0.977,0.312,0.977,1.034c0,1.097-0.222,1.318-1.318,1.318H66.258c-0.066,0-0.133,0.007-0.198,0.02
		c-0.833,0.169-2.408,0.926-2.408,2.586c0,1.756,1.27,3.623,3.623,3.623h4.19c0.552,0,1-0.448,1-1s-0.448-1-1-1h-4.19
		c-1.282,0-1.623-1.02-1.623-1.623c0-0.351,0.538-0.547,0.734-0.606h10.895c2.202,0,3.318-1.116,3.318-3.318
		C80.599,100.037,78.833,99.197,77.9,99.035z"/>
	<path fill="#231F20" d="M70.118,43.314c-12.463,0-22.603,10.14-22.603,22.603c0,4.916,1.551,9.59,4.485,13.518
		c0.331,0.442,0.958,0.532,1.4,0.203c0.442-0.331,0.533-0.958,0.203-1.4c-2.674-3.579-4.088-7.839-4.088-12.32
		c0-11.36,9.243-20.603,20.603-20.603s20.603,9.243,20.603,20.603c0,5.463-2.117,10.61-5.971,14.504
		c-1.108,1.157-6.639,7.073-6.639,9.917v3.498c0,0.001-0.021,0.107-0.03,0.125c0,0-0.03,0.013-0.109,0.013H65.526
		c-0.552,0-1,0.448-1,1c0,0.552,0.448,1,1,1h12.446c1.39,0,2.139-1.102,2.139-2.139v-3.498c0-1.505,3.557-5.896,6.072-8.522
		c4.216-4.26,6.538-9.906,6.538-15.9C92.721,53.454,82.582,43.314,70.118,43.314z"/>
</g>
</svg>
