<?xml version="1.0" encoding="utf-8"?>
<!-- Generator: Adobe Illustrator 15.1.0, SVG Export Plug-In . SVG Version: 6.00 Build 0)  -->
<!DOCTYPE svg PUBLIC "-//W3C//DTD SVG 1.1//EN" "http://www.w3.org/Graphics/SVG/1.1/DTD/svg11.dtd">
<svg class="svg" version="1.1" id="Layer_1" xmlns="http://www.w3.org/2000/svg" xmlns:xlink="http://www.w3.org/1999/xlink" x="0px" y="0px"
	 width="21.499px" height="21.499px" viewBox="0 0 21.499 21.499" enable-background="new 0 0 21.499 21.499" xml:space="preserve">
<g>
	<path d="M13.603,14.893c-0.818,0.563-1.807,0.896-2.873,0.896c-2.803,0-5.083-2.28-5.083-5.083s2.28-5.083,5.083-5.083
		c2.803,0,5.083,2.28,5.083,5.083c0,1.195-0.432,2.281-1.125,3.15l4.059,4.058c1.706-1.903,2.752-4.409,2.752-7.165
		C21.499,4.813,16.686,0,10.75,0C4.813,0,0,4.813,0,10.75c0,5.937,4.813,10.749,10.75,10.749c2.64,0,5.055-0.955,6.926-2.535
		L13.603,14.893z"/>
	<path d="M7.146,10.707c0,1.976,1.607,3.583,3.583,3.583c1.976,0,3.583-1.607,3.583-3.583s-1.607-3.583-3.583-3.583
		C8.754,7.124,7.146,8.731,7.146,10.707z"/>
</g>
</svg>
