<?xml version="1.0" encoding="utf-8"?>
<!-- Generator: Adobe Illustrator 17.0.0, SVG Export Plug-In . SVG Version: 6.00 Build 0)  -->
<!DOCTYPE svg PUBLIC "-//W3C//DTD SVG 1.1//EN" "http://www.w3.org/Graphics/SVG/1.1/DTD/svg11.dtd">
<svg version="1.1" id="Layer_1" xmlns="http://www.w3.org/2000/svg" xmlns:xlink="http://www.w3.org/1999/xlink" x="0px" y="0px"
	 width="140px" height="138.583px" viewBox="0 0 140 138.583" enable-background="new 0 0 140 138.583" xml:space="preserve">
<g>
	<path fill="#231F20" d="M70,17.791c-28.397,0-51.5,23.103-51.5,51.5s23.103,51.5,51.5,51.5s51.5-23.103,51.5-51.5
		S98.397,17.791,70,17.791z M70,118.792c-27.294,0-49.5-22.206-49.5-49.5c0-27.295,22.206-49.5,49.5-49.5s49.5,22.206,49.5,49.5
		C119.5,96.586,97.294,118.792,70,118.792z"/>
	<path fill="#231F20" d="M14.184,22.96c0.552,0,1-0.448,1-1v-6.637h6.748c0.552,0,1-0.448,1-1s-0.448-1-1-1h-7.748
		c-0.552,0-1,0.448-1,1v7.637C13.184,22.512,13.631,22.96,14.184,22.96z"/>
	<path fill="#231F20" d="M21.875,123.26h-6.637v-6.749c0-0.553-0.448-1-1-1s-1,0.447-1,1v7.749c0,0.553,0.448,1,1,1h7.637
		c0.552,0,1-0.447,1-1S22.427,123.26,21.875,123.26z"/>
	<path fill="#231F20" d="M125.816,13.323h-7.748c-0.552,0-1,0.448-1,1s0.448,1,1,1h6.748v6.637c0,0.552,0.448,1,1,1s1-0.448,1-1
		v-7.637C126.816,13.771,126.369,13.323,125.816,13.323z"/>
	<path fill="#231F20" d="M125.762,115.51c-0.552,0-1,0.447-1,1v6.749h-6.637c-0.552,0-1,0.447-1,1s0.448,1,1,1h7.637
		c0.552,0,1-0.447,1-1v-7.749C126.762,115.958,126.314,115.51,125.762,115.51z"/>
	<path fill="#231F20" d="M97.156,63.127c-1.913,0-3.469,1.557-3.469,3.47c0,1.912,1.556,3.468,3.469,3.468s3.469-1.556,3.469-3.468
		C100.625,64.683,99.069,63.127,97.156,63.127z M97.156,68.064c-0.81,0-1.469-0.658-1.469-1.468c0-0.811,0.659-1.47,1.469-1.47
		s1.469,0.659,1.469,1.47C98.625,67.406,97.966,68.064,97.156,68.064z"/>
	<path fill="#231F20" d="M97.379,59.138c-0.249,0-0.494,0.013-0.736,0.038c-0.603-0.457-2.242-1.533-4.663-1.84
		c-0.467-3.754-3.472-18.21-21.979-18.21c-18.505,0-21.51,14.456-21.977,18.21c-2.421,0.307-4.061,1.384-4.664,1.841
		c-0.243-0.025-0.489-0.039-0.738-0.039c-3.929,0-7.125,3.196-7.125,7.125c0,3.129,2.08,5.9,5.026,6.811l6.393,22.514
		c0.122,0.43,0.515,0.727,0.962,0.727h3.854c0.013,0.105,0.011,0.211,0.032,0.314c0.052,0.249,0.126,0.486,0.219,0.703
		c0.095,0.224,0.211,0.438,0.342,0.631c0.13,0.194,0.285,0.383,0.464,0.562c0.168,0.167,0.351,0.318,0.552,0.455
		c0.198,0.134,0.41,0.249,0.645,0.35c0.203,0.084,0.821,0.125,1.441,0.125c0.63,0,1.263-0.043,1.47-0.129
		c0.226-0.096,0.442-0.213,0.639-0.348s0.381-0.286,0.553-0.456c0.168-0.168,0.321-0.354,0.463-0.562
		c0.131-0.197,0.246-0.406,0.343-0.635c0.094-0.226,0.167-0.46,0.219-0.708c0.02-0.101,0.018-0.202,0.03-0.303H80.86
		c0.013,0.105,0.011,0.211,0.032,0.314c0.052,0.249,0.126,0.486,0.219,0.703c0.095,0.224,0.211,0.438,0.342,0.631
		c0.13,0.194,0.285,0.383,0.464,0.562c0.168,0.167,0.351,0.318,0.552,0.455c0.198,0.134,0.41,0.249,0.645,0.35
		c0.203,0.084,0.821,0.125,1.441,0.125c0.63,0,1.263-0.043,1.47-0.129c0.226-0.096,0.442-0.213,0.639-0.348s0.381-0.286,0.553-0.456
		c0.168-0.168,0.321-0.354,0.463-0.562c0.131-0.197,0.246-0.406,0.343-0.635c0.094-0.226,0.167-0.46,0.219-0.708
		c0.02-0.101,0.018-0.202,0.03-0.303h3.854c0.447,0,0.84-0.297,0.962-0.727l6.391-22.514c2.946-0.91,5.026-3.682,5.026-6.811
		C104.504,62.335,101.308,59.138,97.379,59.138z M82.471,73.468C78.174,71.86,73.986,71.04,70,71.04
		c-3.983,0-8.171,0.82-12.469,2.428c0.175-6.364-1.151-11.352-3.772-14.103c-0.099-0.104-0.202-0.197-0.304-0.294
		C53.798,56.582,56.1,45.564,70,45.564c13.858,0,16.195,11.018,16.545,13.507c-0.102,0.096-0.204,0.189-0.303,0.292
		C83.622,62.116,82.296,67.104,82.471,73.468z M56.742,75.924c4.6-1.913,9.06-2.884,13.258-2.884c4.201,0,8.661,0.971,13.258,2.884
		c1.423,0.593,2.652,1.194,3.636,1.715C82.272,78.151,73.547,79.064,70,79.064c-3.547,0-12.273-0.913-16.894-1.426
		C54.088,77.119,55.315,76.518,56.742,75.924z M70,81.064c4.232,0,15.188-1.213,18.893-1.637l-0.931,10.137H52.04l-0.931-10.137
		C54.814,79.851,65.768,81.064,70,81.064z M90.254,66.21l-1.083,10.403c-1.049-0.607-2.651-1.46-4.675-2.33
		c0-0.006,0.003-0.011,0.003-0.017c-0.41-8.42,1.824-12.086,3.191-13.522c0.916-0.962,1.98-1.491,2.997-1.491
		c1.379,0,2.513,0.348,3.35,0.722C91.804,61.165,90.274,63.51,90.254,66.21z M70,41.127c16.743,0,19.521,12.513,19.976,16.182
		c-0.557,0.08-1.109,0.247-1.644,0.505c-0.869-4.005-4.45-14.25-18.332-14.25c-13.88,0-17.461,10.245-18.33,14.25
		c-0.535-0.258-1.087-0.426-1.644-0.505C50.481,53.639,53.259,41.127,70,41.127z M49.314,59.252c1.017,0,2.081,0.529,2.997,1.491
		c1.368,1.437,3.601,5.103,3.191,13.522c0,0.006,0.003,0.011,0.003,0.016c-2.024,0.87-3.626,1.723-4.675,2.33L49.746,66.21
		c-0.02-2.702-1.553-5.049-3.79-6.239C46.788,59.598,47.92,59.252,49.314,59.252z M57.051,96.549
		c-0.046,0.108-0.104,0.21-0.161,0.297c-0.064,0.095-0.135,0.182-0.213,0.259c-0.082,0.081-0.171,0.154-0.268,0.22
		c-0.062,0.042-0.126,0.08-0.192,0.113c-0.33,0.023-1.229,0.023-1.561,0c-0.068-0.035-0.134-0.073-0.195-0.114
		c-0.096-0.064-0.183-0.138-0.262-0.216c-0.078-0.078-0.15-0.162-0.214-0.259c-0.064-0.095-0.118-0.194-0.164-0.302
		c-0.032-0.075-0.051-0.154-0.071-0.232h3.373C57.101,96.395,57.08,96.477,57.051,96.549z M86.18,96.549
		c-0.046,0.108-0.104,0.21-0.161,0.297c-0.064,0.095-0.135,0.182-0.213,0.259c-0.082,0.081-0.171,0.154-0.268,0.22
		c-0.062,0.042-0.126,0.08-0.192,0.113c-0.33,0.023-1.229,0.023-1.561,0c-0.068-0.035-0.134-0.073-0.195-0.114
		c-0.096-0.064-0.183-0.138-0.262-0.216c-0.078-0.078-0.15-0.162-0.214-0.259c-0.064-0.095-0.118-0.194-0.164-0.302
		c-0.032-0.075-0.051-0.154-0.071-0.232h3.373C86.23,96.395,86.209,96.477,86.18,96.549z M98.462,71.274
		c-0.362,0.077-0.651,0.349-0.752,0.704l-6.341,22.336H48.632L42.29,71.978c-0.101-0.355-0.39-0.627-0.752-0.704
		c-2.342-0.504-4.042-2.611-4.042-5.011c0-2.826,2.299-5.125,5.125-5.125s5.125,2.299,5.125,5.125c0,0.034,0.002,0.069,0.005,0.104
		l1.254,12.028c0,0,0,0,0,0.001l1.126,12.26c0.047,0.515,0.479,0.908,0.996,0.908h37.748c0.517,0,0.949-0.394,0.996-0.908
		l1.126-12.26c0,0,0,0,0-0.001l1.252-12.028c0.003-0.034,0.005-0.069,0.005-0.104c0-2.826,2.299-5.125,5.125-5.125
		s5.125,2.299,5.125,5.125C102.504,68.663,100.804,70.77,98.462,71.274z"/>
	<path fill="#231F20" d="M42.846,63.127c-1.913,0-3.469,1.557-3.469,3.47c0,1.912,1.556,3.468,3.469,3.468s3.469-1.556,3.469-3.468
		C46.314,64.683,44.758,63.127,42.846,63.127z M42.846,68.064c-0.81,0-1.469-0.658-1.469-1.468c0-0.811,0.659-1.47,1.469-1.47
		s1.469,0.659,1.469,1.47C44.314,67.406,43.656,68.064,42.846,68.064z"/>
</g>
</svg>
