<?xml version="1.0" encoding="utf-8"?>
<!-- Generator: Adobe Illustrator 15.1.0, SVG Export Plug-In . SVG Version: 6.00 Build 0)  -->
<!DOCTYPE svg PUBLIC "-//W3C//DTD SVG 1.1//EN" "http://www.w3.org/Graphics/SVG/1.1/DTD/svg11.dtd">
<svg version="1.1" class='svg' id="Layer_1" xmlns="http://www.w3.org/2000/svg" xmlns:xlink="http://www.w3.org/1999/xlink" x="0px" y="0px"
	 width="28.35px" height="28.35px" viewBox="0 0 28.35 28.35" enable-background="new 0 0 28.35 28.35" xml:space="preserve">
<path fill="#010202" d="M15.908,27.592h-3.041c-0.432,0-0.815-0.277-0.95-0.688L11.42,25.39l-1.286,1.15
	c-0.323,0.288-0.795,0.337-1.167,0.121l-2.634-1.521c-0.374-0.216-0.567-0.647-0.479-1.071l0.326-1.559l-1.688,0.352
	c-0.425,0.09-0.854-0.105-1.07-0.479L1.901,19.75c-0.216-0.374-0.167-0.845,0.121-1.167l1.062-1.187l-1.639-0.538
	c-0.41-0.135-0.688-0.519-0.688-0.95v-3.041c0-0.432,0.277-0.815,0.688-0.95L2.96,11.42l-1.15-1.286
	C1.521,9.812,1.473,9.341,1.688,8.967l1.521-2.634C3.424,5.96,3.854,5.763,4.28,5.854l1.559,0.326L5.487,4.492
	c-0.089-0.423,0.104-0.854,0.479-1.07L8.6,1.901c0.373-0.214,0.844-0.166,1.167,0.121l1.187,1.062l0.538-1.639
	c0.135-0.41,0.519-0.688,0.95-0.688h3.041c0.432,0,0.815,0.277,0.95,0.688L16.93,2.96l1.286-1.15
	c0.323-0.287,0.795-0.336,1.167-0.121l2.634,1.521c0.374,0.216,0.567,0.648,0.479,1.071l-0.326,1.559l1.688-0.352
	c0.427-0.093,0.854,0.105,1.07,0.479L26.448,8.6c0.216,0.374,0.167,0.845-0.121,1.167l-1.063,1.187l1.64,0.538
	c0.41,0.135,0.688,0.519,0.688,0.95v3.041c0,0.432-0.277,0.815-0.688,0.95l-1.514,0.497l1.15,1.286
	c0.288,0.322,0.337,0.794,0.12,1.168l-1.521,2.633c-0.215,0.373-0.646,0.571-1.071,0.479l-1.559-0.326l0.352,1.688
	c0.089,0.423-0.104,0.854-0.479,1.07l-2.634,1.521c-0.371,0.216-0.843,0.168-1.167-0.121l-1.187-1.063l-0.538,1.64
	C16.724,27.314,16.34,27.592,15.908,27.592z M13.591,25.592h1.594l0.594-1.809c0.053-0.393,0.328-0.726,0.724-0.829
	c0.001,0,0.119-0.03,0.121-0.031c0.106-0.027,0.214-0.054,0.319-0.087c0.338-0.108,0.706-0.029,0.971,0.207l1.464,1.311l1.38-0.796
	L20.349,21.6c-0.102-0.341-0.017-0.721,0.247-0.986c0.063-0.064,0.122-0.132,0.182-0.199l0.108-0.122
	c0.237-0.264,0.599-0.384,0.947-0.309l1.938,0.406l0.797-1.38l-1.272-1.422c-0.312-0.241-0.46-0.644-0.354-1.036
	c0.058-0.211,0.09-0.326,0.115-0.442c0.075-0.346,0.328-0.626,0.664-0.736l1.871-0.614v-1.594l-1.807-0.593
	c-0.396-0.053-0.73-0.33-0.832-0.73c-0.052-0.203-0.079-0.316-0.115-0.427c-0.111-0.34-0.033-0.713,0.205-0.979l1.311-1.464
	l-0.796-1.38L21.57,8.007c-0.335,0.088-0.701-0.001-0.959-0.256c-0.065-0.065-0.135-0.125-0.204-0.187l-0.113-0.101
	c-0.265-0.238-0.383-0.6-0.31-0.948l0.405-1.937l-1.38-0.796L17.583,5.06c-0.245,0.31-0.651,0.457-1.044,0.345
	c-0.144-0.04-0.286-0.08-0.431-0.112c-0.346-0.076-0.625-0.328-0.735-0.664l-0.614-1.87h-1.594l-0.596,1.814
	c-0.055,0.39-0.329,0.719-0.724,0.822c-0.001,0-0.114,0.029-0.116,0.029c-0.111,0.029-0.223,0.058-0.332,0.091
	c-0.335,0.104-0.699,0.024-0.962-0.21L8.973,3.996l-1.38,0.796l0.425,2.039c0.068,0.327-0.031,0.667-0.266,0.905
	C7.689,7.801,7.63,7.869,7.569,7.938L7.464,8.056c-0.238,0.265-0.6,0.385-0.948,0.31L4.579,7.96L3.783,9.34l1.276,1.427
	c0.311,0.245,0.456,0.651,0.345,1.044c-0.04,0.144-0.08,0.286-0.112,0.431c-0.076,0.346-0.328,0.625-0.664,0.735l-1.87,0.614v1.594
	l1.814,0.596c0.39,0.055,0.719,0.329,0.822,0.724c0,0.001,0.027,0.107,0.027,0.108c0.029,0.112,0.058,0.225,0.093,0.334
	c0.105,0.337,0.026,0.705-0.209,0.968l-1.31,1.463l0.796,1.38l1.987-0.414c0.334-0.091,0.7,0,0.959,0.256
	c0.068,0.067,0.141,0.13,0.212,0.193l0.103,0.09c0.267,0.238,0.386,0.601,0.313,0.951L7.96,23.771l1.38,0.796l1.422-1.271
	c0.242-0.31,0.645-0.461,1.036-0.354c0.211,0.058,0.326,0.09,0.442,0.115c0.346,0.075,0.626,0.328,0.736,0.664L13.591,25.592z
	 M14.175,9.952c2.332,0,4.223,1.891,4.223,4.223s-1.891,4.223-4.223,4.223s-4.223-1.891-4.223-4.223S11.843,9.952,14.175,9.952
	 M14.175,7.952c-3.432,0-6.223,2.791-6.223,6.223s2.791,6.223,6.223,6.223s6.223-2.791,6.223-6.223S17.606,7.952,14.175,7.952
	L14.175,7.952z"/>
</svg>
