<?xml version="1.0" encoding="utf-8"?>
<!-- Generator: Adobe Illustrator 17.0.0, SVG Export Plug-In . SVG Version: 6.00 Build 0)  -->
<!DOCTYPE svg PUBLIC "-//W3C//DTD SVG 1.1//EN" "http://www.w3.org/Graphics/SVG/1.1/DTD/svg11.dtd">
<svg version="1.1" class='svg' id="Layer_1" xmlns="http://www.w3.org/2000/svg" xmlns:xlink="http://www.w3.org/1999/xlink" x="0px" y="0px"
	 width="140px" height="138.583px" viewBox="0 0 140 138.583" enable-background="new 0 0 140 138.583" xml:space="preserve">
<g>
	<path fill="#231F20" d="M70,17.792c-28.397,0-51.5,23.103-51.5,51.5s23.103,51.5,51.5,51.5c28.397,0,51.5-23.103,51.5-51.5
		S98.397,17.792,70,17.792z M70,118.792c-27.294,0-49.5-22.206-49.5-49.5s22.206-49.5,49.5-49.5c27.294,0,49.5,22.206,49.5,49.5
		S97.294,118.792,70,118.792z"/>
	<path fill="#231F20" d="M93.718,67.956h-7.375c-0.552,0-1,0.447-1,1c0,0.553,0.448,1,1,1h7.375c0.552,0,1-0.447,1-1
		C94.718,68.403,94.271,67.956,93.718,67.956z"/>
	<path fill="#231F20" d="M93.718,78.549h-9.922c-0.552,0-1,0.447-1,1c0,0.553,0.448,1,1,1h9.922c0.552,0,1-0.447,1-1
		C94.718,78.997,94.271,78.549,93.718,78.549z"/>
	<path fill="#231F20" d="M96.415,54.547h-39.69c-3.509,0-6.363,2.854-6.363,6.363v20.918c0,3.509,2.854,6.363,6.363,6.363h21.686
		l11.547,7.742c0.168,0.112,0.362,0.169,0.557,0.169c0.195,0,0.391-0.058,0.56-0.172c0.337-0.228,0.502-0.637,0.418-1.035
		l-1.42-6.704h6.409c3.472,0,6.297-2.854,6.297-6.363V60.911C102.779,57.402,99.924,54.547,96.415,54.547z M100.779,81.829
		c0,2.406-1.928,4.363-4.297,4.363h-7.643c-0.302,0-0.587,0.136-0.777,0.37c-0.19,0.234-0.264,0.542-0.202,0.837l1.165,5.502
		l-9.754-6.54c-0.164-0.11-0.358-0.169-0.557-0.169h-21.99c-2.406,0-4.363-1.957-4.363-4.363V60.911
		c0-2.406,1.958-4.363,4.363-4.363h39.69c2.406,0,4.363,1.957,4.363,4.363V81.829z"/>
	<path fill="#231F20" d="M47.071,71.657h-3.904c-2.175,0-3.945-1.769-3.945-3.945V48.424c0-2.176,1.77-3.945,3.945-3.945h33.376
		c2.177,0,3.947,1.77,3.947,3.945v3.101c0,0.553,0.448,1,1,1c0.552,0,1-0.447,1-1v-3.101c0-3.278-2.668-5.945-5.947-5.945H43.167
		c-3.278,0-5.945,2.667-5.945,5.945v19.287c0,3.278,2.667,5.945,5.945,5.945h2.904v6.563c0,0.553,0.448,1,1,1c0.552,0,1-0.447,1-1
		v-7.563C48.071,72.104,47.623,71.657,47.071,71.657z"/>
	<path fill="#231F20" d="M59.273,69.956h23.6c0.552,0,1-0.447,1-1c0-0.553-0.448-1-1-1h-23.6c-0.552,0-1,0.447-1,1
		C58.273,69.508,58.721,69.956,59.273,69.956z"/>
	<path fill="#231F20" d="M59.273,75.185h15.42c0.552,0,1-0.447,1-1c0-0.553-0.448-1-1-1h-15.42c-0.552,0-1,0.447-1,1
		C58.273,74.738,58.721,75.185,59.273,75.185z"/>
	<path fill="#231F20" d="M78.118,74.185c0,0.553,0.448,1,1,1h13.945c0.552,0,1-0.447,1-1c0-0.553-0.448-1-1-1H79.118
		C78.565,73.185,78.118,73.632,78.118,74.185z"/>
	<path fill="#231F20" d="M79.52,78.549H59.273c-0.552,0-1,0.447-1,1c0,0.553,0.448,1,1,1H79.52c0.552,0,1-0.447,1-1
		C80.52,78.997,80.072,78.549,79.52,78.549z"/>
	<path fill="#231F20" d="M59.273,64.726h2.548c0.552,0,1-0.447,1-1c0-0.553-0.448-1-1-1h-2.548c-0.552,0-1,0.447-1,1
		C58.273,64.279,58.721,64.726,59.273,64.726z"/>
	<path fill="#231F20" d="M65.038,64.726h2.95c0.552,0,1-0.447,1-1c0-0.553-0.448-1-1-1h-2.95c-0.552,0-1,0.447-1,1
		C64.038,64.279,64.486,64.726,65.038,64.726z"/>
	<path fill="#231F20" d="M71.929,64.726h4.641c0.552,0,1-0.447,1-1c0-0.553-0.448-1-1-1h-4.641c-0.552,0-1,0.447-1,1
		C70.929,64.279,71.377,64.726,71.929,64.726z"/>
	<path fill="#231F20" d="M79.52,64.726h2.548c0.552,0,1-0.447,1-1c0-0.553-0.448-1-1-1H79.52c-0.552,0-1,0.447-1,1
		C78.52,64.279,78.968,64.726,79.52,64.726z"/>
	<path fill="#231F20" d="M85.539,64.726h5.229c0.552,0,1-0.447,1-1c0-0.553-0.448-1-1-1h-5.229c-0.552,0-1,0.447-1,1
		C84.539,64.279,84.987,64.726,85.539,64.726z"/>
</g>
</svg>
