<?xml version="1.0" encoding="utf-8"?>
<!-- Generator: Adobe Illustrator 15.1.0, SVG Export Plug-In . SVG Version: 6.00 Build 0)  -->
<!DOCTYPE svg PUBLIC "-//W3C//DTD SVG 1.1//EN" "http://www.w3.org/Graphics/SVG/1.1/DTD/svg11.dtd">
<svg version="1.1" class='svg' id="Layer_1" xmlns="http://www.w3.org/2000/svg" xmlns:xlink="http://www.w3.org/1999/xlink" x="0px" y="0px"
	 width="140px" height="138.583px" viewBox="0 0 140 138.583" enable-background="new 0 0 140 138.583" xml:space="preserve">
<g>
	<path fill="#231F20" d="M66.096,21.093c-28.397,0-51.5,23.103-51.5,51.5c0,28.397,23.103,51.5,51.5,51.5s51.5-23.103,51.5-51.5
		C117.596,44.196,94.494,21.093,66.096,21.093z M66.096,122.093c-27.294,0-49.5-22.206-49.5-49.5c0-27.294,22.206-49.5,49.5-49.5
		s49.5,22.206,49.5,49.5C115.596,99.887,93.39,122.093,66.096,122.093z"/>
	<path fill="#231F20" d="M65.933,26.215c-18.525,0-35.019,10.837-42.02,27.608c-0.213,0.51,0.028,1.095,0.538,1.308
		c0.503,0.212,1.095-0.027,1.308-0.538c1.81-4.334,4.288-8.25,7.284-11.662c0.088,0.025,0.174,0.054,0.27,0.054h4.047
		c0.193,0,0.351,0.143,0.351,0.319v1.582c0,0.002-0.001,0.003-0.001,0.005v15.98c0,0.002,0.001,0.003,0.001,0.005V62.5
		c0,0.176-0.157,0.319-0.351,0.319H22.917c-0.553,0-1,0.448-1,1s0.447,1,1,1H37.36c1.296,0,2.351-1.041,2.351-2.319v-0.593
		c11.577,0.728,16.421,13.901,16.47,14.038c0.144,0.401,0.523,0.665,0.942,0.665c0.034,0,0.069-0.002,0.104-0.006
		c2.234-0.234,3.271-1.461,3.747-2.449c1.04-2.162,0.298-4.959-0.31-5.91c-0.539-0.844-2.491-3.756-3.728-5.598h20.346
		c0.114,0,0.224-0.022,0.325-0.062c1.717-0.075,3.09-1.474,3.09-3.182v-0.112c0-1.756-1.451-3.185-3.219-3.185l-7.504-0.127
		c0.189-0.404,0.303-0.882,0.303-1.448v-0.114c0-1.739-0.903-2.754-1.92-3.302c0.337-0.524,0.533-1.128,0.533-1.732V49.27
		c0-1.678-0.902-2.707-1.934-3.244c0.455-0.867,0.5-1.752,0.41-2.31c-0.084-1.882-2.493-2.73-4.184-2.73h-0.001
		c-0.021,0-2.029-0.062-4.488-0.062c-2.472,0-4.521,0.06-6.091,0.178c-3.886,0.293-9.498,2.375-10.587,2.79H39.71v-0.587
		c0-1.279-1.055-2.319-2.351-2.319h-2.496c7.994-8.027,19.084-12.771,31.069-12.771c23.912,0,43.365,19.003,43.365,42.362
		c0,0.553,0.447,1,1,1s1-0.447,1-1C111.298,46.116,90.948,26.215,65.933,26.215z M42.202,45.892c0.124,0,0.248-0.023,0.364-0.068
		c0.062-0.024,6.26-2.432,10.188-2.728c1.52-0.114,3.519-0.172,5.94-0.172c2.427,0,4.406,0.061,4.457,0.062
		c1.1,0,2.218,0.534,2.218,0.832c0,0.067,0.007,0.134,0.021,0.2c0.002,0.009,0.136,0.829-0.544,1.527h-4.727c-0.553,0-1,0.448-1,1
		s0.447,1,1,1h4.99c0.021,0.002,0.041,0.012,0.063,0.013c0.176,0.008,1.719,0.123,1.719,1.712v0.114
		c0,0.453-0.374,0.969-0.829,1.193h-6.239c-0.553,0-1,0.448-1,1s0.447,1,1,1h6.623c0.525,0.061,1.832,0.361,1.832,1.841v0.114
		c0,1.208-1.279,1.376-1.528,1.397c-0.04,0.002-0.072,0.022-0.11,0.03c-0.049-0.007-0.092-0.029-0.142-0.029h-6.66
		c-0.553,0-1,0.448-1,1s0.447,1,1,1h6.66c0.059,0,0.108-0.023,0.164-0.033c0.047,0.008,0.09,0.029,0.139,0.03l10.662,0.18
		c0.682,0,1.235,0.532,1.235,1.185v0.112c0,0.653-0.554,1.185-1.235,1.185h-0.063c-0.026-0.003-0.054-0.005-0.072-0.006
		c-0.132-0.004-0.246,0.019-0.359,0.064H55.059c-0.369,0-0.709,0.204-0.883,0.53c-0.174,0.326-0.153,0.722,0.054,1.028
		c0.039,0.059,3.971,5.9,4.748,7.118c0.359,0.561,0.856,2.585,0.192,3.965c-0.284,0.59-0.755,0.982-1.431,1.187
		c-1.33-3.072-6.819-13.958-18.029-14.575V45.892H42.202z"/>
	<path fill="#231F20" d="M109.276,80.368H94.832c-1.296,0-2.35,1.041-2.35,2.319v0.593C80.906,82.552,76.06,69.377,76.011,69.241
		c-0.155-0.434-0.581-0.703-1.047-0.658c-2.233,0.233-3.27,1.46-3.745,2.448c-1.041,2.161-0.299,4.96,0.309,5.911
		c0.539,0.844,2.491,3.756,3.729,5.598H54.91c-0.113,0-0.223,0.021-0.324,0.061c-1.717,0.074-3.091,1.474-3.091,3.183v0.112
		c0,1.756,1.451,3.185,3.219,3.185l7.504,0.126c-0.189,0.404-0.303,0.884-0.303,1.449v0.114c0,1.739,0.903,2.754,1.921,3.302
		c-0.337,0.523-0.533,1.127-0.533,1.731v0.114c0,1.678,0.901,2.707,1.933,3.244c-0.455,0.867-0.5,1.752-0.41,2.31
		c0.084,1.882,2.493,2.729,4.184,2.729h0.001c0.021,0.001,2.031,0.063,4.491,0.063c0.001,0,0.001,0,0.001,0
		c2.471,0,4.519-0.06,6.088-0.178c3.886-0.293,9.498-2.375,10.586-2.79h2.307v0.587c0,1.279,1.054,2.319,2.35,2.319h2.496
		c-7.995,8.027-19.084,12.771-31.068,12.771c-23.912,0-43.366-19.004-43.366-42.361c0-0.553-0.447-1-1-1s-1,0.447-1,1
		c0,24.461,20.352,44.361,45.366,44.361c18.524,0,35.018-10.837,42.019-27.607c0.213-0.51-0.028-1.096-0.538-1.309
		c-0.504-0.213-1.095,0.027-1.308,0.537c-1.81,4.336-4.288,8.25-7.285,11.662c-0.087-0.024-0.173-0.054-0.269-0.054h-4.047
		c-0.192,0-0.35-0.144-0.35-0.319v-1.587V84.315v-1.628c0-0.177,0.157-0.319,0.35-0.319h14.444c0.553,0,1-0.447,1-1
		S109.829,80.368,109.276,80.368z M89.99,99.294c-0.125,0-0.248,0.023-0.364,0.069c-0.062,0.023-6.255,2.431-10.187,2.727
		c-1.519,0.114-3.517,0.172-5.938,0.172H73.5c-2.427,0-4.409-0.061-4.46-0.062c-1.1,0-2.218-0.534-2.218-0.832
		c0-0.067-0.007-0.134-0.021-0.2c-0.002-0.009-0.135-0.828,0.544-1.527h4.727c0.553,0,1-0.447,1-1s-0.447-1-1-1h-4.988
		c-0.02-0.002-0.037-0.011-0.057-0.012c-0.404-0.025-1.726-0.223-1.726-1.713v-0.114c0-0.452,0.373-0.97,0.828-1.192h6.24
		c0.553,0,1-0.447,1-1s-0.447-1-1-1h-6.635c-0.493-0.057-1.821-0.349-1.821-1.841v-0.114c0-1.209,1.279-1.377,1.528-1.398
		c0.039-0.002,0.072-0.021,0.11-0.029c0.048,0.008,0.092,0.029,0.143,0.029h6.66c0.553,0,1-0.447,1-1s-0.447-1-1-1h-6.66
		c-0.058,0-0.108,0.023-0.163,0.033c-0.048-0.008-0.091-0.029-0.141-0.03L54.73,87.08c-0.682,0-1.235-0.531-1.235-1.185v-0.112
		c0-0.653,0.554-1.186,1.235-1.186h0.057c0.028,0.003,0.057,0.006,0.077,0.007c0.134,0.006,0.247-0.019,0.362-0.064h21.907
		c0.369,0,0.709-0.204,0.883-0.53s0.153-0.722-0.054-1.028c-0.039-0.059-3.972-5.899-4.749-7.117
		c-0.359-0.561-0.856-2.586-0.192-3.965c0.284-0.59,0.755-0.982,1.431-1.188c1.33,3.072,6.82,13.959,18.03,14.576v14.007H89.99z"/>
	<path fill="#231F20" d="M84.621,38.044c-0.553,0-1,0.448-1,1v5.5c0,0.552,0.447,1,1,1s1-0.448,1-1v-5.5
		C85.621,38.492,85.173,38.044,84.621,38.044z"/>
	<path fill="#231F20" d="M82.332,45.256h-5.5c-0.553,0-1,0.448-1,1s0.447,1,1,1h5.5c0.553,0,1-0.448,1-1
		S82.884,45.256,82.332,45.256z"/>
	<path fill="#231F20" d="M83.042,48.544v5.5c0,0.552,0.447,1,1,1s1-0.448,1-1v-5.5c0-0.552-0.447-1-1-1S83.042,47.992,83.042,48.544
		z"/>
	<path fill="#231F20" d="M86.332,47.833h5.5c0.553,0,1-0.448,1-1s-0.447-1-1-1h-5.5c-0.553,0-1,0.448-1,1
		S85.779,47.833,86.332,47.833z"/>
	<path fill="#231F20" d="M39.409,72.868c-0.553,0-1,0.447-1,1v5.5c0,0.553,0.447,1,1,1s1-0.447,1-1v-5.5
		C40.409,73.315,39.961,72.868,39.409,72.868z"/>
	<path fill="#231F20" d="M37.121,80.079h-5.5c-0.553,0-1,0.447-1,1s0.447,1,1,1h5.5c0.553,0,1-0.447,1-1
		S37.673,80.079,37.121,80.079z"/>
	<path fill="#231F20" d="M37.832,83.368v5.5c0,0.553,0.447,1,1,1s1-0.447,1-1v-5.5c0-0.553-0.447-1-1-1S37.832,82.815,37.832,83.368
		z"/>
	<path fill="#231F20" d="M41.121,82.656h5.5c0.553,0,1-0.448,1-1s-0.447-1-1-1h-5.5c-0.553,0-1,0.448-1,1
		S40.568,82.656,41.121,82.656z"/>
	<path fill="#231F20" d="M46.621,8.782c1.594,0,2.891-1.297,2.891-2.891S48.214,3,46.621,3c-1.595,0-2.892,1.297-2.892,2.891
		S45.026,8.782,46.621,8.782z M46.621,5c0.491,0,0.891,0.4,0.891,0.891s-0.399,0.891-0.891,0.891s-0.892-0.4-0.892-0.891
		S46.129,5,46.621,5z"/>
	<path fill="#231F20" d="M11.406,115.081c-1.595,0-2.892,1.297-2.892,2.891s1.297,2.892,2.892,2.892
		c1.594,0,2.891-1.298,2.891-2.892S13,115.081,11.406,115.081z M11.406,118.863c-0.491,0-0.892-0.399-0.892-0.892
		c0-0.491,0.4-0.891,0.892-0.891s0.891,0.399,0.891,0.891C12.296,118.463,11.897,118.863,11.406,118.863z"/>
	<path fill="#231F20" d="M126.582,70.058c-1.595,0-2.892,1.297-2.892,2.892c0,1.594,1.297,2.891,2.892,2.891
		s2.892-1.297,2.892-2.891C129.473,71.355,128.176,70.058,126.582,70.058z M126.582,73.84c-0.491,0-0.892-0.4-0.892-0.891
		c0-0.492,0.4-0.892,0.892-0.892s0.892,0.399,0.892,0.892C127.473,73.44,127.073,73.84,126.582,73.84z"/>
	<path fill="#231F20" d="M18.111,30.105c1.594,0,2.891-1.297,2.891-2.891c0-1.594-1.297-2.891-2.891-2.891
		c-1.595,0-2.892,1.297-2.892,2.891C15.219,28.809,16.516,30.105,18.111,30.105z M18.111,26.324c0.491,0,0.891,0.399,0.891,0.891
		s-0.399,0.891-0.891,0.891s-0.892-0.4-0.892-0.891S17.62,26.324,18.111,26.324z"/>
	<path fill="#231F20" d="M93.482,121.698c-1.595,0-2.892,1.297-2.892,2.891s1.297,2.892,2.892,2.892s2.892-1.298,2.892-2.892
		S95.077,121.698,93.482,121.698z M93.482,125.48c-0.491,0-0.892-0.399-0.892-0.892c0-0.491,0.4-0.891,0.892-0.891
		s0.892,0.399,0.892,0.891C94.374,125.081,93.973,125.48,93.482,125.48z"/>
	<circle fill="#231F20" cx="59.204" cy="11.805" r="2.095"/>
	<circle fill="#231F20" cx="33.715" cy="19.366" r="2.095"/>
	<circle fill="#231F20" cx="13.5" cy="45.802" r="2.095"/>
	<circle fill="#231F20" cx="132.487" cy="58.767" r="2.095"/>
	<circle fill="#231F20" cx="116.596" cy="100.504" r="2.095"/>
	<circle fill="#231F20" cx="31.621" cy="122.697" r="2.095"/>
	<circle fill="#231F20" cx="9.514" cy="95.244" r="2.095"/>
	<circle fill="#231F20" cx="118.691" cy="45.802" r="2.095"/>
	<circle fill="#231F20" cx="114.5" cy="126.48" r="2.095"/>
</g>
</svg>
