<?xml version="1.0" encoding="utf-8"?>
<!-- Generator: Adobe Illustrator 17.0.0, SVG Export Plug-In . SVG Version: 6.00 Build 0)  -->
<!DOCTYPE svg PUBLIC "-//W3C//DTD SVG 1.1//EN" "http://www.w3.org/Graphics/SVG/1.1/DTD/svg11.dtd">
<svg version="1.1" class='svg' id="Layer_1" xmlns="http://www.w3.org/2000/svg" xmlns:xlink="http://www.w3.org/1999/xlink" x="0px" y="0px"
	 width="140px" height="138.583px" viewBox="0 0 140 138.583" enable-background="new 0 0 140 138.583" xml:space="preserve">
<g>
	<circle cx="86.477" cy="66.095" r="1.288"/>
	<circle cx="82.252" cy="68.214" r="1.287"/>
	<circle cx="78.028" cy="70.334" r="1.288"/>
	<path d="M73.858,73.74c0.711-0.032,1.263-0.634,1.231-1.345c-0.033-0.711-0.635-1.26-1.345-1.229
		c-0.712,0.03-1.263,0.634-1.231,1.344C72.545,73.224,73.146,73.772,73.858,73.74z"/>
	<circle cx="69.576" cy="74.574" r="1.287"/>
	<circle cx="65.35" cy="76.69" r="1.287"/>
	<circle cx="61.125" cy="78.811" r="1.288"/>
	<path d="M70,17.791c-28.397,0-51.5,23.103-51.5,51.5c0,11.247,3.56,21.931,10.295,30.898c9.834,13.093,24.853,20.603,41.205,20.603
		c28.397,0,51.5-23.104,51.5-51.5S98.397,17.791,70,17.791z M42.747,27.998c2.384,0.852,4.479,2.365,6.075,4.413l0.105,0.116
		c0.05,0.051,0.102,0.098,0.116,0.11l0.429,0.865l1.031-0.462c0.121-0.048,0.245-0.1,0.304-0.13c1.04-0.465,2.093-0.701,3.131-0.701
		c2.939,0,5.335,1.889,6.255,4.929l0.055,0.154c0.024,0.094,0.061,0.237,0.143,0.401l0.277,0.55l0.982,0
		c4.056,0.114,7.093,2.893,7.558,6.925c0.466,3.697-2.022,7.279-5.711,8.167c-0.527,0.154-1.071,0.22-1.819,0.22H23.079
		C26.627,43.006,33.63,34.035,42.747,27.998z M43.242,78.969l-11.673-3.031l3.757-1.629l19.23-1.273l-3.647,1.943
		c-0.487,0.26-0.672,0.865-0.413,1.353c0.18,0.338,0.526,0.53,0.884,0.53c0.159,0,0.319-0.038,0.469-0.117l7.755-4.131
		c0.002-0.001,0.002-0.002,0.004-0.003c0.001,0,0.002,0,0.003-0.001c0.119-0.064,11.993-6.5,18.277-9.758
		c10.432-5.413,14.136-6.906,15.406-7.205c2.609-0.613,6.419-0.346,9.35,0.528l-5.999,3.583c-0.475,0.283-0.629,0.897-0.346,1.371
		c0.188,0.313,0.519,0.487,0.859,0.487c0.175,0,0.352-0.045,0.512-0.142l6.765-4.04c0.171-0.102,0.284-0.255,0.366-0.421
		c0.955,0.494,1.66,1.08,1.959,1.741c1.001,2.212-0.078,3.016-3.977,5.462l-0.94,0.592c-6.916,4.367-26.024,13.818-30.422,15.98
		l-0.252-0.532c-0.236-0.5-0.832-0.711-1.332-0.477c-0.499,0.236-0.712,0.833-0.476,1.332l0.655,1.384
		c0.009,0.025,0.007,0.051,0.019,0.075l1.103,2.306l-8.072,4.396l4.176-6.013c0.315-0.453,0.203-1.076-0.251-1.392
		c-0.455-0.317-1.077-0.203-1.392,0.251l-6.583,9.479c0,0,0,0.001-0.001,0.001c0,0.001-0.001,0.001-0.002,0.002l-9.666,14.031
		l-4.146,1.164l3.52-13.782c0.095-0.372-0.032-0.767-0.327-1.014c-0.296-0.247-0.706-0.305-1.056-0.144
		c-0.065,0.03-6.576,2.937-18.434,5.027c-1.638-2.43-3.043-4.976-4.211-7.617c0.293-0.084,0.507-0.188,1.04-0.456
		c1.316-0.662,4.81-2.421,17.652-7.955c0.393-0.169,0.634-0.568,0.602-0.994S43.655,79.076,43.242,78.969z M70,118.792
		c-15.717,0-30.153-7.218-39.605-19.804c-0.074-0.099-0.143-0.201-0.216-0.3c8.028-1.473,13.463-3.263,16.117-4.258l-3.459,13.548
		c-0.088,0.346,0.015,0.713,0.27,0.963c0.189,0.185,0.441,0.284,0.699,0.284c0.09,0,0.181-0.012,0.27-0.037l6.161-1.729
		c0.225-0.063,0.421-0.203,0.554-0.396l9.735-14.133l12.402-6.753c0.056-0.031,0.094-0.078,0.142-0.117
		c0.046-0.038,0.099-0.068,0.137-0.113c0.049-0.057,0.078-0.124,0.112-0.19c0.024-0.046,0.057-0.086,0.074-0.135
		c0.027-0.078,0.03-0.16,0.037-0.242c0.004-0.044,0.019-0.086,0.017-0.131c-0.006-0.114-0.037-0.227-0.084-0.337
		c-0.006-0.013-0.004-0.027-0.01-0.04l-0.001-0.002c0-0.001,0-0.001,0-0.002l-0.036-0.075l-1.04-2.198
		c4.438-2.179,23.531-11.612,30.636-16.098l0.934-0.587c3.632-2.279,6.501-4.079,4.736-7.98c-1.79-3.957-10.811-5.391-15.747-4.23
		c-2.008,0.473-7.347,2.955-15.869,7.376c-5.859,3.038-16.551,8.824-18.117,9.671l-23.829,1.577
		c-0.114,0.008-0.227,0.035-0.332,0.08l-6.581,2.853c-0.392,0.17-0.633,0.569-0.6,0.995s0.333,0.783,0.746,0.891l11.669,3.03
		c-10.729,4.656-13.855,6.229-15.088,6.85c-0.537,0.27-0.614,0.308-0.921,0.376C21.668,81.691,20.5,75.584,20.5,69.291
		c0-4.831,0.708-9.497,2.004-13.914v0.177h39.174c0.937,0,1.671-0.093,2.334-0.289c4.618-1.11,7.771-5.656,7.181-10.339
		c-0.561-4.862-4.304-8.385-9.182-8.67c-1.251-3.74-4.319-6.049-8.073-6.049c-1.227,0-2.459,0.254-3.7,0.77
		c-1.484-1.843-3.328-3.295-5.411-4.285c7.381-4.378,15.985-6.902,25.172-6.902c27.294,0,49.5,22.206,49.5,49.5
		c0,4.432-0.594,8.726-1.692,12.817c-1.474-0.749-3.254-0.855-5.001-0.192c-2.011-2.385-4.898-3.744-7.988-3.744
		c-2.588,0-5.064,0.975-6.973,2.743c-1.89,1.747-3.004,3.903-3.318,6.491c-1.45,0.268-2.618,0.956-3.479,2.055
		c-1.394,1.807-1.653,3.955-0.726,6.061c0.993,2.198,2.89,3.409,5.34,3.409h10.091c0.553,0,1-0.447,1-1s-0.447-1-1-1H95.662
		c-1.641,0-2.857-0.772-3.514-2.225c-0.632-1.435-0.47-2.788,0.479-4.018c0.605-0.772,1.44-1.218,2.551-1.359
		c0.057-0.008,0.112-0.02,0.166-0.036c0.055,0,0.142-0.001,0.142-0.001c0.553,0,1-0.447,1-1l-0.004-0.39
		c0.193-2.171,1.109-4.028,2.723-5.52c1.538-1.426,3.532-2.211,5.614-2.211c2.609,0,5.043,1.204,6.679,3.305
		c0.025,0.033,0.059,0.069,0.088,0.099l0.024-0.004c0.241,0.482,0.91,0.647,1.4,0.425c0.084-0.033,0.17-0.069,0.208-0.089
		c1.422-0.636,2.906-0.546,4.023,0.177C110.936,104.175,92.143,118.792,70,118.792z"/>
</g>
</svg>
