<?xml version="1.0" encoding="utf-8"?>
<!-- Generator: Adobe Illustrator 17.0.0, SVG Export Plug-In . SVG Version: 6.00 Build 0)  -->
<!DOCTYPE svg PUBLIC "-//W3C//DTD SVG 1.1//EN" "http://www.w3.org/Graphics/SVG/1.1/DTD/svg11.dtd">
<svg version="1.1" class='svg' id="Layer_1" xmlns="http://www.w3.org/2000/svg" xmlns:xlink="http://www.w3.org/1999/xlink" x="0px" y="0px"
	 width="140px" height="138.583px" viewBox="0 0 140 138.583" enable-background="new 0 0 140 138.583" xml:space="preserve">
<g>
	<path d="M38.658,101.38h36.383c0.552,0,1-0.448,1-1v-2.317c0-2.224-1.809-4.033-4.033-4.033h-0.967v-1.317
		c0-2.224-1.809-4.033-4.033-4.033H46.691c-2.224,0-4.033,1.809-4.033,4.033v1.317h-0.967c-2.224,0-4.033,1.809-4.033,4.033v2.317
		C37.658,100.933,38.106,101.38,38.658,101.38z M39.658,98.063c0-1.121,0.912-2.033,2.033-2.033h12.635c0.552,0,1-0.448,1-1
		c0-0.552-0.448-1-1-1h-9.668v-1.317c0-1.121,0.912-2.033,2.033-2.033h20.317c1.121,0,2.033,0.912,2.033,2.033v1.317h-9.633
		c-0.552,0-1,0.448-1,1c0,0.552,0.448,1,1,1h12.6c1.121,0,2.033,0.912,2.033,2.033v1.317H39.658V98.063z"/>
	<path d="M59.901,82.921c0.759,0.76,1.772,1.178,2.852,1.179c0,0,0,0,0.001,0c1.079,0,2.091-0.418,2.851-1.177l2.394-2.396
		c0.391-0.391,0.391-1.023,0-1.414l-1.704-1.705l6.352-6.352c3.421,3.946,17.974,20.664,21.618,23.717
		c0.958,1.019,2.295,1.602,3.677,1.602c2.792,0,5.063-2.271,5.063-5.063c0-1.374-0.546-2.658-1.539-3.623
		c-2.904-3.534-19.797-18.241-23.767-21.683l6.69-6.69l1.617,1.617c0.188,0.188,0.442,0.293,0.707,0.293
		c0.265,0,0.52-0.105,0.707-0.293l2.396-2.395c1.572-1.573,1.572-4.131-0.001-5.703L75.186,38.209
		c-0.759-0.76-1.772-1.178-2.852-1.179c-0.001,0-0.001,0-0.001,0c-1.08,0-2.092,0.418-2.851,1.177l-2.395,2.396
		c-0.391,0.391-0.391,1.023,0,1.414l1.523,1.523L50.518,61.631l-1.436-1.436c-0.375-0.375-1.039-0.375-1.414,0l-2.396,2.395
		c-1.572,1.573-1.572,4.131,0.001,5.703L59.901,82.921z M76.279,67.425c3.718,3.226,21.004,18.273,23.671,21.573l0.09,0.098
		c0.621,0.588,0.963,1.376,0.963,2.218c0,1.688-1.374,3.063-3.063,3.063c-0.858,0-1.657-0.356-2.25-1.004l-0.101-0.096
		c-3.419-2.824-18.317-19.938-21.525-23.637l1.158-1.158L76.279,67.425z M46.686,64.006l1.69-1.689l11.349,11.35
		c0.391,0.391,1.023,0.391,1.414,0c0.391-0.391,0.391-1.023,0-1.414l-9.207-9.207l18.092-18.092l1.43,1.43l0,0
		c0.39,0.391,1.023,0.39,1.414,0c0.391-0.391,0.391-1.024,0.001-1.415l-1.956-1.957c-0.007-0.007-0.014-0.014-0.021-0.021
		l-1.684-1.684l1.688-1.688c0.381-0.381,0.891-0.591,1.436-0.591h0.001c0.545,0,1.056,0.21,1.438,0.593l14.628,14.628
		c0.793,0.792,0.793,2.083,0.002,2.874l-1.69,1.689l-11.349-11.35c-0.391-0.391-1.023-0.391-1.414,0
		c-0.391,0.391-0.391,1.023,0,1.414l9.025,9.025l-9.117,9.117l-2.521,2.521l0,0l-6.454,6.455l-1.249-1.249l-0.001-0.001
		c-0.39-0.391-1.023-0.39-1.414,0c-0.391,0.391-0.391,1.024,0,1.415l1.956,1.957c0.007,0.007,0.014,0.014,0.021,0.021l1.684,1.684
		l-1.688,1.688C63.81,81.89,63.3,82.1,62.754,82.1h0c-0.545,0-1.056-0.21-1.438-0.593L46.688,66.879
		C45.895,66.087,45.895,64.797,46.686,64.006z"/>
	<path d="M70,120.792c28.397,0,51.5-23.103,51.5-51.5c0-28.397-23.103-51.5-51.5-51.5s-51.5,23.103-51.5,51.5
		C18.5,97.689,41.603,120.792,70,120.792z M70,19.792c27.294,0,49.5,22.206,49.5,49.5c0,27.294-22.206,49.5-49.5,49.5
		s-49.5-22.206-49.5-49.5C20.5,41.997,42.706,19.792,70,19.792z"/>
	<path d="M22.423,27.609c0.274,0,0.547-0.112,0.745-0.332c0.566-0.631,2.176-0.69,3.597-0.741c1.767-0.064,3.593-0.13,4.757-1.151
		c1.162-1.019,1.466-2.82,1.759-4.561c0.236-1.404,0.504-2.995,1.207-3.475c0.695-0.476,2.27-0.153,3.659,0.133
		c1.733,0.356,3.526,0.725,4.905,0.007c1.365-0.712,2.085-2.384,2.782-4.001c0.565-1.311,1.205-2.796,2.008-3.098
		c0.78-0.298,2.228,0.393,3.505,1c1.603,0.762,3.258,1.55,4.776,1.18c1.488-0.363,2.583-1.809,3.643-3.209
		c0.865-1.142,1.846-2.437,2.706-2.539c0.806-0.096,2.055,0.909,3.146,1.798c1.382,1.126,2.811,2.291,4.383,2.291
		c1.572,0,3.001-1.165,4.383-2.291c1.09-0.889,2.316-1.896,3.145-1.798c0.86,0.102,1.841,1.397,2.706,2.539
		c1.06,1.399,2.156,2.847,3.644,3.209c1.517,0.37,3.173-0.418,4.776-1.18c1.276-0.607,2.723-1.295,3.505-1
		c0.802,0.302,1.442,1.788,2.007,3.099c0.697,1.617,1.418,3.29,2.782,4.001c1.378,0.718,3.171,0.349,4.905-0.007
		c1.388-0.286,2.962-0.609,3.659-0.133c0.702,0.481,0.97,2.072,1.207,3.475c0.293,1.741,0.597,3.541,1.759,4.561
		c1.164,1.021,2.991,1.087,4.757,1.151c1.42,0.052,3.03,0.11,3.597,0.741c0.37,0.412,1.001,0.446,1.412,0.076
		c0.411-0.369,0.445-1.001,0.076-1.412c-1.134-1.263-3.105-1.334-5.013-1.403c-1.416-0.051-2.881-0.104-3.511-0.656
		c-0.627-0.55-0.87-1.993-1.105-3.389c-0.317-1.884-0.646-3.831-2.048-4.793c-1.397-0.956-3.326-0.559-5.192-0.176
		c-1.391,0.286-2.83,0.581-3.577,0.192c-0.734-0.383-1.312-1.723-1.87-3.019c-0.758-1.759-1.542-3.578-3.14-4.179
		c-1.578-0.593-3.353,0.251-5.069,1.066c-1.288,0.612-2.621,1.24-3.444,1.043c-0.797-0.194-1.674-1.353-2.522-2.473
		c-1.16-1.531-2.359-3.114-4.063-3.318C76.1,4.634,74.586,5.875,73.119,7.07C72.008,7.975,70.86,8.911,70,8.911
		c-0.86,0-2.008-0.936-3.119-1.841c-1.467-1.196-2.984-2.436-4.646-2.234c-1.705,0.204-2.903,1.787-4.063,3.318
		c-0.849,1.121-1.726,2.279-2.523,2.473c-0.829,0.201-2.157-0.431-3.444-1.043c-1.716-0.815-3.49-1.659-5.068-1.066
		c-1.598,0.602-2.382,2.42-3.14,4.179c-0.559,1.296-1.136,2.636-1.871,3.019c-0.745,0.39-2.185,0.094-3.577-0.192
		c-1.866-0.384-3.795-0.78-5.191,0.176c-1.403,0.961-1.731,2.909-2.049,4.793c-0.235,1.396-0.479,2.839-1.106,3.389
		c-0.629,0.552-2.094,0.605-3.511,0.657c-1.907,0.069-3.879,0.14-5.013,1.403c-0.369,0.411-0.335,1.043,0.076,1.412
		C21.947,27.525,22.186,27.609,22.423,27.609z"/>
	<path d="M116.832,111.306c-0.566,0.631-2.176,0.689-3.597,0.741c-1.766,0.063-3.593,0.13-4.757,1.151
		c-1.163,1.019-1.466,2.82-1.76,4.561c-0.236,1.404-0.505,2.994-1.207,3.475c-0.695,0.476-2.269,0.152-3.658-0.133
		c-1.734-0.357-3.528-0.726-4.905-0.007c-1.365,0.711-2.085,2.384-2.782,4.001c-0.565,1.311-1.205,2.796-2.007,3.098
		c-0.787,0.293-2.229-0.394-3.505-1c-1.605-0.762-3.265-1.551-4.777-1.18c-1.488,0.363-2.583,1.81-3.643,3.209
		c-0.865,1.142-1.845,2.436-2.706,2.539c-0.822,0.089-2.056-0.91-3.147-1.798c-1.382-1.126-2.81-2.291-4.382-2.291
		c-1.572,0-3.001,1.165-4.383,2.291c-1.091,0.889-2.34,1.89-3.146,1.798c-0.861-0.103-1.841-1.397-2.706-2.539
		c-1.06-1.399-2.155-2.847-3.643-3.209c-1.519-0.372-3.173,0.419-4.776,1.18c-1.277,0.606-2.725,1.293-3.506,1
		c-0.802-0.302-1.442-1.788-2.007-3.099c-0.697-1.617-1.417-3.29-2.782-4.001c-1.377-0.718-3.169-0.35-4.905,0.007
		c-1.39,0.286-2.965,0.609-3.659,0.133c-0.702-0.481-0.97-2.072-1.206-3.475c-0.294-1.741-0.597-3.542-1.759-4.561
		c-1.165-1.021-2.991-1.087-4.757-1.151c-1.42-0.051-3.03-0.109-3.597-0.74c-0.369-0.411-1-0.445-1.412-0.076
		c-0.411,0.369-0.445,1.001-0.076,1.412c1.134,1.263,3.106,1.335,5.013,1.403c1.417,0.051,2.881,0.104,3.51,0.656
		c0.627,0.55,0.871,1.994,1.106,3.39c0.317,1.883,0.646,3.831,2.048,4.793c1.396,0.956,3.326,0.561,5.192,0.176
		c1.393-0.286,2.832-0.58,3.577-0.193c0.734,0.383,1.312,1.723,1.871,3.02c0.758,1.759,1.542,3.578,3.139,4.179
		c1.579,0.594,3.353-0.25,5.069-1.066c1.288-0.612,2.619-1.243,3.444-1.043c0.797,0.194,1.674,1.353,2.523,2.473
		c1.159,1.531,2.358,3.115,4.063,3.318c0.119,0.014,0.237,0.021,0.355,0.021c1.524,0,2.929-1.145,4.291-2.255
		c1.111-0.905,2.259-1.841,3.119-1.841c0.86,0,2.008,0.936,3.119,1.841c1.467,1.195,2.985,2.435,4.647,2.234
		c1.705-0.204,2.903-1.787,4.063-3.318c0.849-1.12,1.726-2.279,2.522-2.473c0.826-0.206,2.158,0.431,3.444,1.043
		c1.717,0.816,3.491,1.658,5.069,1.066c1.598-0.602,2.381-2.42,3.139-4.179c0.558-1.296,1.136-2.636,1.87-3.019
		c0.748-0.39,2.187-0.093,3.578,0.192c1.866,0.384,3.795,0.78,5.19-0.176c1.403-0.961,1.731-2.909,2.049-4.793
		c0.235-1.396,0.479-2.84,1.106-3.39c0.629-0.552,2.094-0.605,3.51-0.656c1.907-0.069,3.879-0.14,5.013-1.403
		c0.369-0.411,0.335-1.043-0.076-1.412C117.832,110.861,117.2,110.896,116.832,111.306z"/>
</g>
</svg>
