<?xml version="1.0" encoding="utf-8"?>
<!-- Generator: Adobe Illustrator 17.0.0, SVG Export Plug-In . SVG Version: 6.00 Build 0)  -->
<!DOCTYPE svg PUBLIC "-//W3C//DTD SVG 1.1//EN" "http://www.w3.org/Graphics/SVG/1.1/DTD/svg11.dtd">
<svg version="1.1" class='svg' id="Layer_1" xmlns="http://www.w3.org/2000/svg" xmlns:xlink="http://www.w3.org/1999/xlink" x="0px" y="0px"
	 width="140px" height="138.583px" viewBox="0 0 140 138.583" enable-background="new 0 0 140 138.583" xml:space="preserve">
<g>
	<path fill="#231F20" d="M70,17.792c-28.397,0-51.5,23.103-51.5,51.5c0,28.397,23.103,51.5,51.5,51.5s51.5-23.103,51.5-51.5
		C121.5,40.894,98.397,17.792,70,17.792z M70,118.792c-27.294,0-49.5-22.206-49.5-49.5c0-27.294,22.206-49.5,49.5-49.5
		s49.5,22.206,49.5,49.5C119.5,96.585,97.294,118.792,70,118.792z"/>
	<path fill="#231F20" d="M97.743,54.995c-0.106,0.05-0.202,0.118-0.284,0.202c0,0-2.267,2.307-5.495,5.631V49.08
		c0-2.206-1.795-4-4-4H79c-0.034-2.177-1.81-3.938-3.994-3.938h-3.081c-0.531-1.74-2.133-3.017-4.044-3.017
		c-1.912,0-3.513,1.277-4.045,3.017h-3.081c-2.183,0-3.957,1.759-3.993,3.938h-8.965c-2.205,0-4,1.794-4,4v11.571
		c0,0.553,0.448,1,1,1c0.552,0,1-0.447,1-1V49.08c0-1.102,0.897-2,2-2h8.966c0.012,2.912,0.018,2.982,0.022,3.03
		c0.048,0.514,0.479,0.907,0.996,0.907h20.199c0.521,0,0.954-0.399,0.996-0.919c0.004-0.041,0.008-0.111,0.021-3.019h8.966
		c1.103,0,2,0.898,2,2v13.813c-19.591,20.254-20.042,21.74-20.21,22.299c-0.33,1.098-0.373,1.892-0.281,2.47l-1.589,1.589
		c-0.391,0.391-0.391,1.023,0,1.414c0.195,0.195,0.451,0.293,0.707,0.293s0.512-0.098,0.707-0.293l1.44-1.439
		c0.593,0.187,1.494,0.212,2.854-0.196c1.383-0.415,8.958-7.415,16.372-14.494v21.925c0,1.103-0.897,2-2,2H47.798
		c-1.103,0-2-0.897-2-2V68.984c0-0.553-0.448-1-1-1c-0.552,0-1,0.447-1,1v27.475c0,2.206,1.795,4,4,4h40.167c2.205,0,4-1.794,4-4
		V72.62c4.766-4.576,9.222-8.937,11.622-11.296c0.084-0.082,0.153-0.179,0.203-0.285c0.056-0.117,1.337-2.902-0.904-5.143
		C100.646,53.657,97.862,54.939,97.743,54.995z M67.882,40.125c1.239,0,2.247,1.009,2.247,2.248s-1.008,2.248-2.247,2.248
		c-1.24,0-2.248-1.009-2.248-2.248S66.642,40.125,67.882,40.125z M76.99,49.017H58.773c-0.008-1.415-0.017-3.875-0.017-3.875
		c0-1.102,0.897-2,2-2h2.955c0.364,1.976,2.092,3.479,4.17,3.479c2.079,0,3.805-1.503,4.17-3.479h2.955c1.103,0,2,0.898,2,1.996
		C77.006,45.138,76.997,47.621,76.99,49.017z M73.019,87.112c-0.94,0.283-1.388,0.261-1.572,0.225
		c-0.035-0.183-0.06-0.624,0.214-1.542c0.169-0.397,1.695-2.635,13.418-14.931l2.842,2.842
		C80.661,80.624,74.14,86.637,73.019,87.112z M102.037,60.043c-3.456,3.396-7.652,7.473-11.773,11.423
		c-0.003,0.003-0.006,0.006-0.009,0.009c-0.296,0.284-0.592,0.566-0.887,0.85l-2.907-2.907c1.572-1.643,3.3-3.438,5.223-5.426
		c3.589-3.709,6.402-6.578,7.057-7.245c0.305-0.108,1.067-0.306,1.86-0.005l-7.083,6.876c-0.396,0.385-0.406,1.018-0.021,1.414
		c0.385,0.397,1.019,0.406,1.414,0.022l7.12-6.91C102.351,58.949,102.145,59.733,102.037,60.043z"/>
	<path fill="#231F20" d="M64.185,88.792l-1.105-3.316c-0.131-0.393-0.49-0.664-0.903-0.683c-0.399-0.03-0.795,0.22-0.961,0.599
		l-1.291,2.949l-1.345-4.033c-0.134-0.4-0.505-0.674-0.927-0.684c-0.431-0.024-0.804,0.248-0.956,0.643l-1.452,3.8l-1.768-2.808
		c-0.294-0.468-0.912-0.606-1.379-0.313c-0.467,0.295-0.608,0.912-0.313,1.38l2.833,4.5c0.202,0.319,0.565,0.497,0.944,0.462
		c0.377-0.037,0.701-0.284,0.836-0.638l1.168-3.057l1.283,3.848c0.131,0.393,0.49,0.664,0.903,0.683
		c0.015,0.001,0.03,0.001,0.046,0.001c0.396,0,0.756-0.234,0.916-0.6l1.29-2.949l0.511,1.533c0.136,0.408,0.519,0.684,0.949,0.684
		h2.166c0.552,0,1-0.447,1-1c0-0.553-0.448-1-1-1H64.185z"/>
	<path fill="#231F20" d="M51.464,76.792h21.166c0.552,0,1-0.447,1-1c0-0.553-0.448-1-1-1H51.464c-0.552,0-1,0.447-1,1
		C50.464,76.345,50.912,76.792,51.464,76.792z"/>
	<path fill="#231F20" d="M51.464,71.667h26.166c0.552,0,1-0.447,1-1c0-0.553-0.448-1-1-1H51.464c-0.552,0-1,0.447-1,1
		C50.464,71.22,50.912,71.667,51.464,71.667z"/>
	<path fill="#231F20" d="M51.464,66.542h32.166c0.552,0,1-0.447,1-1c0-0.553-0.448-1-1-1H51.464c-0.552,0-1,0.447-1,1
		C50.464,66.095,50.912,66.542,51.464,66.542z"/>
	<path fill="#231F20" d="M51.464,61.417h32.166c0.552,0,1-0.447,1-1c0-0.553-0.448-1-1-1H51.464c-0.552,0-1,0.447-1,1
		C50.464,60.97,50.912,61.417,51.464,61.417z"/>
	<path fill="#231F20" d="M51.464,56.292h32.166c0.552,0,1-0.447,1-1c0-0.553-0.448-1-1-1H51.464c-0.552,0-1,0.447-1,1
		C50.464,55.845,50.912,56.292,51.464,56.292z"/>
</g>
</svg>
