<?xml version="1.0" encoding="utf-8"?>
<!-- Generator: Adobe Illustrator 15.1.0, SVG Export Plug-In . SVG Version: 6.00 Build 0)  -->
<!DOCTYPE svg PUBLIC "-//W3C//DTD SVG 1.1//EN" "http://www.w3.org/Graphics/SVG/1.1/DTD/svg11.dtd">
<svg version="1.1" class='svg' id="svg-icon-vykup" xmlns="http://www.w3.org/2000/svg" xmlns:xlink="http://www.w3.org/1999/xlink" x="0px" y="0px"
	 width="140px" height="138.583px" viewBox="0 0 140 138.583" enable-background="new 0 0 140 138.583" xml:space="preserve">
<path fill="#231F20" d="M86.375,86.417c-0.553,0-1-0.447-1-1v-5.625c0-0.553,0.447-1,1-1s1,0.447,1,1v5.625
	C87.375,85.969,86.928,86.417,86.375,86.417z M92.375,85.417v-5.625c0-0.553-0.447-1-1-1s-1,0.447-1,1v5.625c0,0.553,0.447,1,1,1
	S92.375,85.969,92.375,85.417z M54.75,79.792c0-2.757-2.243-5-5-5s-5,2.243-5,5s2.243,5,5,5S54.75,82.548,54.75,79.792z
	 M52.75,79.792c0,1.654-1.346,3-3,3s-3-1.346-3-3s1.346-3,3-3S52.75,78.137,52.75,79.792z M61.616,75.792c0-2.757-2.243-5-5-5
	s-5,2.243-5,5s2.243,5,5,5S61.616,78.548,61.616,75.792z M59.616,75.792c0,1.654-1.346,3-3,3s-3-1.346-3-3s1.346-3,3-3
	S59.616,74.137,59.616,75.792z M61.616,83.792c0-2.757-2.243-5-5-5s-5,2.243-5,5s2.243,5,5,5S61.616,86.548,61.616,83.792z
	 M59.616,83.792c0,1.654-1.346,3-3,3s-3-1.346-3-3s1.346-3,3-3S59.616,82.137,59.616,83.792z M95.5,79.792c0-0.553-0.447-1-1-1
	H56.616c-0.552,0-1,0.447-1,1s0.448,1,1,1H94.5C95.052,80.792,95.5,80.344,95.5,79.792z M95.5,85.708c0-0.553-0.447-1-1-1H83.25
	c-0.553,0-1,0.447-1,1s0.447,1,1,1H94.5C95.053,86.708,95.5,86.26,95.5,85.708z M103.083,63.792c0-0.552-0.447-1-1-1H37.917
	c-0.552,0-1,0.448-1,1s0.448,1,1,1h64.167C102.636,64.792,103.083,64.344,103.083,63.792z M103.083,94.971v-51.36
	c0-4.771-3.882-8.653-8.654-8.653H45.571c-4.772,0-8.654,3.882-8.654,8.653v51.36c0,4.772,3.882,8.654,8.654,8.654h48.858
	C99.202,103.625,103.083,99.744,103.083,94.971z M94.429,36.958c3.669,0,6.654,2.985,6.654,6.653v51.36
	c0,3.669-2.985,6.654-6.654,6.654H45.571c-3.669,0-6.654-2.985-6.654-6.654v-51.36c0-3.668,2.985-6.653,6.654-6.653H94.429z
	 M79.583,95.631c0-0.553-0.447-1-1-1H43.586c-2.575,0-4.669-2.095-4.669-4.669V48.622c0-2.575,2.094-4.67,4.669-4.67h8.997
	c0.552,0,1-0.448,1-1s-0.448-1-1-1h-8.997c-3.677,0-6.669,2.992-6.669,6.67v41.341c0,3.678,2.992,6.669,6.669,6.669h34.997
	C79.136,96.631,79.583,96.184,79.583,95.631z M103.083,89.961V48.621c0-3.677-2.991-6.669-6.669-6.669H58.083c-0.552,0-1,0.448-1,1
	s0.448,1,1,1h38.331c2.574,0,4.669,2.095,4.669,4.669v41.341c0,2.575-2.095,4.67-4.669,4.67H85.583c-0.553,0-1,0.447-1,1
	s0.447,1,1,1h10.831C100.092,96.631,103.083,93.639,103.083,89.961z M121.5,69.292c0-28.397-23.103-51.5-51.5-51.5
	c-28.397,0-51.5,23.103-51.5,51.5c0,28.397,23.103,51.5,51.5,51.5C98.398,120.792,121.5,97.689,121.5,69.292z M119.5,69.292
	c0,27.294-22.206,49.5-49.5,49.5c-27.294,0-49.5-22.206-49.5-49.5c0-27.294,22.206-49.5,49.5-49.5
	C97.294,19.792,119.5,41.997,119.5,69.292z M27.874,29.327c0.391-0.391,0.391-1.023,0-1.414l-6-6c-0.391-0.391-1.023-0.391-1.414,0
	s-0.391,1.023,0,1.414l6,6c0.195,0.195,0.451,0.293,0.707,0.293S27.679,29.522,27.874,29.327z M17.586,44.3
	c0.25-0.492,0.055-1.094-0.437-1.345l-7.56-3.852c-0.494-0.252-1.095-0.055-1.345,0.437c-0.25,0.492-0.055,1.094,0.437,1.345
	l7.56,3.852c0.146,0.074,0.301,0.109,0.453,0.109C17.058,44.846,17.409,44.647,17.586,44.3z M12.429,61.72
	c0.086-0.545-0.286-1.058-0.832-1.144l-8.381-1.327c-0.536-0.081-1.057,0.286-1.144,0.832c-0.086,0.545,0.286,1.058,0.832,1.144
	l8.381,1.327c0.053,0.008,0.105,0.012,0.158,0.012C11.926,62.563,12.351,62.212,12.429,61.72z M3.695,82.353l8.381-1.327
	c0.545-0.086,0.918-0.599,0.832-1.144s-0.604-0.919-1.144-0.831l-8.381,1.327c-0.545,0.086-0.918,0.599-0.832,1.144
	c0.078,0.493,0.503,0.844,0.986,0.844C3.589,82.366,3.642,82.362,3.695,82.353z M10.977,102.203l7.56-3.852
	c0.492-0.25,0.688-0.853,0.437-1.345c-0.251-0.492-0.854-0.688-1.345-0.437l-7.56,3.852c-0.492,0.25-0.688,0.853-0.437,1.345
	c0.177,0.347,0.528,0.546,0.892,0.546C10.676,102.312,10.831,102.277,10.977,102.203z M24.036,118.832l6-6
	c0.391-0.391,0.391-1.023,0-1.414s-1.023-0.391-1.414,0l-6,6c-0.391,0.391-0.391,1.023,0,1.414c0.195,0.195,0.451,0.293,0.707,0.293
	S23.84,119.027,24.036,118.832z M41.594,130.611l3.852-7.56c0.25-0.492,0.055-1.095-0.437-1.345
	c-0.494-0.253-1.095-0.056-1.345,0.437l-3.852,7.56c-0.25,0.492-0.055,1.095,0.437,1.345c0.146,0.074,0.301,0.109,0.453,0.109
	C41.066,131.157,41.417,130.958,41.594,130.611z M61.933,136.387l1.327-8.381c0.086-0.545-0.286-1.058-0.832-1.144
	c-0.537-0.09-1.057,0.286-1.144,0.831l-1.327,8.381c-0.086,0.545,0.286,1.058,0.832,1.144c0.053,0.009,0.105,0.013,0.158,0.013
	C61.43,137.231,61.855,136.879,61.933,136.387z M82.23,136.741c0.546-0.086,0.918-0.598,0.831-1.144l-1.326-8.381
	c-0.085-0.545-0.597-0.924-1.144-0.831c-0.546,0.086-0.918,0.598-0.831,1.144l1.326,8.381c0.077,0.492,0.503,0.844,0.986,0.844
	C82.125,136.753,82.177,136.75,82.23,136.741z M102.475,129.66c0.492-0.25,0.688-0.853,0.437-1.345l-3.852-7.56
	c-0.249-0.492-0.852-0.688-1.345-0.437c-0.492,0.25-0.688,0.853-0.437,1.345l3.852,7.56c0.176,0.347,0.527,0.546,0.892,0.546
	C102.174,129.769,102.33,129.734,102.475,129.66z M119.541,116.67c0.391-0.391,0.391-1.023,0-1.414l-6-6
	c-0.391-0.391-1.023-0.391-1.414,0s-0.391,1.023,0,1.414l6,6c0.195,0.195,0.451,0.293,0.707,0.293S119.345,116.866,119.541,116.67z
	 M131.756,99.042c0.251-0.492,0.056-1.095-0.437-1.345l-7.56-3.852c-0.495-0.252-1.096-0.056-1.345,0.437
	c-0.251,0.492-0.056,1.095,0.437,1.345l7.56,3.852c0.146,0.074,0.301,0.109,0.453,0.109
	C131.229,99.588,131.581,99.389,131.756,99.042z M137.928,78.502c0.087-0.545-0.285-1.058-0.831-1.144l-8.382-1.327
	c-0.544-0.089-1.058,0.286-1.144,0.831c-0.087,0.545,0.285,1.058,0.831,1.144l8.382,1.327c0.053,0.009,0.105,0.013,0.157,0.013
	C137.425,79.346,137.851,78.995,137.928,78.502z M128.238,59.532l8.381-1.327c0.546-0.086,0.918-0.599,0.831-1.144
	c-0.086-0.545-0.6-0.919-1.144-0.832l-8.381,1.327c-0.546,0.086-0.918,0.599-0.831,1.144c0.077,0.493,0.503,0.844,0.986,0.844
	C128.132,59.544,128.185,59.541,128.238,59.532z M122.373,42.014l7.56-3.852c0.492-0.251,0.688-0.853,0.437-1.345
	c-0.251-0.493-0.853-0.689-1.345-0.437l-7.56,3.852c-0.492,0.251-0.688,0.853-0.437,1.345c0.177,0.347,0.527,0.546,0.892,0.546
	C122.072,42.123,122.227,42.087,122.373,42.014z M111.379,27.165l6-6c0.391-0.391,0.391-1.023,0-1.414s-1.023-0.391-1.414,0l-6,6
	c-0.391,0.391-0.391,1.023,0,1.414c0.195,0.195,0.451,0.293,0.707,0.293S111.184,27.36,111.379,27.165z M96.336,16.44l3.852-7.56
	c0.251-0.492,0.056-1.094-0.437-1.345c-0.495-0.253-1.096-0.055-1.345,0.437l-3.852,7.56c-0.251,0.492-0.056,1.094,0.437,1.345
	c0.146,0.074,0.301,0.109,0.453,0.109C95.809,16.986,96.161,16.787,96.336,16.44z M78.715,10.889l1.327-8.381
	c0.087-0.545-0.285-1.058-0.831-1.144c-0.547-0.085-1.059,0.286-1.144,0.832l-1.327,8.381c-0.087,0.545,0.285,1.058,0.831,1.144
	c0.053,0.008,0.105,0.012,0.157,0.012C78.212,11.732,78.638,11.381,78.715,10.889z M59.41,12.198
	c0.545-0.086,0.918-0.599,0.832-1.144l-1.327-8.381c-0.086-0.545-0.603-0.912-1.144-0.832c-0.545,0.086-0.918,0.599-0.832,1.144
	l1.327,8.381c0.078,0.493,0.503,0.844,0.986,0.844C59.304,12.21,59.357,12.207,59.41,12.198z M42.286,18.265
	c0.492-0.251,0.688-0.853,0.437-1.345l-3.852-7.56c-0.251-0.492-0.853-0.69-1.345-0.437c-0.492,0.251-0.688,0.853-0.437,1.345
	l3.852,7.56c0.177,0.347,0.528,0.546,0.892,0.546C41.985,18.374,42.14,18.339,42.286,18.265z"/>
</svg>
