<?xml version="1.0" encoding="utf-8"?>
<!-- Generator: Adobe Illustrator 15.1.0, SVG Export Plug-In . SVG Version: 6.00 Build 0)  -->
<!DOCTYPE svg PUBLIC "-//W3C//DTD SVG 1.1//EN" "http://www.w3.org/Graphics/SVG/1.1/DTD/svg11.dtd">
<svg version="1.1" class='svg' id="Layer_1" xmlns="http://www.w3.org/2000/svg" xmlns:xlink="http://www.w3.org/1999/xlink" x="0px" y="0px"
	 width="140px" height="138.583px" viewBox="0 0 140 138.583" enable-background="new 0 0 140 138.583" xml:space="preserve">
<path fill="#231F20" d="M70,120.792c-28.397,0-51.5-23.104-51.5-51.5c0-28.397,23.103-51.5,51.5-51.5s51.5,23.103,51.5,51.5
	C121.5,97.688,98.398,120.792,70,120.792z M70,19.792c-27.294,0-49.5,22.205-49.5,49.5c0,27.294,22.206,49.5,49.5,49.5
	s49.5-22.206,49.5-49.5C119.5,41.997,97.294,19.792,70,19.792z M97.999,65.765c0.343-0.433,0.27-1.062-0.163-1.404
	c-0.673-0.533-1.518-0.827-2.378-0.827h-6c-0.553,0-1,0.448-1,1c0,0.553,0.447,1,1,1h6c0.418,0,0.811,0.137,1.136,0.395
	c0.184,0.146,0.403,0.216,0.62,0.216C97.508,66.144,97.8,66.014,97.999,65.765z M99.292,100.375V67.369
	c0-1.181-0.531-2.277-1.458-3.01c-0.434-0.342-1.063-0.268-1.405,0.165c-0.342,0.434-0.268,1.063,0.165,1.404
	c0.444,0.351,0.698,0.876,0.698,1.44v33.006c0,1.012-0.823,1.835-1.835,1.835H44.542c-1.012,0-1.835-0.823-1.835-1.835V67.369
	c0-1.012,0.823-1.835,1.835-1.835h6.165c0.553,0,1-0.447,1-1c0-0.552-0.447-1-1-1h-6.165c-2.114,0-3.835,1.721-3.835,3.835v33.006
	c0,2.114,1.721,3.835,3.835,3.835h50.915C97.572,104.209,99.292,102.489,99.292,100.375z M43.268,103.431l4.581-3.103
	c0.457-0.311,0.577-0.932,0.268-1.389c-0.31-0.458-0.932-0.576-1.389-0.268l-4.581,3.103c-0.457,0.31-0.577,0.932-0.268,1.389
	c0.193,0.285,0.509,0.439,0.829,0.439C42.902,103.603,43.096,103.547,43.268,103.431z M51.464,97.881l3.903-2.643
	c0.457-0.31,0.577-0.932,0.268-1.389s-0.931-0.577-1.389-0.268l-3.903,2.643c-0.457,0.31-0.577,0.932-0.268,1.389
	c0.193,0.285,0.509,0.439,0.829,0.439C51.097,98.053,51.292,97.998,51.464,97.881z M55.368,95.239l2.698-1.827
	c0.457-0.31,0.577-0.932,0.268-1.389c-0.31-0.458-0.933-0.577-1.389-0.268l-2.698,1.827c-0.457,0.31-0.577,0.932-0.268,1.389
	c0.193,0.285,0.509,0.439,0.829,0.439C55.001,95.411,55.196,95.355,55.368,95.239z M58.066,93.411l39.708-26.887
	c0.457-0.31,0.577-0.932,0.268-1.389c-0.31-0.458-0.932-0.576-1.389-0.268L56.945,91.754c-0.457,0.31-0.577,0.932-0.268,1.389
	c0.193,0.285,0.509,0.439,0.829,0.439C57.7,93.583,57.894,93.527,58.066,93.411z M98.132,103.164
	c0.31-0.457,0.189-1.079-0.268-1.389L43.02,64.637c-0.457-0.308-1.078-0.19-1.389,0.268c-0.31,0.457-0.189,1.079,0.268,1.389
	l54.845,37.138c0.172,0.116,0.366,0.172,0.56,0.172C97.624,103.603,97.939,103.449,98.132,103.164z M51.708,71.051V35.374
	c0-0.552-0.447-1-1-1s-1,0.448-1,1v35.678c0,0.552,0.447,1,1,1S51.708,71.603,51.708,71.051z M55.708,73.759V35.374
	c0-0.552-0.447-1-1-1s-1,0.448-1,1v38.386c0,0.552,0.447,1,1,1S55.708,74.311,55.708,73.759z M59.708,76.468V36.374h28.75v34.573
	c0,0.552,0.447,1,1,1s1-0.448,1-1V35.374c0-0.552-0.447-1-1-1h-30.75c-0.553,0-1,0.448-1,1v41.095c0,0.552,0.447,1,1,1
	S59.708,77.02,59.708,76.468z M64.687,79.839V45.812c2.521-0.423,4.515-2.417,4.938-4.938h9.411c0.43,2.716,2.581,4.867,5.297,5.297
	v27.569c0,0.552,0.447,1,1,1s1-0.448,1-1V45.25c0-0.553-0.447-1-1-1c-2.412,0-4.375-1.963-4.375-4.375c0-0.553-0.447-1-1-1h-11.25
	c-0.553,0-1,0.447-1,1c0,2.217-1.804,4.021-4.021,4.021c-0.553,0-1,0.448-1,1v34.944c0,0.552,0.447,1,1,1
	S64.687,80.391,64.687,79.839z M74.27,51.25c-2.103,0-3.813-1.711-3.813-3.813s1.71-3.813,3.813-3.813s3.813,1.71,3.813,3.813
	S76.373,51.25,74.27,51.25z M74.27,45.624c-0.999,0-1.813,0.813-1.813,1.813c0,1,0.813,1.813,1.813,1.813s1.813-0.813,1.813-1.813
	C76.083,46.437,75.269,45.624,74.27,45.624z M74.27,77.468c-2.103,0-3.813-1.711-3.813-3.813c0-2.103,1.71-3.813,3.813-3.813
	s3.813,1.711,3.813,3.813C78.083,75.757,76.373,77.468,74.27,77.468z M74.27,71.842c-0.999,0-1.813,0.813-1.813,1.813
	c0,0.999,0.813,1.813,1.813,1.813s1.813-0.813,1.813-1.813C76.083,72.656,75.269,71.842,74.27,71.842z M74.271,67.695
	c-3.964,0-7.188-3.224-7.188-7.187s3.225-7.188,7.188-7.188c3.963,0,7.187,3.225,7.187,7.188S78.234,67.695,74.271,67.695z
	 M74.271,55.321c-2.861,0-5.188,2.327-5.188,5.188c0,2.859,2.327,5.187,5.188,5.187c2.86,0,5.187-2.327,5.187-5.187
	C79.458,57.648,77.131,55.321,74.271,55.321z M15.184,21.96v-6.637h6.748c0.553,0,1-0.448,1-1c0-0.553-0.447-1-1-1h-7.748
	c-0.553,0-1,0.447-1,1v7.637c0,0.552,0.447,1,1,1S15.184,22.512,15.184,21.96z M22.875,124.259c0-0.553-0.447-1-1-1h-6.637v-6.748
	c0-0.553-0.447-1-1-1s-1,0.447-1,1v7.748c0,0.552,0.447,1,1,1h7.637C22.428,125.259,22.875,124.811,22.875,124.259z M126.817,21.96
	v-7.637c0-0.553-0.447-1-1-1h-7.748c-0.553,0-1,0.447-1,1c0,0.552,0.447,1,1,1h6.748v6.637c0,0.552,0.447,1,1,1
	S126.817,22.512,126.817,21.96z M126.761,124.259v-7.748c0-0.553-0.447-1-1-1s-1,0.447-1,1v6.748h-6.637c-0.553,0-1,0.447-1,1
	c0,0.552,0.447,1,1,1h7.637C126.314,125.259,126.761,124.811,126.761,124.259z"/>
</svg>
