<?xml version="1.0" encoding="utf-8"?>
<!-- Generator: Adobe Illustrator 15.1.0, SVG Export Plug-In . SVG Version: 6.00 Build 0)  -->
<!DOCTYPE svg PUBLIC "-//W3C//DTD SVG 1.1//EN" "http://www.w3.org/Graphics/SVG/1.1/DTD/svg11.dtd">
<svg version="1.1" class='svg' id="Layer_1" xmlns="http://www.w3.org/2000/svg" xmlns:xlink="http://www.w3.org/1999/xlink" x="0px" y="0px"
	 width="344.316px" height="161.543px" viewBox="0 0 344.316 161.543" enable-background="new 0 0 344.316 161.543"
	 xml:space="preserve">
<g>
	<path d="M74.617,133.186c89.899-38.337,179.801-76.675,269.699-115.012c-37.307-0.044-74.617-0.081-111.925-0.122
		c-5.455,7.228-11.208,15.423-16.353,21.682c2.141-7.226,4.281-14.454,6.414-21.682c-4.236-0.042-8.471-0.08-12.715-0.124
		c-3.453,9.834-10.232,22.151-15.986,31.13c-2.406,3.626-2.751-0.197-1.939-3.028c2.822-9.366,5.648-18.735,8.479-28.102
		c-4.16,0.082-8.319,0.165-12.479,0.246c-1.287,4.48-2.58,8.963-3.873,13.446l-17.564,22.89
		c3.591-12.154,7.183-24.307,10.781-36.458h-12.964c-2.097,7.266-4.2,14.532-6.297,21.802c-3.674,0.887-7.352,1.775-11.025,2.666
		c2.424-8.157,4.845-16.314,7.269-24.468c-4.685-0.042-9.366-0.08-14.054-0.124c-2.742,9.247-5.491,18.494-8.233,27.74
		c-8.563,10.095-17.12,20.193-25.683,30.283c-0.886,1.052-2.636,2.074-3.828,1.911c-3.903-0.683-3.558-10.065-3.175-16.504
		c7.27-3.008,15.061-7.958,21.298-14.238c11.75-11.019,14.114-29.071-1.451-29.067c-14.67,0.139-29.916,16.002-35.378,41.075
		c-3.785,1.565-7.443,2.81-12.193,4.913c-0.938-4.589-2.976-9.691-7.545-14.014c16.19-8.879,34.684-30.237,24.226-44.451
		c-7.838-9.827-32.616-6.189-47.969,12.961c-1.331,4.763-2.667,9.531-3.998,14.294c0.871,0.017,1.735,0.04,2.606,0.061
		c15.866-21.966,29.555-18.374,29.795-9.571c0.246,7.632-10.09,21.974-23.657,31.543c4.682,4.727,7.665,10.616,8.717,18.249
		C24.928,87.505,0.645,118.974,0,141.543c0.202,9.572,3.308,20.353,13.688,19.991c24.384-1.216,61.613-51.242,58.99-89.031
		c3.428-1.616,6.23-2.936,9.661-4.552c-1.097,8.248,0.552,28.311,15.415,23.445C109.06,87.563,120,70.16,128.758,58.085
		c-2.584,8.399-5.162,16.798-7.747,25.197c5.125-1.615,10.254-3.23,15.379-4.846c2.547-8.845,5.092-17.686,7.632-26.531
		c3.838-1.047,7.672-2.099,11.51-3.15c-2.585,8.601-5.17,17.202-7.754,25.803c4.685-1.535,9.369-3.07,14.054-4.606
		c5.853-7.751,11.705-15.503,17.564-23.254c-2.365,12.576,1.147,16.946,7.57,16.382c7.205-0.727,13.081-15.415,17.863-23.528
		c-1.244,5.663-3.318,12.374-3.028,16.836c3.638-1.211,7.269-2.422,10.901-3.633c6.344-8.116,12.682-16.236,19.02-24.349h6.418
		c-1.813,5.857-3.629,11.71-5.446,17.564c4.438-1.413,8.879-2.826,13.325-4.239c1.291-4.44,2.586-8.885,3.873-13.325l41.912,0.12
		c-70.655,28.868-141.322,57.741-211.979,86.611C78.087,121.157,76.353,127.167,74.617,133.186 M113.524,27.175
		c2.264,1.089,1.935,4.906,1.246,7.421c-1.184,5.59-6.692,13.508-14.208,17.709C102.391,43.498,109.06,25.494,113.524,27.175
		 M33.336,139.802c-11.629,11.222-15.209,4.804-14.967-2.385c0.337-21.809,19.089-42.993,35.755-54.93
		C53.404,103.004,43.836,129.224,33.336,139.802"/>
	<polyline points="227.731,96.774 223.916,104.165 230.402,104.198 230.398,127.482 238.208,127.604 238.3,96.774 	"/>
	<path d="M252.875,96.632c-7.368,0.084-11.588,4.403-11.748,10.418c0.009,6.986,5.279,11.023,12.476,9.813
		c-2.465,3.555-4.925,7.104-7.39,10.658h8.356c5.923-8.686,10.027-13.417,9.935-20.227
		C264.675,101.259,260.58,96.737,252.875,96.632 M252.693,111.837c-2.641-0.068-4.727-2.264-4.664-4.909
		c0.072-2.642,2.269-4.728,4.908-4.664c2.643,0.071,4.728,2.267,4.66,4.908C257.531,109.817,255.335,111.903,252.693,111.837"/>
	<path d="M266.292,107.739c0.089-5.935,3.368-10.952,11.082-10.96c7.714-0.009,11.811,3.49,11.811,9.324
		c0,5.977-4.602,9.712-10.175,15.205c3.193-0.025,6.499,0.004,9.691-0.018c0.038,2.099-0.038,4.155,0,6.25H265.32
		c11.406-13.694,16.576-19.116,16.596-21.315c0.01-1.969-2.006-3.814-3.877-3.814c-1.927,0-4.273,1.568-4.23,5.324"/>
	<path d="M295.035,96.787c-0.563,5.733-1.127,10.801-1.695,16.534l0.875-0.005c4.113-2.473,11.781-0.399,11.769,3.807
		c-0.042,3.491-6.939,6.423-13.249,1.043c-0.261,2.162-0.521,4.319-0.786,6.481c1.947,2.352,5.926,2.915,9.266,2.94
		c7.2-0.164,12.261-5.38,12.173-10.999c0.104-5.274-5.006-11.402-13.141-8.93c0.042-1.796,0.076-2.931,0.118-4.727
		c3.718-0.042,7.567,0.004,11.28-0.034c0-2.019-0.135-4.101-0.135-6.115C306.016,96.791,300.528,96.774,295.035,96.787"/>
</g>
</svg>
